M48
; DRILL file {KiCad 8.0.0} date 2024-03-11T09:18:02+0100
; FORMAT={-:-/ absolute / inch / decimal}
; #@! TF.CreationDate,2024-03-11T09:18:02+01:00
; #@! TF.GenerationSoftware,Kicad,Pcbnew,8.0.0
; #@! TF.FileFunction,Plated,1,2,PTH
FMAT,2
INCH
; #@! TA.AperFunction,Plated,PTH,ViaDrill
T1C0.0118
; #@! TA.AperFunction,Plated,PTH,ViaDrill
T2C0.0157
; #@! TA.AperFunction,Plated,PTH,ComponentDrill
T3C0.0300
; #@! TA.AperFunction,Plated,PTH,ComponentDrill
T4C0.0315
; #@! TA.AperFunction,Plated,PTH,ComponentDrill
T5C0.0354
; #@! TA.AperFunction,Plated,PTH,ComponentDrill
T6C0.0394
; #@! TA.AperFunction,Plated,PTH,ComponentDrill
T7C0.0787
%
G90
G05
T1
X3.1201Y-4.2462
X3.1299Y-4.3643
X3.3563Y-3.8525
X3.3563Y-3.9116
X3.5138Y-3.9116
X3.6614Y-4.2462
X3.7795Y-4.2856
X3.7844Y-3.887
X4.065Y-4.2954
X4.0964Y-4.2935
X4.4291Y-4.4135
X4.4783Y-4.3683
X4.5571Y-4.3348
X5.2264Y-3.1025
X5.9941Y-3.4096
X6.437Y-4.2954
X6.7126Y-4.2462
T2
X4.5276Y-4.7876
X7.6476Y-3.6557
X7.6575Y-3.4293
T3
X7.0276Y-3.2755
X7.0276Y-3.5335
X7.0276Y-4.5747
X7.0276Y-4.8327
X7.2046Y-3.5345
X7.2046Y-4.8337
X7.2076Y-3.2755
X7.2076Y-4.5747
X7.2545Y-3.9251
X7.2545Y-4.1831
X7.4315Y-4.1841
X7.4345Y-3.9251
X7.6482Y-3.9251
X7.6482Y-4.1831
X7.8252Y-4.1841
X7.8282Y-3.9251
X7.8844Y-3.2755
X7.8844Y-3.5335
X7.8844Y-4.5747
X7.8844Y-4.8327
X8.0614Y-3.5345
X8.0614Y-4.8337
X8.0644Y-3.2755
X8.0644Y-4.5747
T4
X1.8243Y-3.4903
X1.8243Y-4.4903
X1.9243Y-3.4903
X1.9243Y-4.4903
X2.0243Y-3.4903
X2.0243Y-4.4903
X2.1243Y-3.4903
X2.1243Y-4.4903
X2.2243Y-3.4903
X2.2243Y-4.4903
X2.3243Y-3.4903
X2.3243Y-4.4903
X2.4243Y-3.4903
X2.4243Y-4.4903
X2.5243Y-3.4903
X2.5243Y-4.4903
X2.6243Y-3.4903
X2.6243Y-4.4903
X2.7243Y-3.4903
X2.7243Y-4.4903
X2.8243Y-3.4903
X2.8243Y-4.4903
X2.9243Y-3.4903
X2.9243Y-4.4903
X3.0243Y-3.4903
X3.0243Y-4.4903
X3.1243Y-3.4903
X3.1243Y-4.4903
X3.2243Y-3.4903
X3.2243Y-4.4903
X3.4783Y-4.4399
X3.4783Y-4.8399
X3.6378Y-4.4399
X3.6378Y-4.8399
X3.7972Y-4.4399
X3.7972Y-4.8399
X3.9567Y-4.4399
X3.9567Y-4.8399
X4.1161Y-4.4399
X4.1161Y-4.8399
X4.2756Y-4.4399
X4.2756Y-4.8399
T5
X3.5236Y-3.7344
X3.5236Y-4.0887
X3.6236Y-3.7344
X3.6236Y-4.0887
X3.7992Y-3.7344
X3.7992Y-4.0887
X3.8992Y-3.7344
X3.8992Y-4.0887
X4.0748Y-3.7344
X4.0748Y-4.0887
X4.1748Y-3.7344
X4.1748Y-4.0887
T6
X4.6606Y-3.2789
X4.7606Y-3.2789
X4.8606Y-3.2789
X4.9606Y-3.2789
X5.0606Y-3.2789
X5.1606Y-3.2789
X5.2606Y-3.2789
X5.3606Y-3.2789
X6.1122Y-3.2817
X6.2122Y-3.2817
X6.3122Y-3.2817
X6.4122Y-3.2817
T7
X1.8261Y-3.2738
X2.0426Y-3.2738
X2.1161Y-4.6891
X2.4311Y-4.758
X2.6181Y-4.7187
X2.6575Y-3.2817
X2.8543Y-3.2029
X2.9284Y-4.7187
X3.0269Y-3.3013
X3.0709Y-4.7777
X3.189Y-3.2029
X3.2237Y-4.7187
X3.3661Y-3.2817
M30
