%TF.GenerationSoftware,KiCad,Pcbnew,8.0.0*%
%TF.CreationDate,2024-03-10T20:57:54+01:00*%
%TF.ProjectId,EEK,45454b2e-6b69-4636-9164-5f7063625858,V1.0*%
%TF.SameCoordinates,Original*%
%TF.FileFunction,Legend,Top*%
%TF.FilePolarity,Positive*%
%FSLAX46Y46*%
G04 Gerber Fmt 4.6, Leading zero omitted, Abs format (unit mm)*
G04 Created by KiCad (PCBNEW 8.0.0) date 2024-03-10 20:57:54*
%MOMM*%
%LPD*%
G01*
G04 APERTURE LIST*
%ADD10C,0.300000*%
%ADD11C,0.200000*%
%ADD12C,0.100000*%
%ADD13C,0.150000*%
%ADD14C,0.120000*%
%ADD15C,0.010000*%
G04 APERTURE END LIST*
D10*
X129090225Y-67372257D02*
X128947368Y-67300828D01*
X128947368Y-67300828D02*
X128733082Y-67300828D01*
X128733082Y-67300828D02*
X128518796Y-67372257D01*
X128518796Y-67372257D02*
X128375939Y-67515114D01*
X128375939Y-67515114D02*
X128304510Y-67657971D01*
X128304510Y-67657971D02*
X128233082Y-67943685D01*
X128233082Y-67943685D02*
X128233082Y-68157971D01*
X128233082Y-68157971D02*
X128304510Y-68443685D01*
X128304510Y-68443685D02*
X128375939Y-68586542D01*
X128375939Y-68586542D02*
X128518796Y-68729400D01*
X128518796Y-68729400D02*
X128733082Y-68800828D01*
X128733082Y-68800828D02*
X128875939Y-68800828D01*
X128875939Y-68800828D02*
X129090225Y-68729400D01*
X129090225Y-68729400D02*
X129161653Y-68657971D01*
X129161653Y-68657971D02*
X129161653Y-68157971D01*
X129161653Y-68157971D02*
X128875939Y-68157971D01*
X130304510Y-68015114D02*
X130518796Y-68086542D01*
X130518796Y-68086542D02*
X130590225Y-68157971D01*
X130590225Y-68157971D02*
X130661653Y-68300828D01*
X130661653Y-68300828D02*
X130661653Y-68515114D01*
X130661653Y-68515114D02*
X130590225Y-68657971D01*
X130590225Y-68657971D02*
X130518796Y-68729400D01*
X130518796Y-68729400D02*
X130375939Y-68800828D01*
X130375939Y-68800828D02*
X129804510Y-68800828D01*
X129804510Y-68800828D02*
X129804510Y-67300828D01*
X129804510Y-67300828D02*
X130304510Y-67300828D01*
X130304510Y-67300828D02*
X130447368Y-67372257D01*
X130447368Y-67372257D02*
X130518796Y-67443685D01*
X130518796Y-67443685D02*
X130590225Y-67586542D01*
X130590225Y-67586542D02*
X130590225Y-67729400D01*
X130590225Y-67729400D02*
X130518796Y-67872257D01*
X130518796Y-67872257D02*
X130447368Y-67943685D01*
X130447368Y-67943685D02*
X130304510Y-68015114D01*
X130304510Y-68015114D02*
X129804510Y-68015114D01*
X132018796Y-68800828D02*
X131304510Y-68800828D01*
X131304510Y-68800828D02*
X131304510Y-67300828D01*
X120840225Y-68086542D02*
X120840225Y-68800828D01*
X120340225Y-67300828D02*
X120840225Y-68086542D01*
X120840225Y-68086542D02*
X121340225Y-67300828D01*
X122340224Y-68015114D02*
X122554510Y-68086542D01*
X122554510Y-68086542D02*
X122625939Y-68157971D01*
X122625939Y-68157971D02*
X122697367Y-68300828D01*
X122697367Y-68300828D02*
X122697367Y-68515114D01*
X122697367Y-68515114D02*
X122625939Y-68657971D01*
X122625939Y-68657971D02*
X122554510Y-68729400D01*
X122554510Y-68729400D02*
X122411653Y-68800828D01*
X122411653Y-68800828D02*
X121840224Y-68800828D01*
X121840224Y-68800828D02*
X121840224Y-67300828D01*
X121840224Y-67300828D02*
X122340224Y-67300828D01*
X122340224Y-67300828D02*
X122483082Y-67372257D01*
X122483082Y-67372257D02*
X122554510Y-67443685D01*
X122554510Y-67443685D02*
X122625939Y-67586542D01*
X122625939Y-67586542D02*
X122625939Y-67729400D01*
X122625939Y-67729400D02*
X122554510Y-67872257D01*
X122554510Y-67872257D02*
X122483082Y-67943685D01*
X122483082Y-67943685D02*
X122340224Y-68015114D01*
X122340224Y-68015114D02*
X121840224Y-68015114D01*
X124054510Y-68800828D02*
X123340224Y-68800828D01*
X123340224Y-68800828D02*
X123340224Y-67300828D01*
X113911653Y-68800828D02*
X113411653Y-68086542D01*
X113054510Y-68800828D02*
X113054510Y-67300828D01*
X113054510Y-67300828D02*
X113625939Y-67300828D01*
X113625939Y-67300828D02*
X113768796Y-67372257D01*
X113768796Y-67372257D02*
X113840225Y-67443685D01*
X113840225Y-67443685D02*
X113911653Y-67586542D01*
X113911653Y-67586542D02*
X113911653Y-67800828D01*
X113911653Y-67800828D02*
X113840225Y-67943685D01*
X113840225Y-67943685D02*
X113768796Y-68015114D01*
X113768796Y-68015114D02*
X113625939Y-68086542D01*
X113625939Y-68086542D02*
X113054510Y-68086542D01*
X115054510Y-68015114D02*
X115268796Y-68086542D01*
X115268796Y-68086542D02*
X115340225Y-68157971D01*
X115340225Y-68157971D02*
X115411653Y-68300828D01*
X115411653Y-68300828D02*
X115411653Y-68515114D01*
X115411653Y-68515114D02*
X115340225Y-68657971D01*
X115340225Y-68657971D02*
X115268796Y-68729400D01*
X115268796Y-68729400D02*
X115125939Y-68800828D01*
X115125939Y-68800828D02*
X114554510Y-68800828D01*
X114554510Y-68800828D02*
X114554510Y-67300828D01*
X114554510Y-67300828D02*
X115054510Y-67300828D01*
X115054510Y-67300828D02*
X115197368Y-67372257D01*
X115197368Y-67372257D02*
X115268796Y-67443685D01*
X115268796Y-67443685D02*
X115340225Y-67586542D01*
X115340225Y-67586542D02*
X115340225Y-67729400D01*
X115340225Y-67729400D02*
X115268796Y-67872257D01*
X115268796Y-67872257D02*
X115197368Y-67943685D01*
X115197368Y-67943685D02*
X115054510Y-68015114D01*
X115054510Y-68015114D02*
X114554510Y-68015114D01*
X116768796Y-68800828D02*
X116054510Y-68800828D01*
X116054510Y-68800828D02*
X116054510Y-67300828D01*
X127340225Y-46872257D02*
X127197368Y-46800828D01*
X127197368Y-46800828D02*
X126983082Y-46800828D01*
X126983082Y-46800828D02*
X126768796Y-46872257D01*
X126768796Y-46872257D02*
X126625939Y-47015114D01*
X126625939Y-47015114D02*
X126554510Y-47157971D01*
X126554510Y-47157971D02*
X126483082Y-47443685D01*
X126483082Y-47443685D02*
X126483082Y-47657971D01*
X126483082Y-47657971D02*
X126554510Y-47943685D01*
X126554510Y-47943685D02*
X126625939Y-48086542D01*
X126625939Y-48086542D02*
X126768796Y-48229400D01*
X126768796Y-48229400D02*
X126983082Y-48300828D01*
X126983082Y-48300828D02*
X127125939Y-48300828D01*
X127125939Y-48300828D02*
X127340225Y-48229400D01*
X127340225Y-48229400D02*
X127411653Y-48157971D01*
X127411653Y-48157971D02*
X127411653Y-47657971D01*
X127411653Y-47657971D02*
X127125939Y-47657971D01*
X128554510Y-47515114D02*
X128054510Y-47515114D01*
X128054510Y-48300828D02*
X128054510Y-46800828D01*
X128054510Y-46800828D02*
X128768796Y-46800828D01*
X130054510Y-48300828D02*
X129340224Y-48300828D01*
X129340224Y-48300828D02*
X129340224Y-46800828D01*
X120054510Y-47515114D02*
X120268796Y-47586542D01*
X120268796Y-47586542D02*
X120340225Y-47657971D01*
X120340225Y-47657971D02*
X120411653Y-47800828D01*
X120411653Y-47800828D02*
X120411653Y-48015114D01*
X120411653Y-48015114D02*
X120340225Y-48157971D01*
X120340225Y-48157971D02*
X120268796Y-48229400D01*
X120268796Y-48229400D02*
X120125939Y-48300828D01*
X120125939Y-48300828D02*
X119554510Y-48300828D01*
X119554510Y-48300828D02*
X119554510Y-46800828D01*
X119554510Y-46800828D02*
X120054510Y-46800828D01*
X120054510Y-46800828D02*
X120197368Y-46872257D01*
X120197368Y-46872257D02*
X120268796Y-46943685D01*
X120268796Y-46943685D02*
X120340225Y-47086542D01*
X120340225Y-47086542D02*
X120340225Y-47229400D01*
X120340225Y-47229400D02*
X120268796Y-47372257D01*
X120268796Y-47372257D02*
X120197368Y-47443685D01*
X120197368Y-47443685D02*
X120054510Y-47515114D01*
X120054510Y-47515114D02*
X119554510Y-47515114D01*
X121554510Y-47515114D02*
X121054510Y-47515114D01*
X121054510Y-48300828D02*
X121054510Y-46800828D01*
X121054510Y-46800828D02*
X121768796Y-46800828D01*
X123054510Y-48300828D02*
X122340224Y-48300828D01*
X122340224Y-48300828D02*
X122340224Y-46800828D01*
X113911653Y-48300828D02*
X113411653Y-47586542D01*
X113054510Y-48300828D02*
X113054510Y-46800828D01*
X113054510Y-46800828D02*
X113625939Y-46800828D01*
X113625939Y-46800828D02*
X113768796Y-46872257D01*
X113768796Y-46872257D02*
X113840225Y-46943685D01*
X113840225Y-46943685D02*
X113911653Y-47086542D01*
X113911653Y-47086542D02*
X113911653Y-47300828D01*
X113911653Y-47300828D02*
X113840225Y-47443685D01*
X113840225Y-47443685D02*
X113768796Y-47515114D01*
X113768796Y-47515114D02*
X113625939Y-47586542D01*
X113625939Y-47586542D02*
X113054510Y-47586542D01*
X115054510Y-47515114D02*
X114554510Y-47515114D01*
X114554510Y-48300828D02*
X114554510Y-46800828D01*
X114554510Y-46800828D02*
X115268796Y-46800828D01*
X116554510Y-48300828D02*
X115840224Y-48300828D01*
X115840224Y-48300828D02*
X115840224Y-46800828D01*
X119161653Y-83550828D02*
X120090225Y-83550828D01*
X120090225Y-83550828D02*
X119590225Y-84122257D01*
X119590225Y-84122257D02*
X119804510Y-84122257D01*
X119804510Y-84122257D02*
X119947368Y-84193685D01*
X119947368Y-84193685D02*
X120018796Y-84265114D01*
X120018796Y-84265114D02*
X120090225Y-84407971D01*
X120090225Y-84407971D02*
X120090225Y-84765114D01*
X120090225Y-84765114D02*
X120018796Y-84907971D01*
X120018796Y-84907971D02*
X119947368Y-84979400D01*
X119947368Y-84979400D02*
X119804510Y-85050828D01*
X119804510Y-85050828D02*
X119375939Y-85050828D01*
X119375939Y-85050828D02*
X119233082Y-84979400D01*
X119233082Y-84979400D02*
X119161653Y-84907971D01*
X120590224Y-83550828D02*
X121518796Y-83550828D01*
X121518796Y-83550828D02*
X121018796Y-84122257D01*
X121018796Y-84122257D02*
X121233081Y-84122257D01*
X121233081Y-84122257D02*
X121375939Y-84193685D01*
X121375939Y-84193685D02*
X121447367Y-84265114D01*
X121447367Y-84265114D02*
X121518796Y-84407971D01*
X121518796Y-84407971D02*
X121518796Y-84765114D01*
X121518796Y-84765114D02*
X121447367Y-84907971D01*
X121447367Y-84907971D02*
X121375939Y-84979400D01*
X121375939Y-84979400D02*
X121233081Y-85050828D01*
X121233081Y-85050828D02*
X120804510Y-85050828D01*
X120804510Y-85050828D02*
X120661653Y-84979400D01*
X120661653Y-84979400D02*
X120590224Y-84907971D01*
X122447367Y-83550828D02*
X122590224Y-83550828D01*
X122590224Y-83550828D02*
X122733081Y-83622257D01*
X122733081Y-83622257D02*
X122804510Y-83693685D01*
X122804510Y-83693685D02*
X122875938Y-83836542D01*
X122875938Y-83836542D02*
X122947367Y-84122257D01*
X122947367Y-84122257D02*
X122947367Y-84479400D01*
X122947367Y-84479400D02*
X122875938Y-84765114D01*
X122875938Y-84765114D02*
X122804510Y-84907971D01*
X122804510Y-84907971D02*
X122733081Y-84979400D01*
X122733081Y-84979400D02*
X122590224Y-85050828D01*
X122590224Y-85050828D02*
X122447367Y-85050828D01*
X122447367Y-85050828D02*
X122304510Y-84979400D01*
X122304510Y-84979400D02*
X122233081Y-84907971D01*
X122233081Y-84907971D02*
X122161652Y-84765114D01*
X122161652Y-84765114D02*
X122090224Y-84479400D01*
X122090224Y-84479400D02*
X122090224Y-84122257D01*
X122090224Y-84122257D02*
X122161652Y-83836542D01*
X122161652Y-83836542D02*
X122233081Y-83693685D01*
X122233081Y-83693685D02*
X122304510Y-83622257D01*
X122304510Y-83622257D02*
X122447367Y-83550828D01*
X146054510Y-47385912D02*
X146054510Y-45885912D01*
X146054510Y-45885912D02*
X146554510Y-46957341D01*
X146554510Y-46957341D02*
X147054510Y-45885912D01*
X147054510Y-45885912D02*
X147054510Y-47385912D01*
X148625939Y-47243055D02*
X148554511Y-47314484D01*
X148554511Y-47314484D02*
X148340225Y-47385912D01*
X148340225Y-47385912D02*
X148197368Y-47385912D01*
X148197368Y-47385912D02*
X147983082Y-47314484D01*
X147983082Y-47314484D02*
X147840225Y-47171626D01*
X147840225Y-47171626D02*
X147768796Y-47028769D01*
X147768796Y-47028769D02*
X147697368Y-46743055D01*
X147697368Y-46743055D02*
X147697368Y-46528769D01*
X147697368Y-46528769D02*
X147768796Y-46243055D01*
X147768796Y-46243055D02*
X147840225Y-46100198D01*
X147840225Y-46100198D02*
X147983082Y-45957341D01*
X147983082Y-45957341D02*
X148197368Y-45885912D01*
X148197368Y-45885912D02*
X148340225Y-45885912D01*
X148340225Y-45885912D02*
X148554511Y-45957341D01*
X148554511Y-45957341D02*
X148625939Y-46028769D01*
X149268796Y-45885912D02*
X149268796Y-47100198D01*
X149268796Y-47100198D02*
X149340225Y-47243055D01*
X149340225Y-47243055D02*
X149411654Y-47314484D01*
X149411654Y-47314484D02*
X149554511Y-47385912D01*
X149554511Y-47385912D02*
X149840225Y-47385912D01*
X149840225Y-47385912D02*
X149983082Y-47314484D01*
X149983082Y-47314484D02*
X150054511Y-47243055D01*
X150054511Y-47243055D02*
X150125939Y-47100198D01*
X150125939Y-47100198D02*
X150125939Y-45885912D01*
X151483083Y-45885912D02*
X151197368Y-45885912D01*
X151197368Y-45885912D02*
X151054511Y-45957341D01*
X151054511Y-45957341D02*
X150983083Y-46028769D01*
X150983083Y-46028769D02*
X150840225Y-46243055D01*
X150840225Y-46243055D02*
X150768797Y-46528769D01*
X150768797Y-46528769D02*
X150768797Y-47100198D01*
X150768797Y-47100198D02*
X150840225Y-47243055D01*
X150840225Y-47243055D02*
X150911654Y-47314484D01*
X150911654Y-47314484D02*
X151054511Y-47385912D01*
X151054511Y-47385912D02*
X151340225Y-47385912D01*
X151340225Y-47385912D02*
X151483083Y-47314484D01*
X151483083Y-47314484D02*
X151554511Y-47243055D01*
X151554511Y-47243055D02*
X151625940Y-47100198D01*
X151625940Y-47100198D02*
X151625940Y-46743055D01*
X151625940Y-46743055D02*
X151554511Y-46600198D01*
X151554511Y-46600198D02*
X151483083Y-46528769D01*
X151483083Y-46528769D02*
X151340225Y-46457341D01*
X151340225Y-46457341D02*
X151054511Y-46457341D01*
X151054511Y-46457341D02*
X150911654Y-46528769D01*
X150911654Y-46528769D02*
X150840225Y-46600198D01*
X150840225Y-46600198D02*
X150768797Y-46743055D01*
X152554511Y-45885912D02*
X152697368Y-45885912D01*
X152697368Y-45885912D02*
X152840225Y-45957341D01*
X152840225Y-45957341D02*
X152911654Y-46028769D01*
X152911654Y-46028769D02*
X152983082Y-46171626D01*
X152983082Y-46171626D02*
X153054511Y-46457341D01*
X153054511Y-46457341D02*
X153054511Y-46814484D01*
X153054511Y-46814484D02*
X152983082Y-47100198D01*
X152983082Y-47100198D02*
X152911654Y-47243055D01*
X152911654Y-47243055D02*
X152840225Y-47314484D01*
X152840225Y-47314484D02*
X152697368Y-47385912D01*
X152697368Y-47385912D02*
X152554511Y-47385912D01*
X152554511Y-47385912D02*
X152411654Y-47314484D01*
X152411654Y-47314484D02*
X152340225Y-47243055D01*
X152340225Y-47243055D02*
X152268796Y-47100198D01*
X152268796Y-47100198D02*
X152197368Y-46814484D01*
X152197368Y-46814484D02*
X152197368Y-46457341D01*
X152197368Y-46457341D02*
X152268796Y-46171626D01*
X152268796Y-46171626D02*
X152340225Y-46028769D01*
X152340225Y-46028769D02*
X152411654Y-45957341D01*
X152411654Y-45957341D02*
X152554511Y-45885912D01*
X154411653Y-45885912D02*
X153697367Y-45885912D01*
X153697367Y-45885912D02*
X153625939Y-46600198D01*
X153625939Y-46600198D02*
X153697367Y-46528769D01*
X153697367Y-46528769D02*
X153840225Y-46457341D01*
X153840225Y-46457341D02*
X154197367Y-46457341D01*
X154197367Y-46457341D02*
X154340225Y-46528769D01*
X154340225Y-46528769D02*
X154411653Y-46600198D01*
X154411653Y-46600198D02*
X154483082Y-46743055D01*
X154483082Y-46743055D02*
X154483082Y-47100198D01*
X154483082Y-47100198D02*
X154411653Y-47243055D01*
X154411653Y-47243055D02*
X154340225Y-47314484D01*
X154340225Y-47314484D02*
X154197367Y-47385912D01*
X154197367Y-47385912D02*
X153840225Y-47385912D01*
X153840225Y-47385912D02*
X153697367Y-47314484D01*
X153697367Y-47314484D02*
X153625939Y-47243055D01*
X155411653Y-45885912D02*
X155554510Y-45885912D01*
X155554510Y-45885912D02*
X155697367Y-45957341D01*
X155697367Y-45957341D02*
X155768796Y-46028769D01*
X155768796Y-46028769D02*
X155840224Y-46171626D01*
X155840224Y-46171626D02*
X155911653Y-46457341D01*
X155911653Y-46457341D02*
X155911653Y-46814484D01*
X155911653Y-46814484D02*
X155840224Y-47100198D01*
X155840224Y-47100198D02*
X155768796Y-47243055D01*
X155768796Y-47243055D02*
X155697367Y-47314484D01*
X155697367Y-47314484D02*
X155554510Y-47385912D01*
X155554510Y-47385912D02*
X155411653Y-47385912D01*
X155411653Y-47385912D02*
X155268796Y-47314484D01*
X155268796Y-47314484D02*
X155197367Y-47243055D01*
X155197367Y-47243055D02*
X155125938Y-47100198D01*
X155125938Y-47100198D02*
X155054510Y-46814484D01*
X155054510Y-46814484D02*
X155054510Y-46457341D01*
X155054510Y-46457341D02*
X155125938Y-46171626D01*
X155125938Y-46171626D02*
X155197367Y-46028769D01*
X155197367Y-46028769D02*
X155268796Y-45957341D01*
X155268796Y-45957341D02*
X155411653Y-45885912D01*
X146483082Y-50372257D02*
X146411653Y-50300828D01*
X146411653Y-50300828D02*
X146268796Y-50086542D01*
X146268796Y-50086542D02*
X146197368Y-49943685D01*
X146197368Y-49943685D02*
X146125939Y-49729400D01*
X146125939Y-49729400D02*
X146054510Y-49372257D01*
X146054510Y-49372257D02*
X146054510Y-49086542D01*
X146054510Y-49086542D02*
X146125939Y-48729400D01*
X146125939Y-48729400D02*
X146197368Y-48515114D01*
X146197368Y-48515114D02*
X146268796Y-48372257D01*
X146268796Y-48372257D02*
X146411653Y-48157971D01*
X146411653Y-48157971D02*
X146483082Y-48086542D01*
X147840225Y-48372257D02*
X147697368Y-48300828D01*
X147697368Y-48300828D02*
X147483082Y-48300828D01*
X147483082Y-48300828D02*
X147268796Y-48372257D01*
X147268796Y-48372257D02*
X147125939Y-48515114D01*
X147125939Y-48515114D02*
X147054510Y-48657971D01*
X147054510Y-48657971D02*
X146983082Y-48943685D01*
X146983082Y-48943685D02*
X146983082Y-49157971D01*
X146983082Y-49157971D02*
X147054510Y-49443685D01*
X147054510Y-49443685D02*
X147125939Y-49586542D01*
X147125939Y-49586542D02*
X147268796Y-49729400D01*
X147268796Y-49729400D02*
X147483082Y-49800828D01*
X147483082Y-49800828D02*
X147625939Y-49800828D01*
X147625939Y-49800828D02*
X147840225Y-49729400D01*
X147840225Y-49729400D02*
X147911653Y-49657971D01*
X147911653Y-49657971D02*
X147911653Y-49157971D01*
X147911653Y-49157971D02*
X147625939Y-49157971D01*
X148840225Y-49086542D02*
X148840225Y-49800828D01*
X148340225Y-48300828D02*
X148840225Y-49086542D01*
X148840225Y-49086542D02*
X149340225Y-48300828D01*
X149840224Y-49229400D02*
X150983082Y-49229400D01*
X152411653Y-48300828D02*
X151697367Y-48300828D01*
X151697367Y-48300828D02*
X151625939Y-49015114D01*
X151625939Y-49015114D02*
X151697367Y-48943685D01*
X151697367Y-48943685D02*
X151840225Y-48872257D01*
X151840225Y-48872257D02*
X152197367Y-48872257D01*
X152197367Y-48872257D02*
X152340225Y-48943685D01*
X152340225Y-48943685D02*
X152411653Y-49015114D01*
X152411653Y-49015114D02*
X152483082Y-49157971D01*
X152483082Y-49157971D02*
X152483082Y-49515114D01*
X152483082Y-49515114D02*
X152411653Y-49657971D01*
X152411653Y-49657971D02*
X152340225Y-49729400D01*
X152340225Y-49729400D02*
X152197367Y-49800828D01*
X152197367Y-49800828D02*
X151840225Y-49800828D01*
X151840225Y-49800828D02*
X151697367Y-49729400D01*
X151697367Y-49729400D02*
X151625939Y-49657971D01*
X153054510Y-48443685D02*
X153125938Y-48372257D01*
X153125938Y-48372257D02*
X153268796Y-48300828D01*
X153268796Y-48300828D02*
X153625938Y-48300828D01*
X153625938Y-48300828D02*
X153768796Y-48372257D01*
X153768796Y-48372257D02*
X153840224Y-48443685D01*
X153840224Y-48443685D02*
X153911653Y-48586542D01*
X153911653Y-48586542D02*
X153911653Y-48729400D01*
X153911653Y-48729400D02*
X153840224Y-48943685D01*
X153840224Y-48943685D02*
X152983081Y-49800828D01*
X152983081Y-49800828D02*
X153911653Y-49800828D01*
X155340224Y-49800828D02*
X154483081Y-49800828D01*
X154911652Y-49800828D02*
X154911652Y-48300828D01*
X154911652Y-48300828D02*
X154768795Y-48515114D01*
X154768795Y-48515114D02*
X154625938Y-48657971D01*
X154625938Y-48657971D02*
X154483081Y-48729400D01*
X155840223Y-50372257D02*
X155911652Y-50300828D01*
X155911652Y-50300828D02*
X156054509Y-50086542D01*
X156054509Y-50086542D02*
X156125938Y-49943685D01*
X156125938Y-49943685D02*
X156197366Y-49729400D01*
X156197366Y-49729400D02*
X156268795Y-49372257D01*
X156268795Y-49372257D02*
X156268795Y-49086542D01*
X156268795Y-49086542D02*
X156197366Y-48729400D01*
X156197366Y-48729400D02*
X156125938Y-48515114D01*
X156125938Y-48515114D02*
X156054509Y-48372257D01*
X156054509Y-48372257D02*
X155911652Y-48157971D01*
X155911652Y-48157971D02*
X155840223Y-48086542D01*
X180340225Y-55300828D02*
X180625939Y-55300828D01*
X180625939Y-55300828D02*
X180768796Y-55372257D01*
X180768796Y-55372257D02*
X180911653Y-55515114D01*
X180911653Y-55515114D02*
X180983082Y-55800828D01*
X180983082Y-55800828D02*
X180983082Y-56300828D01*
X180983082Y-56300828D02*
X180911653Y-56586542D01*
X180911653Y-56586542D02*
X180768796Y-56729400D01*
X180768796Y-56729400D02*
X180625939Y-56800828D01*
X180625939Y-56800828D02*
X180340225Y-56800828D01*
X180340225Y-56800828D02*
X180197368Y-56729400D01*
X180197368Y-56729400D02*
X180054510Y-56586542D01*
X180054510Y-56586542D02*
X179983082Y-56300828D01*
X179983082Y-56300828D02*
X179983082Y-55800828D01*
X179983082Y-55800828D02*
X180054510Y-55515114D01*
X180054510Y-55515114D02*
X180197368Y-55372257D01*
X180197368Y-55372257D02*
X180340225Y-55300828D01*
X182340225Y-56800828D02*
X181625939Y-56800828D01*
X181625939Y-56800828D02*
X181625939Y-55300828D01*
X182840225Y-56015114D02*
X183340225Y-56015114D01*
X183554511Y-56800828D02*
X182840225Y-56800828D01*
X182840225Y-56800828D02*
X182840225Y-55300828D01*
X182840225Y-55300828D02*
X183554511Y-55300828D01*
X184197368Y-56800828D02*
X184197368Y-55300828D01*
X184197368Y-55300828D02*
X184554511Y-55300828D01*
X184554511Y-55300828D02*
X184768797Y-55372257D01*
X184768797Y-55372257D02*
X184911654Y-55515114D01*
X184911654Y-55515114D02*
X184983083Y-55657971D01*
X184983083Y-55657971D02*
X185054511Y-55943685D01*
X185054511Y-55943685D02*
X185054511Y-56157971D01*
X185054511Y-56157971D02*
X184983083Y-56443685D01*
X184983083Y-56443685D02*
X184911654Y-56586542D01*
X184911654Y-56586542D02*
X184768797Y-56729400D01*
X184768797Y-56729400D02*
X184554511Y-56800828D01*
X184554511Y-56800828D02*
X184197368Y-56800828D01*
X77554510Y-60015114D02*
X78054510Y-60015114D01*
X78268796Y-60800828D02*
X77554510Y-60800828D01*
X77554510Y-60800828D02*
X77554510Y-59300828D01*
X77554510Y-59300828D02*
X78268796Y-59300828D01*
X78840225Y-60729400D02*
X79054511Y-60800828D01*
X79054511Y-60800828D02*
X79411653Y-60800828D01*
X79411653Y-60800828D02*
X79554511Y-60729400D01*
X79554511Y-60729400D02*
X79625939Y-60657971D01*
X79625939Y-60657971D02*
X79697368Y-60515114D01*
X79697368Y-60515114D02*
X79697368Y-60372257D01*
X79697368Y-60372257D02*
X79625939Y-60229400D01*
X79625939Y-60229400D02*
X79554511Y-60157971D01*
X79554511Y-60157971D02*
X79411653Y-60086542D01*
X79411653Y-60086542D02*
X79125939Y-60015114D01*
X79125939Y-60015114D02*
X78983082Y-59943685D01*
X78983082Y-59943685D02*
X78911653Y-59872257D01*
X78911653Y-59872257D02*
X78840225Y-59729400D01*
X78840225Y-59729400D02*
X78840225Y-59586542D01*
X78840225Y-59586542D02*
X78911653Y-59443685D01*
X78911653Y-59443685D02*
X78983082Y-59372257D01*
X78983082Y-59372257D02*
X79125939Y-59300828D01*
X79125939Y-59300828D02*
X79483082Y-59300828D01*
X79483082Y-59300828D02*
X79697368Y-59372257D01*
X80340224Y-60800828D02*
X80340224Y-59300828D01*
X80340224Y-59300828D02*
X80911653Y-59300828D01*
X80911653Y-59300828D02*
X81054510Y-59372257D01*
X81054510Y-59372257D02*
X81125939Y-59443685D01*
X81125939Y-59443685D02*
X81197367Y-59586542D01*
X81197367Y-59586542D02*
X81197367Y-59800828D01*
X81197367Y-59800828D02*
X81125939Y-59943685D01*
X81125939Y-59943685D02*
X81054510Y-60015114D01*
X81054510Y-60015114D02*
X80911653Y-60086542D01*
X80911653Y-60086542D02*
X80340224Y-60086542D01*
X81840224Y-60229400D02*
X82983082Y-60229400D01*
X83554510Y-59300828D02*
X83911653Y-60800828D01*
X83911653Y-60800828D02*
X84197367Y-59729400D01*
X84197367Y-59729400D02*
X84483082Y-60800828D01*
X84483082Y-60800828D02*
X84840225Y-59300828D01*
X86268796Y-60800828D02*
X85768796Y-60086542D01*
X85411653Y-60800828D02*
X85411653Y-59300828D01*
X85411653Y-59300828D02*
X85983082Y-59300828D01*
X85983082Y-59300828D02*
X86125939Y-59372257D01*
X86125939Y-59372257D02*
X86197368Y-59443685D01*
X86197368Y-59443685D02*
X86268796Y-59586542D01*
X86268796Y-59586542D02*
X86268796Y-59800828D01*
X86268796Y-59800828D02*
X86197368Y-59943685D01*
X86197368Y-59943685D02*
X86125939Y-60015114D01*
X86125939Y-60015114D02*
X85983082Y-60086542D01*
X85983082Y-60086542D02*
X85411653Y-60086542D01*
X87197368Y-59300828D02*
X87483082Y-59300828D01*
X87483082Y-59300828D02*
X87625939Y-59372257D01*
X87625939Y-59372257D02*
X87768796Y-59515114D01*
X87768796Y-59515114D02*
X87840225Y-59800828D01*
X87840225Y-59800828D02*
X87840225Y-60300828D01*
X87840225Y-60300828D02*
X87768796Y-60586542D01*
X87768796Y-60586542D02*
X87625939Y-60729400D01*
X87625939Y-60729400D02*
X87483082Y-60800828D01*
X87483082Y-60800828D02*
X87197368Y-60800828D01*
X87197368Y-60800828D02*
X87054511Y-60729400D01*
X87054511Y-60729400D02*
X86911653Y-60586542D01*
X86911653Y-60586542D02*
X86840225Y-60300828D01*
X86840225Y-60300828D02*
X86840225Y-59800828D01*
X86840225Y-59800828D02*
X86911653Y-59515114D01*
X86911653Y-59515114D02*
X87054511Y-59372257D01*
X87054511Y-59372257D02*
X87197368Y-59300828D01*
X88768797Y-59300828D02*
X89054511Y-59300828D01*
X89054511Y-59300828D02*
X89197368Y-59372257D01*
X89197368Y-59372257D02*
X89340225Y-59515114D01*
X89340225Y-59515114D02*
X89411654Y-59800828D01*
X89411654Y-59800828D02*
X89411654Y-60300828D01*
X89411654Y-60300828D02*
X89340225Y-60586542D01*
X89340225Y-60586542D02*
X89197368Y-60729400D01*
X89197368Y-60729400D02*
X89054511Y-60800828D01*
X89054511Y-60800828D02*
X88768797Y-60800828D01*
X88768797Y-60800828D02*
X88625940Y-60729400D01*
X88625940Y-60729400D02*
X88483082Y-60586542D01*
X88483082Y-60586542D02*
X88411654Y-60300828D01*
X88411654Y-60300828D02*
X88411654Y-59800828D01*
X88411654Y-59800828D02*
X88483082Y-59515114D01*
X88483082Y-59515114D02*
X88625940Y-59372257D01*
X88625940Y-59372257D02*
X88768797Y-59300828D01*
X90054511Y-60800828D02*
X90054511Y-59300828D01*
X90054511Y-59300828D02*
X90554511Y-60372257D01*
X90554511Y-60372257D02*
X91054511Y-59300828D01*
X91054511Y-59300828D02*
X91054511Y-60800828D01*
X91768797Y-60229400D02*
X92911655Y-60229400D01*
X93483083Y-59300828D02*
X94411655Y-59300828D01*
X94411655Y-59300828D02*
X93911655Y-59872257D01*
X93911655Y-59872257D02*
X94125940Y-59872257D01*
X94125940Y-59872257D02*
X94268798Y-59943685D01*
X94268798Y-59943685D02*
X94340226Y-60015114D01*
X94340226Y-60015114D02*
X94411655Y-60157971D01*
X94411655Y-60157971D02*
X94411655Y-60515114D01*
X94411655Y-60515114D02*
X94340226Y-60657971D01*
X94340226Y-60657971D02*
X94268798Y-60729400D01*
X94268798Y-60729400D02*
X94125940Y-60800828D01*
X94125940Y-60800828D02*
X93697369Y-60800828D01*
X93697369Y-60800828D02*
X93554512Y-60729400D01*
X93554512Y-60729400D02*
X93483083Y-60657971D01*
X94983083Y-59443685D02*
X95054511Y-59372257D01*
X95054511Y-59372257D02*
X95197369Y-59300828D01*
X95197369Y-59300828D02*
X95554511Y-59300828D01*
X95554511Y-59300828D02*
X95697369Y-59372257D01*
X95697369Y-59372257D02*
X95768797Y-59443685D01*
X95768797Y-59443685D02*
X95840226Y-59586542D01*
X95840226Y-59586542D02*
X95840226Y-59729400D01*
X95840226Y-59729400D02*
X95768797Y-59943685D01*
X95768797Y-59943685D02*
X94911654Y-60800828D01*
X94911654Y-60800828D02*
X95840226Y-60800828D01*
X223304510Y-72800828D02*
X223304510Y-71300828D01*
X223304510Y-71300828D02*
X223661653Y-71300828D01*
X223661653Y-71300828D02*
X223875939Y-71372257D01*
X223875939Y-71372257D02*
X224018796Y-71515114D01*
X224018796Y-71515114D02*
X224090225Y-71657971D01*
X224090225Y-71657971D02*
X224161653Y-71943685D01*
X224161653Y-71943685D02*
X224161653Y-72157971D01*
X224161653Y-72157971D02*
X224090225Y-72443685D01*
X224090225Y-72443685D02*
X224018796Y-72586542D01*
X224018796Y-72586542D02*
X223875939Y-72729400D01*
X223875939Y-72729400D02*
X223661653Y-72800828D01*
X223661653Y-72800828D02*
X223304510Y-72800828D01*
X225018796Y-72800828D02*
X224875939Y-72729400D01*
X224875939Y-72729400D02*
X224804510Y-72657971D01*
X224804510Y-72657971D02*
X224733082Y-72515114D01*
X224733082Y-72515114D02*
X224733082Y-72086542D01*
X224733082Y-72086542D02*
X224804510Y-71943685D01*
X224804510Y-71943685D02*
X224875939Y-71872257D01*
X224875939Y-71872257D02*
X225018796Y-71800828D01*
X225018796Y-71800828D02*
X225233082Y-71800828D01*
X225233082Y-71800828D02*
X225375939Y-71872257D01*
X225375939Y-71872257D02*
X225447368Y-71943685D01*
X225447368Y-71943685D02*
X225518796Y-72086542D01*
X225518796Y-72086542D02*
X225518796Y-72515114D01*
X225518796Y-72515114D02*
X225447368Y-72657971D01*
X225447368Y-72657971D02*
X225375939Y-72729400D01*
X225375939Y-72729400D02*
X225233082Y-72800828D01*
X225233082Y-72800828D02*
X225018796Y-72800828D01*
X226018796Y-71800828D02*
X226304511Y-72800828D01*
X226304511Y-72800828D02*
X226590225Y-72086542D01*
X226590225Y-72086542D02*
X226875939Y-72800828D01*
X226875939Y-72800828D02*
X227161653Y-71800828D01*
X227733082Y-71800828D02*
X227733082Y-72800828D01*
X227733082Y-71943685D02*
X227804511Y-71872257D01*
X227804511Y-71872257D02*
X227947368Y-71800828D01*
X227947368Y-71800828D02*
X228161654Y-71800828D01*
X228161654Y-71800828D02*
X228304511Y-71872257D01*
X228304511Y-71872257D02*
X228375940Y-72015114D01*
X228375940Y-72015114D02*
X228375940Y-72800828D01*
X203054510Y-72800828D02*
X203054510Y-71300828D01*
X203911653Y-72800828D02*
X203268796Y-71943685D01*
X203911653Y-71300828D02*
X203054510Y-72157971D01*
X204554510Y-72800828D02*
X204554510Y-71800828D01*
X204554510Y-71300828D02*
X204483082Y-71372257D01*
X204483082Y-71372257D02*
X204554510Y-71443685D01*
X204554510Y-71443685D02*
X204625939Y-71372257D01*
X204625939Y-71372257D02*
X204554510Y-71300828D01*
X204554510Y-71300828D02*
X204554510Y-71443685D01*
X205483082Y-72800828D02*
X205340225Y-72729400D01*
X205340225Y-72729400D02*
X205268796Y-72586542D01*
X205268796Y-72586542D02*
X205268796Y-71300828D01*
X206268796Y-72800828D02*
X206125939Y-72729400D01*
X206125939Y-72729400D02*
X206054510Y-72586542D01*
X206054510Y-72586542D02*
X206054510Y-71300828D01*
X219411653Y-56407971D02*
X219340225Y-56479400D01*
X219340225Y-56479400D02*
X219125939Y-56550828D01*
X219125939Y-56550828D02*
X218983082Y-56550828D01*
X218983082Y-56550828D02*
X218768796Y-56479400D01*
X218768796Y-56479400D02*
X218625939Y-56336542D01*
X218625939Y-56336542D02*
X218554510Y-56193685D01*
X218554510Y-56193685D02*
X218483082Y-55907971D01*
X218483082Y-55907971D02*
X218483082Y-55693685D01*
X218483082Y-55693685D02*
X218554510Y-55407971D01*
X218554510Y-55407971D02*
X218625939Y-55265114D01*
X218625939Y-55265114D02*
X218768796Y-55122257D01*
X218768796Y-55122257D02*
X218983082Y-55050828D01*
X218983082Y-55050828D02*
X219125939Y-55050828D01*
X219125939Y-55050828D02*
X219340225Y-55122257D01*
X219340225Y-55122257D02*
X219411653Y-55193685D01*
X219911653Y-55050828D02*
X220268796Y-56550828D01*
X220268796Y-56550828D02*
X220554510Y-55479400D01*
X220554510Y-55479400D02*
X220840225Y-56550828D01*
X220840225Y-56550828D02*
X221197368Y-55050828D01*
X208911653Y-56407971D02*
X208840225Y-56479400D01*
X208840225Y-56479400D02*
X208625939Y-56550828D01*
X208625939Y-56550828D02*
X208483082Y-56550828D01*
X208483082Y-56550828D02*
X208268796Y-56479400D01*
X208268796Y-56479400D02*
X208125939Y-56336542D01*
X208125939Y-56336542D02*
X208054510Y-56193685D01*
X208054510Y-56193685D02*
X207983082Y-55907971D01*
X207983082Y-55907971D02*
X207983082Y-55693685D01*
X207983082Y-55693685D02*
X208054510Y-55407971D01*
X208054510Y-55407971D02*
X208125939Y-55265114D01*
X208125939Y-55265114D02*
X208268796Y-55122257D01*
X208268796Y-55122257D02*
X208483082Y-55050828D01*
X208483082Y-55050828D02*
X208625939Y-55050828D01*
X208625939Y-55050828D02*
X208840225Y-55122257D01*
X208840225Y-55122257D02*
X208911653Y-55193685D01*
X210411653Y-56407971D02*
X210340225Y-56479400D01*
X210340225Y-56479400D02*
X210125939Y-56550828D01*
X210125939Y-56550828D02*
X209983082Y-56550828D01*
X209983082Y-56550828D02*
X209768796Y-56479400D01*
X209768796Y-56479400D02*
X209625939Y-56336542D01*
X209625939Y-56336542D02*
X209554510Y-56193685D01*
X209554510Y-56193685D02*
X209483082Y-55907971D01*
X209483082Y-55907971D02*
X209483082Y-55693685D01*
X209483082Y-55693685D02*
X209554510Y-55407971D01*
X209554510Y-55407971D02*
X209625939Y-55265114D01*
X209625939Y-55265114D02*
X209768796Y-55122257D01*
X209768796Y-55122257D02*
X209983082Y-55050828D01*
X209983082Y-55050828D02*
X210125939Y-55050828D01*
X210125939Y-55050828D02*
X210340225Y-55122257D01*
X210340225Y-55122257D02*
X210411653Y-55193685D01*
X210911653Y-55050828D02*
X211268796Y-56550828D01*
X211268796Y-56550828D02*
X211554510Y-55479400D01*
X211554510Y-55479400D02*
X211840225Y-56550828D01*
X211840225Y-56550828D02*
X212197368Y-55050828D01*
X224804510Y-38050828D02*
X224804510Y-39265114D01*
X224804510Y-39265114D02*
X224875939Y-39407971D01*
X224875939Y-39407971D02*
X224947368Y-39479400D01*
X224947368Y-39479400D02*
X225090225Y-39550828D01*
X225090225Y-39550828D02*
X225375939Y-39550828D01*
X225375939Y-39550828D02*
X225518796Y-39479400D01*
X225518796Y-39479400D02*
X225590225Y-39407971D01*
X225590225Y-39407971D02*
X225661653Y-39265114D01*
X225661653Y-39265114D02*
X225661653Y-38050828D01*
X226375939Y-38550828D02*
X226375939Y-40050828D01*
X226375939Y-38622257D02*
X226518797Y-38550828D01*
X226518797Y-38550828D02*
X226804511Y-38550828D01*
X226804511Y-38550828D02*
X226947368Y-38622257D01*
X226947368Y-38622257D02*
X227018797Y-38693685D01*
X227018797Y-38693685D02*
X227090225Y-38836542D01*
X227090225Y-38836542D02*
X227090225Y-39265114D01*
X227090225Y-39265114D02*
X227018797Y-39407971D01*
X227018797Y-39407971D02*
X226947368Y-39479400D01*
X226947368Y-39479400D02*
X226804511Y-39550828D01*
X226804511Y-39550828D02*
X226518797Y-39550828D01*
X226518797Y-39550828D02*
X226375939Y-39479400D01*
X200840225Y-38050828D02*
X201697368Y-38050828D01*
X201268796Y-39550828D02*
X201268796Y-38050828D01*
X202840225Y-39550828D02*
X202840225Y-38765114D01*
X202840225Y-38765114D02*
X202768796Y-38622257D01*
X202768796Y-38622257D02*
X202625939Y-38550828D01*
X202625939Y-38550828D02*
X202340225Y-38550828D01*
X202340225Y-38550828D02*
X202197367Y-38622257D01*
X202840225Y-39479400D02*
X202697367Y-39550828D01*
X202697367Y-39550828D02*
X202340225Y-39550828D01*
X202340225Y-39550828D02*
X202197367Y-39479400D01*
X202197367Y-39479400D02*
X202125939Y-39336542D01*
X202125939Y-39336542D02*
X202125939Y-39193685D01*
X202125939Y-39193685D02*
X202197367Y-39050828D01*
X202197367Y-39050828D02*
X202340225Y-38979400D01*
X202340225Y-38979400D02*
X202697367Y-38979400D01*
X202697367Y-38979400D02*
X202840225Y-38907971D01*
X203554510Y-39550828D02*
X203554510Y-38050828D01*
X203697368Y-38979400D02*
X204125939Y-39550828D01*
X204125939Y-38550828D02*
X203554510Y-39122257D01*
X205340225Y-39479400D02*
X205197368Y-39550828D01*
X205197368Y-39550828D02*
X204911654Y-39550828D01*
X204911654Y-39550828D02*
X204768796Y-39479400D01*
X204768796Y-39479400D02*
X204697368Y-39336542D01*
X204697368Y-39336542D02*
X204697368Y-38765114D01*
X204697368Y-38765114D02*
X204768796Y-38622257D01*
X204768796Y-38622257D02*
X204911654Y-38550828D01*
X204911654Y-38550828D02*
X205197368Y-38550828D01*
X205197368Y-38550828D02*
X205340225Y-38622257D01*
X205340225Y-38622257D02*
X205411654Y-38765114D01*
X205411654Y-38765114D02*
X205411654Y-38907971D01*
X205411654Y-38907971D02*
X204697368Y-39050828D01*
X206268796Y-39550828D02*
X206125939Y-39479400D01*
X206125939Y-39479400D02*
X206054510Y-39407971D01*
X206054510Y-39407971D02*
X205983082Y-39265114D01*
X205983082Y-39265114D02*
X205983082Y-38836542D01*
X205983082Y-38836542D02*
X206054510Y-38693685D01*
X206054510Y-38693685D02*
X206125939Y-38622257D01*
X206125939Y-38622257D02*
X206268796Y-38550828D01*
X206268796Y-38550828D02*
X206483082Y-38550828D01*
X206483082Y-38550828D02*
X206625939Y-38622257D01*
X206625939Y-38622257D02*
X206697368Y-38693685D01*
X206697368Y-38693685D02*
X206768796Y-38836542D01*
X206768796Y-38836542D02*
X206768796Y-39265114D01*
X206768796Y-39265114D02*
X206697368Y-39407971D01*
X206697368Y-39407971D02*
X206625939Y-39479400D01*
X206625939Y-39479400D02*
X206483082Y-39550828D01*
X206483082Y-39550828D02*
X206268796Y-39550828D01*
X207197368Y-38550828D02*
X207768796Y-38550828D01*
X207411653Y-39550828D02*
X207411653Y-38265114D01*
X207411653Y-38265114D02*
X207483082Y-38122257D01*
X207483082Y-38122257D02*
X207625939Y-38050828D01*
X207625939Y-38050828D02*
X207768796Y-38050828D01*
X208054511Y-38550828D02*
X208625939Y-38550828D01*
X208268796Y-39550828D02*
X208268796Y-38265114D01*
X208268796Y-38265114D02*
X208340225Y-38122257D01*
X208340225Y-38122257D02*
X208483082Y-38050828D01*
X208483082Y-38050828D02*
X208625939Y-38050828D01*
D11*
X175750000Y-79250000D02*
G75*
G02*
X168750000Y-79250000I-3500000J0D01*
G01*
X168750000Y-79250000D02*
G75*
G02*
X175750000Y-79250000I3500000J0D01*
G01*
D10*
X170340225Y-78550828D02*
X170840225Y-80050828D01*
X170840225Y-80050828D02*
X171340225Y-78550828D01*
X172625939Y-80050828D02*
X171768796Y-80050828D01*
X172197367Y-80050828D02*
X172197367Y-78550828D01*
X172197367Y-78550828D02*
X172054510Y-78765114D01*
X172054510Y-78765114D02*
X171911653Y-78907971D01*
X171911653Y-78907971D02*
X171768796Y-78979400D01*
X173268795Y-79907971D02*
X173340224Y-79979400D01*
X173340224Y-79979400D02*
X173268795Y-80050828D01*
X173268795Y-80050828D02*
X173197367Y-79979400D01*
X173197367Y-79979400D02*
X173268795Y-79907971D01*
X173268795Y-79907971D02*
X173268795Y-80050828D01*
X174268796Y-78550828D02*
X174411653Y-78550828D01*
X174411653Y-78550828D02*
X174554510Y-78622257D01*
X174554510Y-78622257D02*
X174625939Y-78693685D01*
X174625939Y-78693685D02*
X174697367Y-78836542D01*
X174697367Y-78836542D02*
X174768796Y-79122257D01*
X174768796Y-79122257D02*
X174768796Y-79479400D01*
X174768796Y-79479400D02*
X174697367Y-79765114D01*
X174697367Y-79765114D02*
X174625939Y-79907971D01*
X174625939Y-79907971D02*
X174554510Y-79979400D01*
X174554510Y-79979400D02*
X174411653Y-80050828D01*
X174411653Y-80050828D02*
X174268796Y-80050828D01*
X174268796Y-80050828D02*
X174125939Y-79979400D01*
X174125939Y-79979400D02*
X174054510Y-79907971D01*
X174054510Y-79907971D02*
X173983081Y-79765114D01*
X173983081Y-79765114D02*
X173911653Y-79479400D01*
X173911653Y-79479400D02*
X173911653Y-79122257D01*
X173911653Y-79122257D02*
X173983081Y-78836542D01*
X173983081Y-78836542D02*
X174054510Y-78693685D01*
X174054510Y-78693685D02*
X174125939Y-78622257D01*
X174125939Y-78622257D02*
X174268796Y-78550828D01*
X185304510Y-78050828D02*
X185304510Y-77050828D01*
X185304510Y-77193685D02*
X185375939Y-77122257D01*
X185375939Y-77122257D02*
X185518796Y-77050828D01*
X185518796Y-77050828D02*
X185733082Y-77050828D01*
X185733082Y-77050828D02*
X185875939Y-77122257D01*
X185875939Y-77122257D02*
X185947368Y-77265114D01*
X185947368Y-77265114D02*
X185947368Y-78050828D01*
X185947368Y-77265114D02*
X186018796Y-77122257D01*
X186018796Y-77122257D02*
X186161653Y-77050828D01*
X186161653Y-77050828D02*
X186375939Y-77050828D01*
X186375939Y-77050828D02*
X186518796Y-77122257D01*
X186518796Y-77122257D02*
X186590225Y-77265114D01*
X186590225Y-77265114D02*
X186590225Y-78050828D01*
X187304510Y-78050828D02*
X187304510Y-77050828D01*
X187304510Y-76550828D02*
X187233082Y-76622257D01*
X187233082Y-76622257D02*
X187304510Y-76693685D01*
X187304510Y-76693685D02*
X187375939Y-76622257D01*
X187375939Y-76622257D02*
X187304510Y-76550828D01*
X187304510Y-76550828D02*
X187304510Y-76693685D01*
X187875939Y-78050828D02*
X188661654Y-77050828D01*
X187875939Y-77050828D02*
X188661654Y-78050828D01*
X189018797Y-76550828D02*
X189875940Y-76550828D01*
X189447368Y-78050828D02*
X189447368Y-76550828D01*
X190947368Y-77979400D02*
X190804511Y-78050828D01*
X190804511Y-78050828D02*
X190518797Y-78050828D01*
X190518797Y-78050828D02*
X190375939Y-77979400D01*
X190375939Y-77979400D02*
X190304511Y-77836542D01*
X190304511Y-77836542D02*
X190304511Y-77265114D01*
X190304511Y-77265114D02*
X190375939Y-77122257D01*
X190375939Y-77122257D02*
X190518797Y-77050828D01*
X190518797Y-77050828D02*
X190804511Y-77050828D01*
X190804511Y-77050828D02*
X190947368Y-77122257D01*
X190947368Y-77122257D02*
X191018797Y-77265114D01*
X191018797Y-77265114D02*
X191018797Y-77407971D01*
X191018797Y-77407971D02*
X190304511Y-77550828D01*
X192304511Y-77979400D02*
X192161653Y-78050828D01*
X192161653Y-78050828D02*
X191875939Y-78050828D01*
X191875939Y-78050828D02*
X191733082Y-77979400D01*
X191733082Y-77979400D02*
X191661653Y-77907971D01*
X191661653Y-77907971D02*
X191590225Y-77765114D01*
X191590225Y-77765114D02*
X191590225Y-77336542D01*
X191590225Y-77336542D02*
X191661653Y-77193685D01*
X191661653Y-77193685D02*
X191733082Y-77122257D01*
X191733082Y-77122257D02*
X191875939Y-77050828D01*
X191875939Y-77050828D02*
X192161653Y-77050828D01*
X192161653Y-77050828D02*
X192304511Y-77122257D01*
X192947367Y-78050828D02*
X192947367Y-76550828D01*
X193590225Y-78050828D02*
X193590225Y-77265114D01*
X193590225Y-77265114D02*
X193518796Y-77122257D01*
X193518796Y-77122257D02*
X193375939Y-77050828D01*
X193375939Y-77050828D02*
X193161653Y-77050828D01*
X193161653Y-77050828D02*
X193018796Y-77122257D01*
X193018796Y-77122257D02*
X192947367Y-77193685D01*
D12*
X140250000Y-40250000D02*
X161250000Y-40250000D01*
X161250000Y-57250000D01*
X140250000Y-57250000D01*
X140250000Y-40250000D01*
X164750000Y-40250000D02*
X199750000Y-40250000D01*
X199750000Y-74750000D01*
X164750000Y-74750000D01*
X164750000Y-40250000D01*
D13*
X175874819Y-43238094D02*
X176684342Y-43238094D01*
X176684342Y-43238094D02*
X176779580Y-43190475D01*
X176779580Y-43190475D02*
X176827200Y-43142856D01*
X176827200Y-43142856D02*
X176874819Y-43047618D01*
X176874819Y-43047618D02*
X176874819Y-42857142D01*
X176874819Y-42857142D02*
X176827200Y-42761904D01*
X176827200Y-42761904D02*
X176779580Y-42714285D01*
X176779580Y-42714285D02*
X176684342Y-42666666D01*
X176684342Y-42666666D02*
X175874819Y-42666666D01*
X176874819Y-41666666D02*
X176874819Y-42238094D01*
X176874819Y-41952380D02*
X175874819Y-41952380D01*
X175874819Y-41952380D02*
X176017676Y-42047618D01*
X176017676Y-42047618D02*
X176112914Y-42142856D01*
X176112914Y-42142856D02*
X176160533Y-42238094D01*
X175874819Y-41047618D02*
X175874819Y-40952380D01*
X175874819Y-40952380D02*
X175922438Y-40857142D01*
X175922438Y-40857142D02*
X175970057Y-40809523D01*
X175970057Y-40809523D02*
X176065295Y-40761904D01*
X176065295Y-40761904D02*
X176255771Y-40714285D01*
X176255771Y-40714285D02*
X176493866Y-40714285D01*
X176493866Y-40714285D02*
X176684342Y-40761904D01*
X176684342Y-40761904D02*
X176779580Y-40809523D01*
X176779580Y-40809523D02*
X176827200Y-40857142D01*
X176827200Y-40857142D02*
X176874819Y-40952380D01*
X176874819Y-40952380D02*
X176874819Y-41047618D01*
X176874819Y-41047618D02*
X176827200Y-41142856D01*
X176827200Y-41142856D02*
X176779580Y-41190475D01*
X176779580Y-41190475D02*
X176684342Y-41238094D01*
X176684342Y-41238094D02*
X176493866Y-41285713D01*
X176493866Y-41285713D02*
X176255771Y-41285713D01*
X176255771Y-41285713D02*
X176065295Y-41238094D01*
X176065295Y-41238094D02*
X175970057Y-41190475D01*
X175970057Y-41190475D02*
X175922438Y-41142856D01*
X175922438Y-41142856D02*
X175874819Y-41047618D01*
D12*
X220488095Y-73707419D02*
X220488095Y-74516942D01*
X220488095Y-74516942D02*
X220535714Y-74612180D01*
X220535714Y-74612180D02*
X220583333Y-74659800D01*
X220583333Y-74659800D02*
X220678571Y-74707419D01*
X220678571Y-74707419D02*
X220869047Y-74707419D01*
X220869047Y-74707419D02*
X220964285Y-74659800D01*
X220964285Y-74659800D02*
X221011904Y-74612180D01*
X221011904Y-74612180D02*
X221059523Y-74516942D01*
X221059523Y-74516942D02*
X221059523Y-73707419D01*
X221964285Y-73707419D02*
X221773809Y-73707419D01*
X221773809Y-73707419D02*
X221678571Y-73755038D01*
X221678571Y-73755038D02*
X221630952Y-73802657D01*
X221630952Y-73802657D02*
X221535714Y-73945514D01*
X221535714Y-73945514D02*
X221488095Y-74135990D01*
X221488095Y-74135990D02*
X221488095Y-74516942D01*
X221488095Y-74516942D02*
X221535714Y-74612180D01*
X221535714Y-74612180D02*
X221583333Y-74659800D01*
X221583333Y-74659800D02*
X221678571Y-74707419D01*
X221678571Y-74707419D02*
X221869047Y-74707419D01*
X221869047Y-74707419D02*
X221964285Y-74659800D01*
X221964285Y-74659800D02*
X222011904Y-74612180D01*
X222011904Y-74612180D02*
X222059523Y-74516942D01*
X222059523Y-74516942D02*
X222059523Y-74278847D01*
X222059523Y-74278847D02*
X222011904Y-74183609D01*
X222011904Y-74183609D02*
X221964285Y-74135990D01*
X221964285Y-74135990D02*
X221869047Y-74088371D01*
X221869047Y-74088371D02*
X221678571Y-74088371D01*
X221678571Y-74088371D02*
X221583333Y-74135990D01*
X221583333Y-74135990D02*
X221535714Y-74183609D01*
X221535714Y-74183609D02*
X221488095Y-74278847D01*
X198738095Y-75207419D02*
X198738095Y-76016942D01*
X198738095Y-76016942D02*
X198785714Y-76112180D01*
X198785714Y-76112180D02*
X198833333Y-76159800D01*
X198833333Y-76159800D02*
X198928571Y-76207419D01*
X198928571Y-76207419D02*
X199119047Y-76207419D01*
X199119047Y-76207419D02*
X199214285Y-76159800D01*
X199214285Y-76159800D02*
X199261904Y-76112180D01*
X199261904Y-76112180D02*
X199309523Y-76016942D01*
X199309523Y-76016942D02*
X199309523Y-75207419D01*
X200261904Y-75207419D02*
X199785714Y-75207419D01*
X199785714Y-75207419D02*
X199738095Y-75683609D01*
X199738095Y-75683609D02*
X199785714Y-75635990D01*
X199785714Y-75635990D02*
X199880952Y-75588371D01*
X199880952Y-75588371D02*
X200119047Y-75588371D01*
X200119047Y-75588371D02*
X200214285Y-75635990D01*
X200214285Y-75635990D02*
X200261904Y-75683609D01*
X200261904Y-75683609D02*
X200309523Y-75778847D01*
X200309523Y-75778847D02*
X200309523Y-76016942D01*
X200309523Y-76016942D02*
X200261904Y-76112180D01*
X200261904Y-76112180D02*
X200214285Y-76159800D01*
X200214285Y-76159800D02*
X200119047Y-76207419D01*
X200119047Y-76207419D02*
X199880952Y-76207419D01*
X199880952Y-76207419D02*
X199785714Y-76159800D01*
X199785714Y-76159800D02*
X199738095Y-76112180D01*
X204738095Y-57707419D02*
X204738095Y-58516942D01*
X204738095Y-58516942D02*
X204785714Y-58612180D01*
X204785714Y-58612180D02*
X204833333Y-58659800D01*
X204833333Y-58659800D02*
X204928571Y-58707419D01*
X204928571Y-58707419D02*
X205119047Y-58707419D01*
X205119047Y-58707419D02*
X205214285Y-58659800D01*
X205214285Y-58659800D02*
X205261904Y-58612180D01*
X205261904Y-58612180D02*
X205309523Y-58516942D01*
X205309523Y-58516942D02*
X205309523Y-57707419D01*
X205690476Y-57707419D02*
X206309523Y-57707419D01*
X206309523Y-57707419D02*
X205976190Y-58088371D01*
X205976190Y-58088371D02*
X206119047Y-58088371D01*
X206119047Y-58088371D02*
X206214285Y-58135990D01*
X206214285Y-58135990D02*
X206261904Y-58183609D01*
X206261904Y-58183609D02*
X206309523Y-58278847D01*
X206309523Y-58278847D02*
X206309523Y-58516942D01*
X206309523Y-58516942D02*
X206261904Y-58612180D01*
X206261904Y-58612180D02*
X206214285Y-58659800D01*
X206214285Y-58659800D02*
X206119047Y-58707419D01*
X206119047Y-58707419D02*
X205833333Y-58707419D01*
X205833333Y-58707419D02*
X205738095Y-58659800D01*
X205738095Y-58659800D02*
X205690476Y-58612180D01*
X214738095Y-57457419D02*
X214738095Y-58266942D01*
X214738095Y-58266942D02*
X214785714Y-58362180D01*
X214785714Y-58362180D02*
X214833333Y-58409800D01*
X214833333Y-58409800D02*
X214928571Y-58457419D01*
X214928571Y-58457419D02*
X215119047Y-58457419D01*
X215119047Y-58457419D02*
X215214285Y-58409800D01*
X215214285Y-58409800D02*
X215261904Y-58362180D01*
X215261904Y-58362180D02*
X215309523Y-58266942D01*
X215309523Y-58266942D02*
X215309523Y-57457419D01*
X216214285Y-57790752D02*
X216214285Y-58457419D01*
X215976190Y-57409800D02*
X215738095Y-58124085D01*
X215738095Y-58124085D02*
X216357142Y-58124085D01*
X221238095Y-41040752D02*
X221238095Y-41707419D01*
X220809524Y-41040752D02*
X220809524Y-41564561D01*
X220809524Y-41564561D02*
X220857143Y-41659800D01*
X220857143Y-41659800D02*
X220952381Y-41707419D01*
X220952381Y-41707419D02*
X221095238Y-41707419D01*
X221095238Y-41707419D02*
X221190476Y-41659800D01*
X221190476Y-41659800D02*
X221238095Y-41612180D01*
X221619048Y-40707419D02*
X222285714Y-40707419D01*
X222285714Y-40707419D02*
X221857143Y-41707419D01*
X199238095Y-38707419D02*
X199238095Y-39516942D01*
X199238095Y-39516942D02*
X199285714Y-39612180D01*
X199285714Y-39612180D02*
X199333333Y-39659800D01*
X199333333Y-39659800D02*
X199428571Y-39707419D01*
X199428571Y-39707419D02*
X199619047Y-39707419D01*
X199619047Y-39707419D02*
X199714285Y-39659800D01*
X199714285Y-39659800D02*
X199761904Y-39612180D01*
X199761904Y-39612180D02*
X199809523Y-39516942D01*
X199809523Y-39516942D02*
X199809523Y-38707419D01*
X200238095Y-38802657D02*
X200285714Y-38755038D01*
X200285714Y-38755038D02*
X200380952Y-38707419D01*
X200380952Y-38707419D02*
X200619047Y-38707419D01*
X200619047Y-38707419D02*
X200714285Y-38755038D01*
X200714285Y-38755038D02*
X200761904Y-38802657D01*
X200761904Y-38802657D02*
X200809523Y-38897895D01*
X200809523Y-38897895D02*
X200809523Y-38993133D01*
X200809523Y-38993133D02*
X200761904Y-39135990D01*
X200761904Y-39135990D02*
X200190476Y-39707419D01*
X200190476Y-39707419D02*
X200809523Y-39707419D01*
D13*
X114204819Y-81416666D02*
X113728628Y-81749999D01*
X114204819Y-81988094D02*
X113204819Y-81988094D01*
X113204819Y-81988094D02*
X113204819Y-81607142D01*
X113204819Y-81607142D02*
X113252438Y-81511904D01*
X113252438Y-81511904D02*
X113300057Y-81464285D01*
X113300057Y-81464285D02*
X113395295Y-81416666D01*
X113395295Y-81416666D02*
X113538152Y-81416666D01*
X113538152Y-81416666D02*
X113633390Y-81464285D01*
X113633390Y-81464285D02*
X113681009Y-81511904D01*
X113681009Y-81511904D02*
X113728628Y-81607142D01*
X113728628Y-81607142D02*
X113728628Y-81988094D01*
X113204819Y-80559523D02*
X113204819Y-80749999D01*
X113204819Y-80749999D02*
X113252438Y-80845237D01*
X113252438Y-80845237D02*
X113300057Y-80892856D01*
X113300057Y-80892856D02*
X113442914Y-80988094D01*
X113442914Y-80988094D02*
X113633390Y-81035713D01*
X113633390Y-81035713D02*
X114014342Y-81035713D01*
X114014342Y-81035713D02*
X114109580Y-80988094D01*
X114109580Y-80988094D02*
X114157200Y-80940475D01*
X114157200Y-80940475D02*
X114204819Y-80845237D01*
X114204819Y-80845237D02*
X114204819Y-80654761D01*
X114204819Y-80654761D02*
X114157200Y-80559523D01*
X114157200Y-80559523D02*
X114109580Y-80511904D01*
X114109580Y-80511904D02*
X114014342Y-80464285D01*
X114014342Y-80464285D02*
X113776247Y-80464285D01*
X113776247Y-80464285D02*
X113681009Y-80511904D01*
X113681009Y-80511904D02*
X113633390Y-80559523D01*
X113633390Y-80559523D02*
X113585771Y-80654761D01*
X113585771Y-80654761D02*
X113585771Y-80845237D01*
X113585771Y-80845237D02*
X113633390Y-80940475D01*
X113633390Y-80940475D02*
X113681009Y-80988094D01*
X113681009Y-80988094D02*
X113776247Y-81035713D01*
X118454819Y-81416666D02*
X117978628Y-81749999D01*
X118454819Y-81988094D02*
X117454819Y-81988094D01*
X117454819Y-81988094D02*
X117454819Y-81607142D01*
X117454819Y-81607142D02*
X117502438Y-81511904D01*
X117502438Y-81511904D02*
X117550057Y-81464285D01*
X117550057Y-81464285D02*
X117645295Y-81416666D01*
X117645295Y-81416666D02*
X117788152Y-81416666D01*
X117788152Y-81416666D02*
X117883390Y-81464285D01*
X117883390Y-81464285D02*
X117931009Y-81511904D01*
X117931009Y-81511904D02*
X117978628Y-81607142D01*
X117978628Y-81607142D02*
X117978628Y-81988094D01*
X117454819Y-80511904D02*
X117454819Y-80988094D01*
X117454819Y-80988094D02*
X117931009Y-81035713D01*
X117931009Y-81035713D02*
X117883390Y-80988094D01*
X117883390Y-80988094D02*
X117835771Y-80892856D01*
X117835771Y-80892856D02*
X117835771Y-80654761D01*
X117835771Y-80654761D02*
X117883390Y-80559523D01*
X117883390Y-80559523D02*
X117931009Y-80511904D01*
X117931009Y-80511904D02*
X118026247Y-80464285D01*
X118026247Y-80464285D02*
X118264342Y-80464285D01*
X118264342Y-80464285D02*
X118359580Y-80511904D01*
X118359580Y-80511904D02*
X118407200Y-80559523D01*
X118407200Y-80559523D02*
X118454819Y-80654761D01*
X118454819Y-80654761D02*
X118454819Y-80892856D01*
X118454819Y-80892856D02*
X118407200Y-80988094D01*
X118407200Y-80988094D02*
X118359580Y-81035713D01*
X122454819Y-81416666D02*
X121978628Y-81749999D01*
X122454819Y-81988094D02*
X121454819Y-81988094D01*
X121454819Y-81988094D02*
X121454819Y-81607142D01*
X121454819Y-81607142D02*
X121502438Y-81511904D01*
X121502438Y-81511904D02*
X121550057Y-81464285D01*
X121550057Y-81464285D02*
X121645295Y-81416666D01*
X121645295Y-81416666D02*
X121788152Y-81416666D01*
X121788152Y-81416666D02*
X121883390Y-81464285D01*
X121883390Y-81464285D02*
X121931009Y-81511904D01*
X121931009Y-81511904D02*
X121978628Y-81607142D01*
X121978628Y-81607142D02*
X121978628Y-81988094D01*
X121788152Y-80559523D02*
X122454819Y-80559523D01*
X121407200Y-80797618D02*
X122121485Y-81035713D01*
X122121485Y-81035713D02*
X122121485Y-80416666D01*
X126454819Y-81416666D02*
X125978628Y-81749999D01*
X126454819Y-81988094D02*
X125454819Y-81988094D01*
X125454819Y-81988094D02*
X125454819Y-81607142D01*
X125454819Y-81607142D02*
X125502438Y-81511904D01*
X125502438Y-81511904D02*
X125550057Y-81464285D01*
X125550057Y-81464285D02*
X125645295Y-81416666D01*
X125645295Y-81416666D02*
X125788152Y-81416666D01*
X125788152Y-81416666D02*
X125883390Y-81464285D01*
X125883390Y-81464285D02*
X125931009Y-81511904D01*
X125931009Y-81511904D02*
X125978628Y-81607142D01*
X125978628Y-81607142D02*
X125978628Y-81988094D01*
X125454819Y-81083332D02*
X125454819Y-80464285D01*
X125454819Y-80464285D02*
X125835771Y-80797618D01*
X125835771Y-80797618D02*
X125835771Y-80654761D01*
X125835771Y-80654761D02*
X125883390Y-80559523D01*
X125883390Y-80559523D02*
X125931009Y-80511904D01*
X125931009Y-80511904D02*
X126026247Y-80464285D01*
X126026247Y-80464285D02*
X126264342Y-80464285D01*
X126264342Y-80464285D02*
X126359580Y-80511904D01*
X126359580Y-80511904D02*
X126407200Y-80559523D01*
X126407200Y-80559523D02*
X126454819Y-80654761D01*
X126454819Y-80654761D02*
X126454819Y-80940475D01*
X126454819Y-80940475D02*
X126407200Y-81035713D01*
X126407200Y-81035713D02*
X126359580Y-81083332D01*
X130454819Y-81416666D02*
X129978628Y-81749999D01*
X130454819Y-81988094D02*
X129454819Y-81988094D01*
X129454819Y-81988094D02*
X129454819Y-81607142D01*
X129454819Y-81607142D02*
X129502438Y-81511904D01*
X129502438Y-81511904D02*
X129550057Y-81464285D01*
X129550057Y-81464285D02*
X129645295Y-81416666D01*
X129645295Y-81416666D02*
X129788152Y-81416666D01*
X129788152Y-81416666D02*
X129883390Y-81464285D01*
X129883390Y-81464285D02*
X129931009Y-81511904D01*
X129931009Y-81511904D02*
X129978628Y-81607142D01*
X129978628Y-81607142D02*
X129978628Y-81988094D01*
X129550057Y-81035713D02*
X129502438Y-80988094D01*
X129502438Y-80988094D02*
X129454819Y-80892856D01*
X129454819Y-80892856D02*
X129454819Y-80654761D01*
X129454819Y-80654761D02*
X129502438Y-80559523D01*
X129502438Y-80559523D02*
X129550057Y-80511904D01*
X129550057Y-80511904D02*
X129645295Y-80464285D01*
X129645295Y-80464285D02*
X129740533Y-80464285D01*
X129740533Y-80464285D02*
X129883390Y-80511904D01*
X129883390Y-80511904D02*
X130454819Y-81083332D01*
X130454819Y-81083332D02*
X130454819Y-80464285D01*
X134704819Y-81416666D02*
X134228628Y-81749999D01*
X134704819Y-81988094D02*
X133704819Y-81988094D01*
X133704819Y-81988094D02*
X133704819Y-81607142D01*
X133704819Y-81607142D02*
X133752438Y-81511904D01*
X133752438Y-81511904D02*
X133800057Y-81464285D01*
X133800057Y-81464285D02*
X133895295Y-81416666D01*
X133895295Y-81416666D02*
X134038152Y-81416666D01*
X134038152Y-81416666D02*
X134133390Y-81464285D01*
X134133390Y-81464285D02*
X134181009Y-81511904D01*
X134181009Y-81511904D02*
X134228628Y-81607142D01*
X134228628Y-81607142D02*
X134228628Y-81988094D01*
X134704819Y-80464285D02*
X134704819Y-81035713D01*
X134704819Y-80749999D02*
X133704819Y-80749999D01*
X133704819Y-80749999D02*
X133847676Y-80845237D01*
X133847676Y-80845237D02*
X133942914Y-80940475D01*
X133942914Y-80940475D02*
X133990533Y-81035713D01*
D12*
X111520080Y-59238095D02*
X110710557Y-59238095D01*
X110710557Y-59238095D02*
X110615319Y-59285714D01*
X110615319Y-59285714D02*
X110567700Y-59333333D01*
X110567700Y-59333333D02*
X110520080Y-59428571D01*
X110520080Y-59428571D02*
X110520080Y-59619047D01*
X110520080Y-59619047D02*
X110567700Y-59714285D01*
X110567700Y-59714285D02*
X110615319Y-59761904D01*
X110615319Y-59761904D02*
X110710557Y-59809523D01*
X110710557Y-59809523D02*
X111520080Y-59809523D01*
X110520080Y-60809523D02*
X110520080Y-60238095D01*
X110520080Y-60523809D02*
X111520080Y-60523809D01*
X111520080Y-60523809D02*
X111377223Y-60428571D01*
X111377223Y-60428571D02*
X111281985Y-60333333D01*
X111281985Y-60333333D02*
X111234366Y-60238095D01*
D13*
X104120595Y-75456819D02*
X104692023Y-75456819D01*
X104406309Y-76456819D02*
X104406309Y-75456819D01*
X105025357Y-76456819D02*
X105025357Y-75456819D01*
X105025357Y-75456819D02*
X105406309Y-75456819D01*
X105406309Y-75456819D02*
X105501547Y-75504438D01*
X105501547Y-75504438D02*
X105549166Y-75552057D01*
X105549166Y-75552057D02*
X105596785Y-75647295D01*
X105596785Y-75647295D02*
X105596785Y-75790152D01*
X105596785Y-75790152D02*
X105549166Y-75885390D01*
X105549166Y-75885390D02*
X105501547Y-75933009D01*
X105501547Y-75933009D02*
X105406309Y-75980628D01*
X105406309Y-75980628D02*
X105025357Y-75980628D01*
X106453928Y-75456819D02*
X106263452Y-75456819D01*
X106263452Y-75456819D02*
X106168214Y-75504438D01*
X106168214Y-75504438D02*
X106120595Y-75552057D01*
X106120595Y-75552057D02*
X106025357Y-75694914D01*
X106025357Y-75694914D02*
X105977738Y-75885390D01*
X105977738Y-75885390D02*
X105977738Y-76266342D01*
X105977738Y-76266342D02*
X106025357Y-76361580D01*
X106025357Y-76361580D02*
X106072976Y-76409200D01*
X106072976Y-76409200D02*
X106168214Y-76456819D01*
X106168214Y-76456819D02*
X106358690Y-76456819D01*
X106358690Y-76456819D02*
X106453928Y-76409200D01*
X106453928Y-76409200D02*
X106501547Y-76361580D01*
X106501547Y-76361580D02*
X106549166Y-76266342D01*
X106549166Y-76266342D02*
X106549166Y-76028247D01*
X106549166Y-76028247D02*
X106501547Y-75933009D01*
X106501547Y-75933009D02*
X106453928Y-75885390D01*
X106453928Y-75885390D02*
X106358690Y-75837771D01*
X106358690Y-75837771D02*
X106168214Y-75837771D01*
X106168214Y-75837771D02*
X106072976Y-75885390D01*
X106072976Y-75885390D02*
X106025357Y-75933009D01*
X106025357Y-75933009D02*
X105977738Y-76028247D01*
X138704819Y-42691922D02*
X139514342Y-42691922D01*
X139514342Y-42691922D02*
X139609580Y-42644303D01*
X139609580Y-42644303D02*
X139657200Y-42596684D01*
X139657200Y-42596684D02*
X139704819Y-42501446D01*
X139704819Y-42501446D02*
X139704819Y-42310970D01*
X139704819Y-42310970D02*
X139657200Y-42215732D01*
X139657200Y-42215732D02*
X139609580Y-42168113D01*
X139609580Y-42168113D02*
X139514342Y-42120494D01*
X139514342Y-42120494D02*
X138704819Y-42120494D01*
X139704819Y-41596684D02*
X139704819Y-41406208D01*
X139704819Y-41406208D02*
X139657200Y-41310970D01*
X139657200Y-41310970D02*
X139609580Y-41263351D01*
X139609580Y-41263351D02*
X139466723Y-41168113D01*
X139466723Y-41168113D02*
X139276247Y-41120494D01*
X139276247Y-41120494D02*
X138895295Y-41120494D01*
X138895295Y-41120494D02*
X138800057Y-41168113D01*
X138800057Y-41168113D02*
X138752438Y-41215732D01*
X138752438Y-41215732D02*
X138704819Y-41310970D01*
X138704819Y-41310970D02*
X138704819Y-41501446D01*
X138704819Y-41501446D02*
X138752438Y-41596684D01*
X138752438Y-41596684D02*
X138800057Y-41644303D01*
X138800057Y-41644303D02*
X138895295Y-41691922D01*
X138895295Y-41691922D02*
X139133390Y-41691922D01*
X139133390Y-41691922D02*
X139228628Y-41644303D01*
X139228628Y-41644303D02*
X139276247Y-41596684D01*
X139276247Y-41596684D02*
X139323866Y-41501446D01*
X139323866Y-41501446D02*
X139323866Y-41310970D01*
X139323866Y-41310970D02*
X139276247Y-41215732D01*
X139276247Y-41215732D02*
X139228628Y-41168113D01*
X139228628Y-41168113D02*
X139133390Y-41120494D01*
X68144405Y-38756819D02*
X68715833Y-38756819D01*
X68430119Y-39756819D02*
X68430119Y-38756819D01*
X69049167Y-39756819D02*
X69049167Y-38756819D01*
X69049167Y-38756819D02*
X69430119Y-38756819D01*
X69430119Y-38756819D02*
X69525357Y-38804438D01*
X69525357Y-38804438D02*
X69572976Y-38852057D01*
X69572976Y-38852057D02*
X69620595Y-38947295D01*
X69620595Y-38947295D02*
X69620595Y-39090152D01*
X69620595Y-39090152D02*
X69572976Y-39185390D01*
X69572976Y-39185390D02*
X69525357Y-39233009D01*
X69525357Y-39233009D02*
X69430119Y-39280628D01*
X69430119Y-39280628D02*
X69049167Y-39280628D01*
X70572976Y-39756819D02*
X70001548Y-39756819D01*
X70287262Y-39756819D02*
X70287262Y-38756819D01*
X70287262Y-38756819D02*
X70192024Y-38899676D01*
X70192024Y-38899676D02*
X70096786Y-38994914D01*
X70096786Y-38994914D02*
X70001548Y-39042533D01*
X71430119Y-39090152D02*
X71430119Y-39756819D01*
X71192024Y-38709200D02*
X70953929Y-39423485D01*
X70953929Y-39423485D02*
X71572976Y-39423485D01*
X73644405Y-38756819D02*
X74215833Y-38756819D01*
X73930119Y-39756819D02*
X73930119Y-38756819D01*
X74549167Y-39756819D02*
X74549167Y-38756819D01*
X74549167Y-38756819D02*
X74930119Y-38756819D01*
X74930119Y-38756819D02*
X75025357Y-38804438D01*
X75025357Y-38804438D02*
X75072976Y-38852057D01*
X75072976Y-38852057D02*
X75120595Y-38947295D01*
X75120595Y-38947295D02*
X75120595Y-39090152D01*
X75120595Y-39090152D02*
X75072976Y-39185390D01*
X75072976Y-39185390D02*
X75025357Y-39233009D01*
X75025357Y-39233009D02*
X74930119Y-39280628D01*
X74930119Y-39280628D02*
X74549167Y-39280628D01*
X76072976Y-39756819D02*
X75501548Y-39756819D01*
X75787262Y-39756819D02*
X75787262Y-38756819D01*
X75787262Y-38756819D02*
X75692024Y-38899676D01*
X75692024Y-38899676D02*
X75596786Y-38994914D01*
X75596786Y-38994914D02*
X75501548Y-39042533D01*
X76406310Y-38756819D02*
X77025357Y-38756819D01*
X77025357Y-38756819D02*
X76692024Y-39137771D01*
X76692024Y-39137771D02*
X76834881Y-39137771D01*
X76834881Y-39137771D02*
X76930119Y-39185390D01*
X76930119Y-39185390D02*
X76977738Y-39233009D01*
X76977738Y-39233009D02*
X77025357Y-39328247D01*
X77025357Y-39328247D02*
X77025357Y-39566342D01*
X77025357Y-39566342D02*
X76977738Y-39661580D01*
X76977738Y-39661580D02*
X76930119Y-39709200D01*
X76930119Y-39709200D02*
X76834881Y-39756819D01*
X76834881Y-39756819D02*
X76549167Y-39756819D01*
X76549167Y-39756819D02*
X76453929Y-39709200D01*
X76453929Y-39709200D02*
X76406310Y-39661580D01*
X75511905Y-74706819D02*
X76083333Y-74706819D01*
X75797619Y-75706819D02*
X75797619Y-74706819D01*
X76416667Y-75706819D02*
X76416667Y-74706819D01*
X76416667Y-74706819D02*
X76797619Y-74706819D01*
X76797619Y-74706819D02*
X76892857Y-74754438D01*
X76892857Y-74754438D02*
X76940476Y-74802057D01*
X76940476Y-74802057D02*
X76988095Y-74897295D01*
X76988095Y-74897295D02*
X76988095Y-75040152D01*
X76988095Y-75040152D02*
X76940476Y-75135390D01*
X76940476Y-75135390D02*
X76892857Y-75183009D01*
X76892857Y-75183009D02*
X76797619Y-75230628D01*
X76797619Y-75230628D02*
X76416667Y-75230628D01*
X77940476Y-75706819D02*
X77369048Y-75706819D01*
X77654762Y-75706819D02*
X77654762Y-74706819D01*
X77654762Y-74706819D02*
X77559524Y-74849676D01*
X77559524Y-74849676D02*
X77464286Y-74944914D01*
X77464286Y-74944914D02*
X77369048Y-74992533D01*
X78321429Y-74802057D02*
X78369048Y-74754438D01*
X78369048Y-74754438D02*
X78464286Y-74706819D01*
X78464286Y-74706819D02*
X78702381Y-74706819D01*
X78702381Y-74706819D02*
X78797619Y-74754438D01*
X78797619Y-74754438D02*
X78845238Y-74802057D01*
X78845238Y-74802057D02*
X78892857Y-74897295D01*
X78892857Y-74897295D02*
X78892857Y-74992533D01*
X78892857Y-74992533D02*
X78845238Y-75135390D01*
X78845238Y-75135390D02*
X78273810Y-75706819D01*
X78273810Y-75706819D02*
X78892857Y-75706819D01*
X83511905Y-76456819D02*
X84083333Y-76456819D01*
X83797619Y-77456819D02*
X83797619Y-76456819D01*
X84416667Y-77456819D02*
X84416667Y-76456819D01*
X84416667Y-76456819D02*
X84797619Y-76456819D01*
X84797619Y-76456819D02*
X84892857Y-76504438D01*
X84892857Y-76504438D02*
X84940476Y-76552057D01*
X84940476Y-76552057D02*
X84988095Y-76647295D01*
X84988095Y-76647295D02*
X84988095Y-76790152D01*
X84988095Y-76790152D02*
X84940476Y-76885390D01*
X84940476Y-76885390D02*
X84892857Y-76933009D01*
X84892857Y-76933009D02*
X84797619Y-76980628D01*
X84797619Y-76980628D02*
X84416667Y-76980628D01*
X85940476Y-77456819D02*
X85369048Y-77456819D01*
X85654762Y-77456819D02*
X85654762Y-76456819D01*
X85654762Y-76456819D02*
X85559524Y-76599676D01*
X85559524Y-76599676D02*
X85464286Y-76694914D01*
X85464286Y-76694914D02*
X85369048Y-76742533D01*
X86559524Y-76456819D02*
X86654762Y-76456819D01*
X86654762Y-76456819D02*
X86750000Y-76504438D01*
X86750000Y-76504438D02*
X86797619Y-76552057D01*
X86797619Y-76552057D02*
X86845238Y-76647295D01*
X86845238Y-76647295D02*
X86892857Y-76837771D01*
X86892857Y-76837771D02*
X86892857Y-77075866D01*
X86892857Y-77075866D02*
X86845238Y-77266342D01*
X86845238Y-77266342D02*
X86797619Y-77361580D01*
X86797619Y-77361580D02*
X86750000Y-77409200D01*
X86750000Y-77409200D02*
X86654762Y-77456819D01*
X86654762Y-77456819D02*
X86559524Y-77456819D01*
X86559524Y-77456819D02*
X86464286Y-77409200D01*
X86464286Y-77409200D02*
X86416667Y-77361580D01*
X86416667Y-77361580D02*
X86369048Y-77266342D01*
X86369048Y-77266342D02*
X86321429Y-77075866D01*
X86321429Y-77075866D02*
X86321429Y-76837771D01*
X86321429Y-76837771D02*
X86369048Y-76647295D01*
X86369048Y-76647295D02*
X86416667Y-76552057D01*
X86416667Y-76552057D02*
X86464286Y-76504438D01*
X86464286Y-76504438D02*
X86559524Y-76456819D01*
X88738095Y-75456819D02*
X89309523Y-75456819D01*
X89023809Y-76456819D02*
X89023809Y-75456819D01*
X89642857Y-76456819D02*
X89642857Y-75456819D01*
X89642857Y-75456819D02*
X90023809Y-75456819D01*
X90023809Y-75456819D02*
X90119047Y-75504438D01*
X90119047Y-75504438D02*
X90166666Y-75552057D01*
X90166666Y-75552057D02*
X90214285Y-75647295D01*
X90214285Y-75647295D02*
X90214285Y-75790152D01*
X90214285Y-75790152D02*
X90166666Y-75885390D01*
X90166666Y-75885390D02*
X90119047Y-75933009D01*
X90119047Y-75933009D02*
X90023809Y-75980628D01*
X90023809Y-75980628D02*
X89642857Y-75980628D01*
X90690476Y-76456819D02*
X90880952Y-76456819D01*
X90880952Y-76456819D02*
X90976190Y-76409200D01*
X90976190Y-76409200D02*
X91023809Y-76361580D01*
X91023809Y-76361580D02*
X91119047Y-76218723D01*
X91119047Y-76218723D02*
X91166666Y-76028247D01*
X91166666Y-76028247D02*
X91166666Y-75647295D01*
X91166666Y-75647295D02*
X91119047Y-75552057D01*
X91119047Y-75552057D02*
X91071428Y-75504438D01*
X91071428Y-75504438D02*
X90976190Y-75456819D01*
X90976190Y-75456819D02*
X90785714Y-75456819D01*
X90785714Y-75456819D02*
X90690476Y-75504438D01*
X90690476Y-75504438D02*
X90642857Y-75552057D01*
X90642857Y-75552057D02*
X90595238Y-75647295D01*
X90595238Y-75647295D02*
X90595238Y-75885390D01*
X90595238Y-75885390D02*
X90642857Y-75980628D01*
X90642857Y-75980628D02*
X90690476Y-76028247D01*
X90690476Y-76028247D02*
X90785714Y-76075866D01*
X90785714Y-76075866D02*
X90976190Y-76075866D01*
X90976190Y-76075866D02*
X91071428Y-76028247D01*
X91071428Y-76028247D02*
X91119047Y-75980628D01*
X91119047Y-75980628D02*
X91166666Y-75885390D01*
X96620595Y-75456819D02*
X97192023Y-75456819D01*
X96906309Y-76456819D02*
X96906309Y-75456819D01*
X97525357Y-76456819D02*
X97525357Y-75456819D01*
X97525357Y-75456819D02*
X97906309Y-75456819D01*
X97906309Y-75456819D02*
X98001547Y-75504438D01*
X98001547Y-75504438D02*
X98049166Y-75552057D01*
X98049166Y-75552057D02*
X98096785Y-75647295D01*
X98096785Y-75647295D02*
X98096785Y-75790152D01*
X98096785Y-75790152D02*
X98049166Y-75885390D01*
X98049166Y-75885390D02*
X98001547Y-75933009D01*
X98001547Y-75933009D02*
X97906309Y-75980628D01*
X97906309Y-75980628D02*
X97525357Y-75980628D01*
X98668214Y-75885390D02*
X98572976Y-75837771D01*
X98572976Y-75837771D02*
X98525357Y-75790152D01*
X98525357Y-75790152D02*
X98477738Y-75694914D01*
X98477738Y-75694914D02*
X98477738Y-75647295D01*
X98477738Y-75647295D02*
X98525357Y-75552057D01*
X98525357Y-75552057D02*
X98572976Y-75504438D01*
X98572976Y-75504438D02*
X98668214Y-75456819D01*
X98668214Y-75456819D02*
X98858690Y-75456819D01*
X98858690Y-75456819D02*
X98953928Y-75504438D01*
X98953928Y-75504438D02*
X99001547Y-75552057D01*
X99001547Y-75552057D02*
X99049166Y-75647295D01*
X99049166Y-75647295D02*
X99049166Y-75694914D01*
X99049166Y-75694914D02*
X99001547Y-75790152D01*
X99001547Y-75790152D02*
X98953928Y-75837771D01*
X98953928Y-75837771D02*
X98858690Y-75885390D01*
X98858690Y-75885390D02*
X98668214Y-75885390D01*
X98668214Y-75885390D02*
X98572976Y-75933009D01*
X98572976Y-75933009D02*
X98525357Y-75980628D01*
X98525357Y-75980628D02*
X98477738Y-76075866D01*
X98477738Y-76075866D02*
X98477738Y-76266342D01*
X98477738Y-76266342D02*
X98525357Y-76361580D01*
X98525357Y-76361580D02*
X98572976Y-76409200D01*
X98572976Y-76409200D02*
X98668214Y-76456819D01*
X98668214Y-76456819D02*
X98858690Y-76456819D01*
X98858690Y-76456819D02*
X98953928Y-76409200D01*
X98953928Y-76409200D02*
X99001547Y-76361580D01*
X99001547Y-76361580D02*
X99049166Y-76266342D01*
X99049166Y-76266342D02*
X99049166Y-76075866D01*
X99049166Y-76075866D02*
X99001547Y-75980628D01*
X99001547Y-75980628D02*
X98953928Y-75933009D01*
X98953928Y-75933009D02*
X98858690Y-75885390D01*
X100238095Y-76956819D02*
X100809523Y-76956819D01*
X100523809Y-77956819D02*
X100523809Y-76956819D01*
X101142857Y-77956819D02*
X101142857Y-76956819D01*
X101142857Y-76956819D02*
X101523809Y-76956819D01*
X101523809Y-76956819D02*
X101619047Y-77004438D01*
X101619047Y-77004438D02*
X101666666Y-77052057D01*
X101666666Y-77052057D02*
X101714285Y-77147295D01*
X101714285Y-77147295D02*
X101714285Y-77290152D01*
X101714285Y-77290152D02*
X101666666Y-77385390D01*
X101666666Y-77385390D02*
X101619047Y-77433009D01*
X101619047Y-77433009D02*
X101523809Y-77480628D01*
X101523809Y-77480628D02*
X101142857Y-77480628D01*
X102047619Y-76956819D02*
X102714285Y-76956819D01*
X102714285Y-76956819D02*
X102285714Y-77956819D01*
X89738095Y-38956819D02*
X90309523Y-38956819D01*
X90023809Y-39956819D02*
X90023809Y-38956819D01*
X90642857Y-39956819D02*
X90642857Y-38956819D01*
X90642857Y-38956819D02*
X91023809Y-38956819D01*
X91023809Y-38956819D02*
X91119047Y-39004438D01*
X91119047Y-39004438D02*
X91166666Y-39052057D01*
X91166666Y-39052057D02*
X91214285Y-39147295D01*
X91214285Y-39147295D02*
X91214285Y-39290152D01*
X91214285Y-39290152D02*
X91166666Y-39385390D01*
X91166666Y-39385390D02*
X91119047Y-39433009D01*
X91119047Y-39433009D02*
X91023809Y-39480628D01*
X91023809Y-39480628D02*
X90642857Y-39480628D01*
X92119047Y-38956819D02*
X91642857Y-38956819D01*
X91642857Y-38956819D02*
X91595238Y-39433009D01*
X91595238Y-39433009D02*
X91642857Y-39385390D01*
X91642857Y-39385390D02*
X91738095Y-39337771D01*
X91738095Y-39337771D02*
X91976190Y-39337771D01*
X91976190Y-39337771D02*
X92071428Y-39385390D01*
X92071428Y-39385390D02*
X92119047Y-39433009D01*
X92119047Y-39433009D02*
X92166666Y-39528247D01*
X92166666Y-39528247D02*
X92166666Y-39766342D01*
X92166666Y-39766342D02*
X92119047Y-39861580D01*
X92119047Y-39861580D02*
X92071428Y-39909200D01*
X92071428Y-39909200D02*
X91976190Y-39956819D01*
X91976190Y-39956819D02*
X91738095Y-39956819D01*
X91738095Y-39956819D02*
X91642857Y-39909200D01*
X91642857Y-39909200D02*
X91595238Y-39861580D01*
X94738095Y-36954819D02*
X95309523Y-36954819D01*
X95023809Y-37954819D02*
X95023809Y-36954819D01*
X95642857Y-37954819D02*
X95642857Y-36954819D01*
X95642857Y-36954819D02*
X96023809Y-36954819D01*
X96023809Y-36954819D02*
X96119047Y-37002438D01*
X96119047Y-37002438D02*
X96166666Y-37050057D01*
X96166666Y-37050057D02*
X96214285Y-37145295D01*
X96214285Y-37145295D02*
X96214285Y-37288152D01*
X96214285Y-37288152D02*
X96166666Y-37383390D01*
X96166666Y-37383390D02*
X96119047Y-37431009D01*
X96119047Y-37431009D02*
X96023809Y-37478628D01*
X96023809Y-37478628D02*
X95642857Y-37478628D01*
X97071428Y-37288152D02*
X97071428Y-37954819D01*
X96833333Y-36907200D02*
X96595238Y-37621485D01*
X96595238Y-37621485D02*
X97214285Y-37621485D01*
X99120595Y-39456819D02*
X99692023Y-39456819D01*
X99406309Y-40456819D02*
X99406309Y-39456819D01*
X100025357Y-40456819D02*
X100025357Y-39456819D01*
X100025357Y-39456819D02*
X100406309Y-39456819D01*
X100406309Y-39456819D02*
X100501547Y-39504438D01*
X100501547Y-39504438D02*
X100549166Y-39552057D01*
X100549166Y-39552057D02*
X100596785Y-39647295D01*
X100596785Y-39647295D02*
X100596785Y-39790152D01*
X100596785Y-39790152D02*
X100549166Y-39885390D01*
X100549166Y-39885390D02*
X100501547Y-39933009D01*
X100501547Y-39933009D02*
X100406309Y-39980628D01*
X100406309Y-39980628D02*
X100025357Y-39980628D01*
X100930119Y-39456819D02*
X101549166Y-39456819D01*
X101549166Y-39456819D02*
X101215833Y-39837771D01*
X101215833Y-39837771D02*
X101358690Y-39837771D01*
X101358690Y-39837771D02*
X101453928Y-39885390D01*
X101453928Y-39885390D02*
X101501547Y-39933009D01*
X101501547Y-39933009D02*
X101549166Y-40028247D01*
X101549166Y-40028247D02*
X101549166Y-40266342D01*
X101549166Y-40266342D02*
X101501547Y-40361580D01*
X101501547Y-40361580D02*
X101453928Y-40409200D01*
X101453928Y-40409200D02*
X101358690Y-40456819D01*
X101358690Y-40456819D02*
X101072976Y-40456819D01*
X101072976Y-40456819D02*
X100977738Y-40409200D01*
X100977738Y-40409200D02*
X100930119Y-40361580D01*
X103355595Y-36654819D02*
X103927023Y-36654819D01*
X103641309Y-37654819D02*
X103641309Y-36654819D01*
X104260357Y-37654819D02*
X104260357Y-36654819D01*
X104260357Y-36654819D02*
X104641309Y-36654819D01*
X104641309Y-36654819D02*
X104736547Y-36702438D01*
X104736547Y-36702438D02*
X104784166Y-36750057D01*
X104784166Y-36750057D02*
X104831785Y-36845295D01*
X104831785Y-36845295D02*
X104831785Y-36988152D01*
X104831785Y-36988152D02*
X104784166Y-37083390D01*
X104784166Y-37083390D02*
X104736547Y-37131009D01*
X104736547Y-37131009D02*
X104641309Y-37178628D01*
X104641309Y-37178628D02*
X104260357Y-37178628D01*
X105212738Y-36750057D02*
X105260357Y-36702438D01*
X105260357Y-36702438D02*
X105355595Y-36654819D01*
X105355595Y-36654819D02*
X105593690Y-36654819D01*
X105593690Y-36654819D02*
X105688928Y-36702438D01*
X105688928Y-36702438D02*
X105736547Y-36750057D01*
X105736547Y-36750057D02*
X105784166Y-36845295D01*
X105784166Y-36845295D02*
X105784166Y-36940533D01*
X105784166Y-36940533D02*
X105736547Y-37083390D01*
X105736547Y-37083390D02*
X105165119Y-37654819D01*
X105165119Y-37654819D02*
X105784166Y-37654819D01*
X107738095Y-38956819D02*
X108309523Y-38956819D01*
X108023809Y-39956819D02*
X108023809Y-38956819D01*
X108642857Y-39956819D02*
X108642857Y-38956819D01*
X108642857Y-38956819D02*
X109023809Y-38956819D01*
X109023809Y-38956819D02*
X109119047Y-39004438D01*
X109119047Y-39004438D02*
X109166666Y-39052057D01*
X109166666Y-39052057D02*
X109214285Y-39147295D01*
X109214285Y-39147295D02*
X109214285Y-39290152D01*
X109214285Y-39290152D02*
X109166666Y-39385390D01*
X109166666Y-39385390D02*
X109119047Y-39433009D01*
X109119047Y-39433009D02*
X109023809Y-39480628D01*
X109023809Y-39480628D02*
X108642857Y-39480628D01*
X110166666Y-39956819D02*
X109595238Y-39956819D01*
X109880952Y-39956819D02*
X109880952Y-38956819D01*
X109880952Y-38956819D02*
X109785714Y-39099676D01*
X109785714Y-39099676D02*
X109690476Y-39194914D01*
X109690476Y-39194914D02*
X109595238Y-39242533D01*
X127531905Y-58994819D02*
X127531905Y-57994819D01*
X127531905Y-57994819D02*
X127770000Y-57994819D01*
X127770000Y-57994819D02*
X127912857Y-58042438D01*
X127912857Y-58042438D02*
X128008095Y-58137676D01*
X128008095Y-58137676D02*
X128055714Y-58232914D01*
X128055714Y-58232914D02*
X128103333Y-58423390D01*
X128103333Y-58423390D02*
X128103333Y-58566247D01*
X128103333Y-58566247D02*
X128055714Y-58756723D01*
X128055714Y-58756723D02*
X128008095Y-58851961D01*
X128008095Y-58851961D02*
X127912857Y-58947200D01*
X127912857Y-58947200D02*
X127770000Y-58994819D01*
X127770000Y-58994819D02*
X127531905Y-58994819D01*
X128960476Y-57994819D02*
X128770000Y-57994819D01*
X128770000Y-57994819D02*
X128674762Y-58042438D01*
X128674762Y-58042438D02*
X128627143Y-58090057D01*
X128627143Y-58090057D02*
X128531905Y-58232914D01*
X128531905Y-58232914D02*
X128484286Y-58423390D01*
X128484286Y-58423390D02*
X128484286Y-58804342D01*
X128484286Y-58804342D02*
X128531905Y-58899580D01*
X128531905Y-58899580D02*
X128579524Y-58947200D01*
X128579524Y-58947200D02*
X128674762Y-58994819D01*
X128674762Y-58994819D02*
X128865238Y-58994819D01*
X128865238Y-58994819D02*
X128960476Y-58947200D01*
X128960476Y-58947200D02*
X129008095Y-58899580D01*
X129008095Y-58899580D02*
X129055714Y-58804342D01*
X129055714Y-58804342D02*
X129055714Y-58566247D01*
X129055714Y-58566247D02*
X129008095Y-58471009D01*
X129008095Y-58471009D02*
X128960476Y-58423390D01*
X128960476Y-58423390D02*
X128865238Y-58375771D01*
X128865238Y-58375771D02*
X128674762Y-58375771D01*
X128674762Y-58375771D02*
X128579524Y-58423390D01*
X128579524Y-58423390D02*
X128531905Y-58471009D01*
X128531905Y-58471009D02*
X128484286Y-58566247D01*
X120531905Y-58994819D02*
X120531905Y-57994819D01*
X120531905Y-57994819D02*
X120770000Y-57994819D01*
X120770000Y-57994819D02*
X120912857Y-58042438D01*
X120912857Y-58042438D02*
X121008095Y-58137676D01*
X121008095Y-58137676D02*
X121055714Y-58232914D01*
X121055714Y-58232914D02*
X121103333Y-58423390D01*
X121103333Y-58423390D02*
X121103333Y-58566247D01*
X121103333Y-58566247D02*
X121055714Y-58756723D01*
X121055714Y-58756723D02*
X121008095Y-58851961D01*
X121008095Y-58851961D02*
X120912857Y-58947200D01*
X120912857Y-58947200D02*
X120770000Y-58994819D01*
X120770000Y-58994819D02*
X120531905Y-58994819D01*
X122008095Y-57994819D02*
X121531905Y-57994819D01*
X121531905Y-57994819D02*
X121484286Y-58471009D01*
X121484286Y-58471009D02*
X121531905Y-58423390D01*
X121531905Y-58423390D02*
X121627143Y-58375771D01*
X121627143Y-58375771D02*
X121865238Y-58375771D01*
X121865238Y-58375771D02*
X121960476Y-58423390D01*
X121960476Y-58423390D02*
X122008095Y-58471009D01*
X122008095Y-58471009D02*
X122055714Y-58566247D01*
X122055714Y-58566247D02*
X122055714Y-58804342D01*
X122055714Y-58804342D02*
X122008095Y-58899580D01*
X122008095Y-58899580D02*
X121960476Y-58947200D01*
X121960476Y-58947200D02*
X121865238Y-58994819D01*
X121865238Y-58994819D02*
X121627143Y-58994819D01*
X121627143Y-58994819D02*
X121531905Y-58947200D01*
X121531905Y-58947200D02*
X121484286Y-58899580D01*
X113531905Y-58994819D02*
X113531905Y-57994819D01*
X113531905Y-57994819D02*
X113770000Y-57994819D01*
X113770000Y-57994819D02*
X113912857Y-58042438D01*
X113912857Y-58042438D02*
X114008095Y-58137676D01*
X114008095Y-58137676D02*
X114055714Y-58232914D01*
X114055714Y-58232914D02*
X114103333Y-58423390D01*
X114103333Y-58423390D02*
X114103333Y-58566247D01*
X114103333Y-58566247D02*
X114055714Y-58756723D01*
X114055714Y-58756723D02*
X114008095Y-58851961D01*
X114008095Y-58851961D02*
X113912857Y-58947200D01*
X113912857Y-58947200D02*
X113770000Y-58994819D01*
X113770000Y-58994819D02*
X113531905Y-58994819D01*
X114960476Y-58328152D02*
X114960476Y-58994819D01*
X114722381Y-57947200D02*
X114484286Y-58661485D01*
X114484286Y-58661485D02*
X115103333Y-58661485D01*
X127531905Y-49994819D02*
X127531905Y-48994819D01*
X127531905Y-48994819D02*
X127770000Y-48994819D01*
X127770000Y-48994819D02*
X127912857Y-49042438D01*
X127912857Y-49042438D02*
X128008095Y-49137676D01*
X128008095Y-49137676D02*
X128055714Y-49232914D01*
X128055714Y-49232914D02*
X128103333Y-49423390D01*
X128103333Y-49423390D02*
X128103333Y-49566247D01*
X128103333Y-49566247D02*
X128055714Y-49756723D01*
X128055714Y-49756723D02*
X128008095Y-49851961D01*
X128008095Y-49851961D02*
X127912857Y-49947200D01*
X127912857Y-49947200D02*
X127770000Y-49994819D01*
X127770000Y-49994819D02*
X127531905Y-49994819D01*
X128436667Y-48994819D02*
X129055714Y-48994819D01*
X129055714Y-48994819D02*
X128722381Y-49375771D01*
X128722381Y-49375771D02*
X128865238Y-49375771D01*
X128865238Y-49375771D02*
X128960476Y-49423390D01*
X128960476Y-49423390D02*
X129008095Y-49471009D01*
X129008095Y-49471009D02*
X129055714Y-49566247D01*
X129055714Y-49566247D02*
X129055714Y-49804342D01*
X129055714Y-49804342D02*
X129008095Y-49899580D01*
X129008095Y-49899580D02*
X128960476Y-49947200D01*
X128960476Y-49947200D02*
X128865238Y-49994819D01*
X128865238Y-49994819D02*
X128579524Y-49994819D01*
X128579524Y-49994819D02*
X128484286Y-49947200D01*
X128484286Y-49947200D02*
X128436667Y-49899580D01*
X120531905Y-49994819D02*
X120531905Y-48994819D01*
X120531905Y-48994819D02*
X120770000Y-48994819D01*
X120770000Y-48994819D02*
X120912857Y-49042438D01*
X120912857Y-49042438D02*
X121008095Y-49137676D01*
X121008095Y-49137676D02*
X121055714Y-49232914D01*
X121055714Y-49232914D02*
X121103333Y-49423390D01*
X121103333Y-49423390D02*
X121103333Y-49566247D01*
X121103333Y-49566247D02*
X121055714Y-49756723D01*
X121055714Y-49756723D02*
X121008095Y-49851961D01*
X121008095Y-49851961D02*
X120912857Y-49947200D01*
X120912857Y-49947200D02*
X120770000Y-49994819D01*
X120770000Y-49994819D02*
X120531905Y-49994819D01*
X121484286Y-49090057D02*
X121531905Y-49042438D01*
X121531905Y-49042438D02*
X121627143Y-48994819D01*
X121627143Y-48994819D02*
X121865238Y-48994819D01*
X121865238Y-48994819D02*
X121960476Y-49042438D01*
X121960476Y-49042438D02*
X122008095Y-49090057D01*
X122008095Y-49090057D02*
X122055714Y-49185295D01*
X122055714Y-49185295D02*
X122055714Y-49280533D01*
X122055714Y-49280533D02*
X122008095Y-49423390D01*
X122008095Y-49423390D02*
X121436667Y-49994819D01*
X121436667Y-49994819D02*
X122055714Y-49994819D01*
X113531905Y-49994819D02*
X113531905Y-48994819D01*
X113531905Y-48994819D02*
X113770000Y-48994819D01*
X113770000Y-48994819D02*
X113912857Y-49042438D01*
X113912857Y-49042438D02*
X114008095Y-49137676D01*
X114008095Y-49137676D02*
X114055714Y-49232914D01*
X114055714Y-49232914D02*
X114103333Y-49423390D01*
X114103333Y-49423390D02*
X114103333Y-49566247D01*
X114103333Y-49566247D02*
X114055714Y-49756723D01*
X114055714Y-49756723D02*
X114008095Y-49851961D01*
X114008095Y-49851961D02*
X113912857Y-49947200D01*
X113912857Y-49947200D02*
X113770000Y-49994819D01*
X113770000Y-49994819D02*
X113531905Y-49994819D01*
X115055714Y-49994819D02*
X114484286Y-49994819D01*
X114770000Y-49994819D02*
X114770000Y-48994819D01*
X114770000Y-48994819D02*
X114674762Y-49137676D01*
X114674762Y-49137676D02*
X114579524Y-49232914D01*
X114579524Y-49232914D02*
X114484286Y-49280533D01*
D14*
%TO.C,U10*%
X180020000Y-40670000D02*
X187700000Y-40670000D01*
X187700000Y-43330000D02*
X187700000Y-40670000D01*
X180020000Y-43330000D02*
X180020000Y-40670000D01*
X180020000Y-43330000D02*
X187700000Y-43330000D01*
X178750000Y-43330000D02*
X177420000Y-43330000D01*
X177420000Y-43330000D02*
X177420000Y-42000000D01*
D15*
%TO.C,REF\u002A\u002A*%
X160688614Y-80275877D02*
X160712327Y-80290647D01*
X160738978Y-80312227D01*
X160738978Y-80633773D01*
X160738893Y-80727830D01*
X160738529Y-80801932D01*
X160737724Y-80858704D01*
X160736313Y-80900768D01*
X160734133Y-80930748D01*
X160731021Y-80951267D01*
X160726814Y-80964949D01*
X160721348Y-80974416D01*
X160717472Y-80979082D01*
X160686034Y-80999575D01*
X160650233Y-80998739D01*
X160618873Y-80981264D01*
X160592222Y-80959684D01*
X160592222Y-80312227D01*
X160618873Y-80290647D01*
X160644594Y-80274949D01*
X160665600Y-80269067D01*
X160688614Y-80275877D01*
G36*
X160688614Y-80275877D02*
G01*
X160712327Y-80290647D01*
X160738978Y-80312227D01*
X160738978Y-80633773D01*
X160738893Y-80727830D01*
X160738529Y-80801932D01*
X160737724Y-80858704D01*
X160736313Y-80900768D01*
X160734133Y-80930748D01*
X160731021Y-80951267D01*
X160726814Y-80964949D01*
X160721348Y-80974416D01*
X160717472Y-80979082D01*
X160686034Y-80999575D01*
X160650233Y-80998739D01*
X160618873Y-80981264D01*
X160592222Y-80959684D01*
X160592222Y-80312227D01*
X160618873Y-80290647D01*
X160644594Y-80274949D01*
X160665600Y-80269067D01*
X160688614Y-80275877D01*
G37*
X153576178Y-80291645D02*
X153582758Y-80299218D01*
X153587921Y-80308987D01*
X153591836Y-80323571D01*
X153594676Y-80345585D01*
X153596613Y-80377648D01*
X153597817Y-80422375D01*
X153598461Y-80482385D01*
X153598716Y-80560294D01*
X153598755Y-80635956D01*
X153598686Y-80729802D01*
X153598362Y-80803689D01*
X153597614Y-80860232D01*
X153596268Y-80902049D01*
X153594154Y-80931757D01*
X153591100Y-80951973D01*
X153586934Y-80965314D01*
X153581484Y-80974398D01*
X153576178Y-80980267D01*
X153543174Y-80999947D01*
X153508009Y-80998181D01*
X153476545Y-80976717D01*
X153469316Y-80968337D01*
X153463666Y-80958614D01*
X153459401Y-80944861D01*
X153456327Y-80924389D01*
X153454248Y-80894512D01*
X153452970Y-80852541D01*
X153452299Y-80795789D01*
X153452041Y-80721567D01*
X153452000Y-80637537D01*
X153452000Y-80324485D01*
X153479709Y-80296776D01*
X153513863Y-80273463D01*
X153546994Y-80272623D01*
X153576178Y-80291645D01*
G36*
X153576178Y-80291645D02*
G01*
X153582758Y-80299218D01*
X153587921Y-80308987D01*
X153591836Y-80323571D01*
X153594676Y-80345585D01*
X153596613Y-80377648D01*
X153597817Y-80422375D01*
X153598461Y-80482385D01*
X153598716Y-80560294D01*
X153598755Y-80635956D01*
X153598686Y-80729802D01*
X153598362Y-80803689D01*
X153597614Y-80860232D01*
X153596268Y-80902049D01*
X153594154Y-80931757D01*
X153591100Y-80951973D01*
X153586934Y-80965314D01*
X153581484Y-80974398D01*
X153576178Y-80980267D01*
X153543174Y-80999947D01*
X153508009Y-80998181D01*
X153476545Y-80976717D01*
X153469316Y-80968337D01*
X153463666Y-80958614D01*
X153459401Y-80944861D01*
X153456327Y-80924389D01*
X153454248Y-80894512D01*
X153452970Y-80852541D01*
X153452299Y-80795789D01*
X153452041Y-80721567D01*
X153452000Y-80637537D01*
X153452000Y-80324485D01*
X153479709Y-80296776D01*
X153513863Y-80273463D01*
X153546994Y-80272623D01*
X153576178Y-80291645D01*
G37*
X154226957Y-75026571D02*
X154323232Y-75050809D01*
X154409816Y-75093641D01*
X154484627Y-75153419D01*
X154545582Y-75228494D01*
X154590601Y-75317220D01*
X154616864Y-75413530D01*
X154622714Y-75510795D01*
X154607860Y-75604654D01*
X154574160Y-75692511D01*
X154523472Y-75771770D01*
X154457655Y-75839836D01*
X154378566Y-75894112D01*
X154288066Y-75932002D01*
X154236800Y-75944426D01*
X154192302Y-75951947D01*
X154158001Y-75954919D01*
X154125040Y-75953094D01*
X154084566Y-75946225D01*
X154051469Y-75939250D01*
X153958053Y-75907741D01*
X153874381Y-75856617D01*
X153802335Y-75787429D01*
X153743800Y-75701728D01*
X153729852Y-75674489D01*
X153713414Y-75638122D01*
X153703106Y-75607582D01*
X153697540Y-75575450D01*
X153695331Y-75534307D01*
X153695052Y-75488222D01*
X153699139Y-75403865D01*
X153712554Y-75334586D01*
X153737744Y-75273961D01*
X153777154Y-75215567D01*
X153815702Y-75171302D01*
X153887594Y-75105484D01*
X153962687Y-75060053D01*
X154045438Y-75032850D01*
X154123072Y-75022576D01*
X154226957Y-75026571D01*
G36*
X154226957Y-75026571D02*
G01*
X154323232Y-75050809D01*
X154409816Y-75093641D01*
X154484627Y-75153419D01*
X154545582Y-75228494D01*
X154590601Y-75317220D01*
X154616864Y-75413530D01*
X154622714Y-75510795D01*
X154607860Y-75604654D01*
X154574160Y-75692511D01*
X154523472Y-75771770D01*
X154457655Y-75839836D01*
X154378566Y-75894112D01*
X154288066Y-75932002D01*
X154236800Y-75944426D01*
X154192302Y-75951947D01*
X154158001Y-75954919D01*
X154125040Y-75953094D01*
X154084566Y-75946225D01*
X154051469Y-75939250D01*
X153958053Y-75907741D01*
X153874381Y-75856617D01*
X153802335Y-75787429D01*
X153743800Y-75701728D01*
X153729852Y-75674489D01*
X153713414Y-75638122D01*
X153703106Y-75607582D01*
X153697540Y-75575450D01*
X153695331Y-75534307D01*
X153695052Y-75488222D01*
X153699139Y-75403865D01*
X153712554Y-75334586D01*
X153737744Y-75273961D01*
X153777154Y-75215567D01*
X153815702Y-75171302D01*
X153887594Y-75105484D01*
X153962687Y-75060053D01*
X154045438Y-75032850D01*
X154123072Y-75022576D01*
X154226957Y-75026571D01*
G37*
X161463065Y-80269163D02*
X161541772Y-80269542D01*
X161602863Y-80270333D01*
X161648817Y-80271670D01*
X161682114Y-80273683D01*
X161705236Y-80276506D01*
X161720662Y-80280269D01*
X161730871Y-80285105D01*
X161735813Y-80288822D01*
X161761457Y-80321358D01*
X161764559Y-80355138D01*
X161748711Y-80385826D01*
X161738348Y-80398089D01*
X161727196Y-80406450D01*
X161711035Y-80411657D01*
X161685642Y-80414457D01*
X161646798Y-80415596D01*
X161590280Y-80415821D01*
X161579180Y-80415822D01*
X161433244Y-80415822D01*
X161433244Y-80686756D01*
X161433148Y-80772154D01*
X161432711Y-80837864D01*
X161431712Y-80886774D01*
X161429928Y-80921773D01*
X161427137Y-80945749D01*
X161423117Y-80961593D01*
X161417645Y-80972191D01*
X161410666Y-80980267D01*
X161377734Y-81000112D01*
X161343354Y-80998548D01*
X161312176Y-80975906D01*
X161309886Y-80973100D01*
X161302429Y-80962492D01*
X161296747Y-80950081D01*
X161292601Y-80932850D01*
X161289750Y-80907784D01*
X161287954Y-80871867D01*
X161286972Y-80822083D01*
X161286564Y-80755417D01*
X161286489Y-80679589D01*
X161286489Y-80415822D01*
X161147127Y-80415822D01*
X161087322Y-80415418D01*
X161045918Y-80413840D01*
X161018748Y-80410547D01*
X161001646Y-80404992D01*
X160990443Y-80396631D01*
X160989083Y-80395178D01*
X160972725Y-80361939D01*
X160974172Y-80324362D01*
X160992978Y-80291645D01*
X161000250Y-80285298D01*
X161009627Y-80280266D01*
X161023609Y-80276396D01*
X161044696Y-80273537D01*
X161075389Y-80271535D01*
X161118189Y-80270239D01*
X161175595Y-80269498D01*
X161250110Y-80269158D01*
X161344233Y-80269068D01*
X161364260Y-80269067D01*
X161463065Y-80269163D01*
G36*
X161463065Y-80269163D02*
G01*
X161541772Y-80269542D01*
X161602863Y-80270333D01*
X161648817Y-80271670D01*
X161682114Y-80273683D01*
X161705236Y-80276506D01*
X161720662Y-80280269D01*
X161730871Y-80285105D01*
X161735813Y-80288822D01*
X161761457Y-80321358D01*
X161764559Y-80355138D01*
X161748711Y-80385826D01*
X161738348Y-80398089D01*
X161727196Y-80406450D01*
X161711035Y-80411657D01*
X161685642Y-80414457D01*
X161646798Y-80415596D01*
X161590280Y-80415821D01*
X161579180Y-80415822D01*
X161433244Y-80415822D01*
X161433244Y-80686756D01*
X161433148Y-80772154D01*
X161432711Y-80837864D01*
X161431712Y-80886774D01*
X161429928Y-80921773D01*
X161427137Y-80945749D01*
X161423117Y-80961593D01*
X161417645Y-80972191D01*
X161410666Y-80980267D01*
X161377734Y-81000112D01*
X161343354Y-80998548D01*
X161312176Y-80975906D01*
X161309886Y-80973100D01*
X161302429Y-80962492D01*
X161296747Y-80950081D01*
X161292601Y-80932850D01*
X161289750Y-80907784D01*
X161287954Y-80871867D01*
X161286972Y-80822083D01*
X161286564Y-80755417D01*
X161286489Y-80679589D01*
X161286489Y-80415822D01*
X161147127Y-80415822D01*
X161087322Y-80415418D01*
X161045918Y-80413840D01*
X161018748Y-80410547D01*
X161001646Y-80404992D01*
X160990443Y-80396631D01*
X160989083Y-80395178D01*
X160972725Y-80361939D01*
X160974172Y-80324362D01*
X160992978Y-80291645D01*
X161000250Y-80285298D01*
X161009627Y-80280266D01*
X161023609Y-80276396D01*
X161044696Y-80273537D01*
X161075389Y-80271535D01*
X161118189Y-80270239D01*
X161175595Y-80269498D01*
X161250110Y-80269158D01*
X161344233Y-80269068D01*
X161364260Y-80269067D01*
X161463065Y-80269163D01*
G37*
X162728823Y-80274533D02*
X162760202Y-80296776D01*
X162787911Y-80324485D01*
X162787911Y-80633920D01*
X162787838Y-80725799D01*
X162787495Y-80797840D01*
X162786692Y-80852780D01*
X162785241Y-80893360D01*
X162782952Y-80922317D01*
X162779636Y-80942391D01*
X162775105Y-80956321D01*
X162769169Y-80966845D01*
X162764514Y-80973100D01*
X162733783Y-80997673D01*
X162698496Y-81000341D01*
X162666245Y-80985271D01*
X162655588Y-80976374D01*
X162648464Y-80964557D01*
X162644167Y-80945526D01*
X162641991Y-80914992D01*
X162641228Y-80868662D01*
X162641155Y-80832871D01*
X162641155Y-80698045D01*
X162144444Y-80698045D01*
X162144444Y-80820700D01*
X162143931Y-80876787D01*
X162141876Y-80915333D01*
X162137508Y-80941361D01*
X162130056Y-80959897D01*
X162121047Y-80973100D01*
X162090144Y-80997604D01*
X162055196Y-81000506D01*
X162021738Y-80983089D01*
X162012604Y-80973959D01*
X162006152Y-80961855D01*
X162001897Y-80943001D01*
X161999352Y-80913620D01*
X161998029Y-80869937D01*
X161997443Y-80808175D01*
X161997375Y-80794000D01*
X161996891Y-80677631D01*
X161996641Y-80581727D01*
X161996723Y-80504177D01*
X161997231Y-80442869D01*
X161998262Y-80395690D01*
X161999913Y-80360530D01*
X162002279Y-80335276D01*
X162005457Y-80317817D01*
X162009544Y-80306041D01*
X162014634Y-80297835D01*
X162020266Y-80291645D01*
X162052128Y-80271844D01*
X162085357Y-80274533D01*
X162116735Y-80296776D01*
X162129433Y-80311126D01*
X162137526Y-80326978D01*
X162142042Y-80349554D01*
X162144006Y-80384078D01*
X162144444Y-80435776D01*
X162144444Y-80551289D01*
X162641155Y-80551289D01*
X162641155Y-80432756D01*
X162641662Y-80378148D01*
X162643698Y-80341275D01*
X162648035Y-80317307D01*
X162655447Y-80301415D01*
X162663733Y-80291645D01*
X162695594Y-80271844D01*
X162728823Y-80274533D01*
G36*
X162728823Y-80274533D02*
G01*
X162760202Y-80296776D01*
X162787911Y-80324485D01*
X162787911Y-80633920D01*
X162787838Y-80725799D01*
X162787495Y-80797840D01*
X162786692Y-80852780D01*
X162785241Y-80893360D01*
X162782952Y-80922317D01*
X162779636Y-80942391D01*
X162775105Y-80956321D01*
X162769169Y-80966845D01*
X162764514Y-80973100D01*
X162733783Y-80997673D01*
X162698496Y-81000341D01*
X162666245Y-80985271D01*
X162655588Y-80976374D01*
X162648464Y-80964557D01*
X162644167Y-80945526D01*
X162641991Y-80914992D01*
X162641228Y-80868662D01*
X162641155Y-80832871D01*
X162641155Y-80698045D01*
X162144444Y-80698045D01*
X162144444Y-80820700D01*
X162143931Y-80876787D01*
X162141876Y-80915333D01*
X162137508Y-80941361D01*
X162130056Y-80959897D01*
X162121047Y-80973100D01*
X162090144Y-80997604D01*
X162055196Y-81000506D01*
X162021738Y-80983089D01*
X162012604Y-80973959D01*
X162006152Y-80961855D01*
X162001897Y-80943001D01*
X161999352Y-80913620D01*
X161998029Y-80869937D01*
X161997443Y-80808175D01*
X161997375Y-80794000D01*
X161996891Y-80677631D01*
X161996641Y-80581727D01*
X161996723Y-80504177D01*
X161997231Y-80442869D01*
X161998262Y-80395690D01*
X161999913Y-80360530D01*
X162002279Y-80335276D01*
X162005457Y-80317817D01*
X162009544Y-80306041D01*
X162014634Y-80297835D01*
X162020266Y-80291645D01*
X162052128Y-80271844D01*
X162085357Y-80274533D01*
X162116735Y-80296776D01*
X162129433Y-80311126D01*
X162137526Y-80326978D01*
X162142042Y-80349554D01*
X162144006Y-80384078D01*
X162144444Y-80435776D01*
X162144444Y-80551289D01*
X162641155Y-80551289D01*
X162641155Y-80432756D01*
X162641662Y-80378148D01*
X162643698Y-80341275D01*
X162648035Y-80317307D01*
X162655447Y-80301415D01*
X162663733Y-80291645D01*
X162695594Y-80271844D01*
X162728823Y-80274533D01*
G37*
X157518309Y-80269275D02*
X157647288Y-80273636D01*
X157756991Y-80286861D01*
X157849226Y-80309741D01*
X157925802Y-80343070D01*
X157988527Y-80387638D01*
X158039212Y-80444236D01*
X158079663Y-80513658D01*
X158080459Y-80515351D01*
X158104601Y-80577483D01*
X158113203Y-80632509D01*
X158106231Y-80687887D01*
X158083654Y-80751073D01*
X158079372Y-80760689D01*
X158050172Y-80816966D01*
X158017356Y-80860451D01*
X157975002Y-80897417D01*
X157917190Y-80934135D01*
X157913831Y-80936052D01*
X157863504Y-80960227D01*
X157806621Y-80978282D01*
X157739527Y-80990839D01*
X157658565Y-80998522D01*
X157560082Y-81001953D01*
X157525286Y-81002251D01*
X157359594Y-81002845D01*
X157336197Y-80973100D01*
X157329257Y-80963319D01*
X157323842Y-80951897D01*
X157319765Y-80936095D01*
X157316837Y-80913175D01*
X157314867Y-80880396D01*
X157314225Y-80856089D01*
X157470844Y-80856089D01*
X157564726Y-80856089D01*
X157619664Y-80854483D01*
X157676060Y-80850255D01*
X157722345Y-80844292D01*
X157725139Y-80843790D01*
X157807348Y-80821736D01*
X157871114Y-80788600D01*
X157918452Y-80742847D01*
X157951382Y-80682939D01*
X157957108Y-80667061D01*
X157962721Y-80642333D01*
X157960291Y-80617902D01*
X157948467Y-80585400D01*
X157941340Y-80569434D01*
X157918000Y-80527006D01*
X157889880Y-80497240D01*
X157858940Y-80476511D01*
X157796966Y-80449537D01*
X157717651Y-80429998D01*
X157625253Y-80418746D01*
X157558333Y-80416270D01*
X157470844Y-80415822D01*
X157470844Y-80856089D01*
X157314225Y-80856089D01*
X157313668Y-80835021D01*
X157313050Y-80774311D01*
X157312825Y-80695526D01*
X157312800Y-80633920D01*
X157312800Y-80324485D01*
X157340509Y-80296776D01*
X157352806Y-80285544D01*
X157366103Y-80277853D01*
X157384672Y-80273040D01*
X157412786Y-80270446D01*
X157454717Y-80269410D01*
X157514737Y-80269270D01*
X157518309Y-80269275D01*
G36*
X157518309Y-80269275D02*
G01*
X157647288Y-80273636D01*
X157756991Y-80286861D01*
X157849226Y-80309741D01*
X157925802Y-80343070D01*
X157988527Y-80387638D01*
X158039212Y-80444236D01*
X158079663Y-80513658D01*
X158080459Y-80515351D01*
X158104601Y-80577483D01*
X158113203Y-80632509D01*
X158106231Y-80687887D01*
X158083654Y-80751073D01*
X158079372Y-80760689D01*
X158050172Y-80816966D01*
X158017356Y-80860451D01*
X157975002Y-80897417D01*
X157917190Y-80934135D01*
X157913831Y-80936052D01*
X157863504Y-80960227D01*
X157806621Y-80978282D01*
X157739527Y-80990839D01*
X157658565Y-80998522D01*
X157560082Y-81001953D01*
X157525286Y-81002251D01*
X157359594Y-81002845D01*
X157336197Y-80973100D01*
X157329257Y-80963319D01*
X157323842Y-80951897D01*
X157319765Y-80936095D01*
X157316837Y-80913175D01*
X157314867Y-80880396D01*
X157314225Y-80856089D01*
X157470844Y-80856089D01*
X157564726Y-80856089D01*
X157619664Y-80854483D01*
X157676060Y-80850255D01*
X157722345Y-80844292D01*
X157725139Y-80843790D01*
X157807348Y-80821736D01*
X157871114Y-80788600D01*
X157918452Y-80742847D01*
X157951382Y-80682939D01*
X157957108Y-80667061D01*
X157962721Y-80642333D01*
X157960291Y-80617902D01*
X157948467Y-80585400D01*
X157941340Y-80569434D01*
X157918000Y-80527006D01*
X157889880Y-80497240D01*
X157858940Y-80476511D01*
X157796966Y-80449537D01*
X157717651Y-80429998D01*
X157625253Y-80418746D01*
X157558333Y-80416270D01*
X157470844Y-80415822D01*
X157470844Y-80856089D01*
X157314225Y-80856089D01*
X157313668Y-80835021D01*
X157313050Y-80774311D01*
X157312825Y-80695526D01*
X157312800Y-80633920D01*
X157312800Y-80324485D01*
X157340509Y-80296776D01*
X157352806Y-80285544D01*
X157366103Y-80277853D01*
X157384672Y-80273040D01*
X157412786Y-80270446D01*
X157454717Y-80269410D01*
X157514737Y-80269270D01*
X157518309Y-80269275D01*
G37*
X150378629Y-80269066D02*
X150418111Y-80269467D01*
X150533800Y-80272259D01*
X150630689Y-80280550D01*
X150712081Y-80295232D01*
X150781277Y-80317193D01*
X150841580Y-80347322D01*
X150896292Y-80386510D01*
X150915833Y-80403532D01*
X150948250Y-80443363D01*
X150977480Y-80497413D01*
X151000009Y-80557323D01*
X151012321Y-80614739D01*
X151013600Y-80635956D01*
X151005583Y-80694769D01*
X150984101Y-80759013D01*
X150953001Y-80819821D01*
X150916134Y-80868330D01*
X150910146Y-80874182D01*
X150859421Y-80915321D01*
X150803875Y-80947435D01*
X150740304Y-80971365D01*
X150665506Y-80987953D01*
X150576278Y-80998041D01*
X150469418Y-81002469D01*
X150420472Y-81002845D01*
X150358238Y-81002545D01*
X150314472Y-81001292D01*
X150285069Y-80998554D01*
X150265921Y-80993801D01*
X150252923Y-80986501D01*
X150245955Y-80980267D01*
X150239374Y-80972694D01*
X150234212Y-80962924D01*
X150230297Y-80948340D01*
X150227457Y-80926326D01*
X150225520Y-80894264D01*
X150224316Y-80849536D01*
X150223672Y-80789526D01*
X150223417Y-80711617D01*
X150223378Y-80635956D01*
X150223130Y-80535041D01*
X150223183Y-80454427D01*
X150224143Y-80415822D01*
X150370133Y-80415822D01*
X150370133Y-80856089D01*
X150463266Y-80856004D01*
X150519307Y-80854396D01*
X150578001Y-80850256D01*
X150626972Y-80844464D01*
X150628462Y-80844226D01*
X150707608Y-80825090D01*
X150768998Y-80795287D01*
X150815695Y-80752878D01*
X150845365Y-80706961D01*
X150863647Y-80656026D01*
X150862229Y-80608200D01*
X150841012Y-80556933D01*
X150799511Y-80503899D01*
X150742002Y-80464600D01*
X150667250Y-80438331D01*
X150617292Y-80429035D01*
X150560584Y-80422507D01*
X150500481Y-80417782D01*
X150449361Y-80415817D01*
X150446333Y-80415808D01*
X150370133Y-80415822D01*
X150224143Y-80415822D01*
X150224740Y-80391851D01*
X150229002Y-80345055D01*
X150237170Y-80311778D01*
X150250444Y-80289759D01*
X150270026Y-80276739D01*
X150297117Y-80270457D01*
X150332918Y-80268653D01*
X150378629Y-80269066D01*
G36*
X150378629Y-80269066D02*
G01*
X150418111Y-80269467D01*
X150533800Y-80272259D01*
X150630689Y-80280550D01*
X150712081Y-80295232D01*
X150781277Y-80317193D01*
X150841580Y-80347322D01*
X150896292Y-80386510D01*
X150915833Y-80403532D01*
X150948250Y-80443363D01*
X150977480Y-80497413D01*
X151000009Y-80557323D01*
X151012321Y-80614739D01*
X151013600Y-80635956D01*
X151005583Y-80694769D01*
X150984101Y-80759013D01*
X150953001Y-80819821D01*
X150916134Y-80868330D01*
X150910146Y-80874182D01*
X150859421Y-80915321D01*
X150803875Y-80947435D01*
X150740304Y-80971365D01*
X150665506Y-80987953D01*
X150576278Y-80998041D01*
X150469418Y-81002469D01*
X150420472Y-81002845D01*
X150358238Y-81002545D01*
X150314472Y-81001292D01*
X150285069Y-80998554D01*
X150265921Y-80993801D01*
X150252923Y-80986501D01*
X150245955Y-80980267D01*
X150239374Y-80972694D01*
X150234212Y-80962924D01*
X150230297Y-80948340D01*
X150227457Y-80926326D01*
X150225520Y-80894264D01*
X150224316Y-80849536D01*
X150223672Y-80789526D01*
X150223417Y-80711617D01*
X150223378Y-80635956D01*
X150223130Y-80535041D01*
X150223183Y-80454427D01*
X150224143Y-80415822D01*
X150370133Y-80415822D01*
X150370133Y-80856089D01*
X150463266Y-80856004D01*
X150519307Y-80854396D01*
X150578001Y-80850256D01*
X150626972Y-80844464D01*
X150628462Y-80844226D01*
X150707608Y-80825090D01*
X150768998Y-80795287D01*
X150815695Y-80752878D01*
X150845365Y-80706961D01*
X150863647Y-80656026D01*
X150862229Y-80608200D01*
X150841012Y-80556933D01*
X150799511Y-80503899D01*
X150742002Y-80464600D01*
X150667250Y-80438331D01*
X150617292Y-80429035D01*
X150560584Y-80422507D01*
X150500481Y-80417782D01*
X150449361Y-80415817D01*
X150446333Y-80415808D01*
X150370133Y-80415822D01*
X150224143Y-80415822D01*
X150224740Y-80391851D01*
X150229002Y-80345055D01*
X150237170Y-80311778D01*
X150250444Y-80289759D01*
X150270026Y-80276739D01*
X150297117Y-80270457D01*
X150332918Y-80268653D01*
X150378629Y-80269066D01*
G37*
X155199886Y-80273448D02*
X155223452Y-80287273D01*
X155254265Y-80309881D01*
X155293922Y-80342338D01*
X155344020Y-80385708D01*
X155406157Y-80441058D01*
X155481928Y-80509451D01*
X155568666Y-80588084D01*
X155749289Y-80751878D01*
X155754933Y-80532029D01*
X155756971Y-80456351D01*
X155758937Y-80399994D01*
X155761266Y-80359706D01*
X155764394Y-80332235D01*
X155768755Y-80314329D01*
X155774784Y-80302737D01*
X155782916Y-80294208D01*
X155787228Y-80290623D01*
X155821759Y-80271670D01*
X155854617Y-80274441D01*
X155880682Y-80290633D01*
X155907333Y-80312199D01*
X155910648Y-80627151D01*
X155911565Y-80719779D01*
X155912032Y-80792544D01*
X155911887Y-80848161D01*
X155910968Y-80889342D01*
X155909113Y-80918803D01*
X155906161Y-80939255D01*
X155901950Y-80953413D01*
X155896318Y-80963991D01*
X155890073Y-80972474D01*
X155876561Y-80988207D01*
X155863117Y-80998636D01*
X155847876Y-81002639D01*
X155828974Y-80999094D01*
X155804545Y-80986879D01*
X155772727Y-80964871D01*
X155731652Y-80931949D01*
X155679458Y-80886991D01*
X155614278Y-80828875D01*
X155540444Y-80762099D01*
X155275155Y-80521458D01*
X155269511Y-80740589D01*
X155267469Y-80816128D01*
X155265498Y-80872354D01*
X155263161Y-80912524D01*
X155260019Y-80939896D01*
X155255636Y-80957728D01*
X155249576Y-80969279D01*
X155241400Y-80977807D01*
X155237216Y-80981282D01*
X155200235Y-81000372D01*
X155165292Y-80997493D01*
X155134864Y-80973100D01*
X155127903Y-80963286D01*
X155122477Y-80951826D01*
X155118397Y-80935968D01*
X155115471Y-80912963D01*
X155113508Y-80880062D01*
X155112317Y-80834516D01*
X155111708Y-80773573D01*
X155111489Y-80694486D01*
X155111466Y-80635956D01*
X155111540Y-80544407D01*
X155111887Y-80472687D01*
X155112699Y-80418045D01*
X155114167Y-80377732D01*
X155116481Y-80348998D01*
X155119833Y-80329093D01*
X155124412Y-80315268D01*
X155130411Y-80304772D01*
X155134864Y-80298811D01*
X155146150Y-80284691D01*
X155156699Y-80274029D01*
X155168107Y-80267892D01*
X155181970Y-80267343D01*
X155199886Y-80273448D01*
G36*
X155199886Y-80273448D02*
G01*
X155223452Y-80287273D01*
X155254265Y-80309881D01*
X155293922Y-80342338D01*
X155344020Y-80385708D01*
X155406157Y-80441058D01*
X155481928Y-80509451D01*
X155568666Y-80588084D01*
X155749289Y-80751878D01*
X155754933Y-80532029D01*
X155756971Y-80456351D01*
X155758937Y-80399994D01*
X155761266Y-80359706D01*
X155764394Y-80332235D01*
X155768755Y-80314329D01*
X155774784Y-80302737D01*
X155782916Y-80294208D01*
X155787228Y-80290623D01*
X155821759Y-80271670D01*
X155854617Y-80274441D01*
X155880682Y-80290633D01*
X155907333Y-80312199D01*
X155910648Y-80627151D01*
X155911565Y-80719779D01*
X155912032Y-80792544D01*
X155911887Y-80848161D01*
X155910968Y-80889342D01*
X155909113Y-80918803D01*
X155906161Y-80939255D01*
X155901950Y-80953413D01*
X155896318Y-80963991D01*
X155890073Y-80972474D01*
X155876561Y-80988207D01*
X155863117Y-80998636D01*
X155847876Y-81002639D01*
X155828974Y-80999094D01*
X155804545Y-80986879D01*
X155772727Y-80964871D01*
X155731652Y-80931949D01*
X155679458Y-80886991D01*
X155614278Y-80828875D01*
X155540444Y-80762099D01*
X155275155Y-80521458D01*
X155269511Y-80740589D01*
X155267469Y-80816128D01*
X155265498Y-80872354D01*
X155263161Y-80912524D01*
X155260019Y-80939896D01*
X155255636Y-80957728D01*
X155249576Y-80969279D01*
X155241400Y-80977807D01*
X155237216Y-80981282D01*
X155200235Y-81000372D01*
X155165292Y-80997493D01*
X155134864Y-80973100D01*
X155127903Y-80963286D01*
X155122477Y-80951826D01*
X155118397Y-80935968D01*
X155115471Y-80912963D01*
X155113508Y-80880062D01*
X155112317Y-80834516D01*
X155111708Y-80773573D01*
X155111489Y-80694486D01*
X155111466Y-80635956D01*
X155111540Y-80544407D01*
X155111887Y-80472687D01*
X155112699Y-80418045D01*
X155114167Y-80377732D01*
X155116481Y-80348998D01*
X155119833Y-80329093D01*
X155124412Y-80315268D01*
X155130411Y-80304772D01*
X155134864Y-80298811D01*
X155146150Y-80284691D01*
X155156699Y-80274029D01*
X155168107Y-80267892D01*
X155181970Y-80267343D01*
X155199886Y-80273448D01*
G37*
X154549919Y-80274599D02*
X154618435Y-80286095D01*
X154671057Y-80303967D01*
X154705292Y-80327499D01*
X154714621Y-80340924D01*
X154724107Y-80372148D01*
X154717723Y-80400395D01*
X154697570Y-80427182D01*
X154666255Y-80439713D01*
X154620817Y-80438696D01*
X154585674Y-80431906D01*
X154507581Y-80418971D01*
X154427774Y-80417742D01*
X154338445Y-80428241D01*
X154313771Y-80432690D01*
X154230709Y-80456108D01*
X154165727Y-80490945D01*
X154119539Y-80536604D01*
X154092855Y-80592494D01*
X154087337Y-80621388D01*
X154090949Y-80680012D01*
X154114271Y-80731879D01*
X154155176Y-80775978D01*
X154211541Y-80811299D01*
X154281240Y-80836829D01*
X154362148Y-80851559D01*
X154452140Y-80854478D01*
X154549090Y-80844575D01*
X154554564Y-80843641D01*
X154593125Y-80836459D01*
X154614506Y-80829521D01*
X154623773Y-80819227D01*
X154625994Y-80801976D01*
X154626044Y-80792841D01*
X154626044Y-80754489D01*
X154557569Y-80754489D01*
X154497100Y-80750347D01*
X154455835Y-80737147D01*
X154431825Y-80713730D01*
X154423123Y-80678936D01*
X154423017Y-80674394D01*
X154428108Y-80644654D01*
X154445567Y-80623419D01*
X154478061Y-80609366D01*
X154528257Y-80601173D01*
X154576877Y-80598161D01*
X154647544Y-80596433D01*
X154698802Y-80599070D01*
X154733761Y-80608800D01*
X154755530Y-80628353D01*
X154767220Y-80660456D01*
X154771940Y-80707838D01*
X154772800Y-80770071D01*
X154771391Y-80839535D01*
X154767152Y-80886786D01*
X154760064Y-80912012D01*
X154758689Y-80913988D01*
X154719772Y-80945508D01*
X154662714Y-80970470D01*
X154591131Y-80988340D01*
X154508642Y-80998586D01*
X154418861Y-81000673D01*
X154325408Y-80994068D01*
X154270444Y-80985956D01*
X154184234Y-80961554D01*
X154104108Y-80921662D01*
X154037023Y-80869887D01*
X154026827Y-80859539D01*
X153993698Y-80816035D01*
X153963806Y-80762118D01*
X153940643Y-80705592D01*
X153927702Y-80654259D01*
X153926142Y-80634544D01*
X153932782Y-80593419D01*
X153950432Y-80542252D01*
X153975703Y-80488394D01*
X154005211Y-80439195D01*
X154031281Y-80406334D01*
X154092235Y-80357452D01*
X154171031Y-80318545D01*
X154264843Y-80290494D01*
X154370850Y-80274179D01*
X154468000Y-80270192D01*
X154549919Y-80274599D01*
G36*
X154549919Y-80274599D02*
G01*
X154618435Y-80286095D01*
X154671057Y-80303967D01*
X154705292Y-80327499D01*
X154714621Y-80340924D01*
X154724107Y-80372148D01*
X154717723Y-80400395D01*
X154697570Y-80427182D01*
X154666255Y-80439713D01*
X154620817Y-80438696D01*
X154585674Y-80431906D01*
X154507581Y-80418971D01*
X154427774Y-80417742D01*
X154338445Y-80428241D01*
X154313771Y-80432690D01*
X154230709Y-80456108D01*
X154165727Y-80490945D01*
X154119539Y-80536604D01*
X154092855Y-80592494D01*
X154087337Y-80621388D01*
X154090949Y-80680012D01*
X154114271Y-80731879D01*
X154155176Y-80775978D01*
X154211541Y-80811299D01*
X154281240Y-80836829D01*
X154362148Y-80851559D01*
X154452140Y-80854478D01*
X154549090Y-80844575D01*
X154554564Y-80843641D01*
X154593125Y-80836459D01*
X154614506Y-80829521D01*
X154623773Y-80819227D01*
X154625994Y-80801976D01*
X154626044Y-80792841D01*
X154626044Y-80754489D01*
X154557569Y-80754489D01*
X154497100Y-80750347D01*
X154455835Y-80737147D01*
X154431825Y-80713730D01*
X154423123Y-80678936D01*
X154423017Y-80674394D01*
X154428108Y-80644654D01*
X154445567Y-80623419D01*
X154478061Y-80609366D01*
X154528257Y-80601173D01*
X154576877Y-80598161D01*
X154647544Y-80596433D01*
X154698802Y-80599070D01*
X154733761Y-80608800D01*
X154755530Y-80628353D01*
X154767220Y-80660456D01*
X154771940Y-80707838D01*
X154772800Y-80770071D01*
X154771391Y-80839535D01*
X154767152Y-80886786D01*
X154760064Y-80912012D01*
X154758689Y-80913988D01*
X154719772Y-80945508D01*
X154662714Y-80970470D01*
X154591131Y-80988340D01*
X154508642Y-80998586D01*
X154418861Y-81000673D01*
X154325408Y-80994068D01*
X154270444Y-80985956D01*
X154184234Y-80961554D01*
X154104108Y-80921662D01*
X154037023Y-80869887D01*
X154026827Y-80859539D01*
X153993698Y-80816035D01*
X153963806Y-80762118D01*
X153940643Y-80705592D01*
X153927702Y-80654259D01*
X153926142Y-80634544D01*
X153932782Y-80593419D01*
X153950432Y-80542252D01*
X153975703Y-80488394D01*
X154005211Y-80439195D01*
X154031281Y-80406334D01*
X154092235Y-80357452D01*
X154171031Y-80318545D01*
X154264843Y-80290494D01*
X154370850Y-80274179D01*
X154468000Y-80270192D01*
X154549919Y-80274599D01*
G37*
X156730343Y-80269260D02*
X156806701Y-80270174D01*
X156865217Y-80272311D01*
X156908255Y-80276175D01*
X156938183Y-80282267D01*
X156957368Y-80291090D01*
X156968176Y-80303146D01*
X156972973Y-80318939D01*
X156974127Y-80338970D01*
X156974133Y-80341335D01*
X156973131Y-80363992D01*
X156968396Y-80381503D01*
X156957333Y-80394574D01*
X156937348Y-80403913D01*
X156905846Y-80410227D01*
X156860232Y-80414222D01*
X156797913Y-80416606D01*
X156716293Y-80418086D01*
X156691277Y-80418414D01*
X156449200Y-80421467D01*
X156445814Y-80486378D01*
X156442429Y-80551289D01*
X156610576Y-80551289D01*
X156676266Y-80551531D01*
X156723172Y-80552556D01*
X156755083Y-80554811D01*
X156775791Y-80558742D01*
X156789084Y-80564798D01*
X156798755Y-80573424D01*
X156798817Y-80573493D01*
X156816356Y-80607112D01*
X156815722Y-80643448D01*
X156797314Y-80674423D01*
X156793671Y-80677607D01*
X156780741Y-80685812D01*
X156763024Y-80691521D01*
X156736570Y-80695162D01*
X156697432Y-80697167D01*
X156641662Y-80697964D01*
X156605994Y-80698045D01*
X156443555Y-80698045D01*
X156443555Y-80856089D01*
X156690161Y-80856089D01*
X156771580Y-80856231D01*
X156833410Y-80856814D01*
X156878637Y-80858068D01*
X156910248Y-80860227D01*
X156931231Y-80863523D01*
X156944573Y-80868189D01*
X156953261Y-80874457D01*
X156955450Y-80876733D01*
X156971614Y-80908280D01*
X156972797Y-80944168D01*
X156959536Y-80975285D01*
X156949043Y-80985271D01*
X156938129Y-80990769D01*
X156921217Y-80995022D01*
X156895633Y-80998180D01*
X156858701Y-81000392D01*
X156807746Y-81001806D01*
X156740094Y-81002572D01*
X156653069Y-81002838D01*
X156633394Y-81002845D01*
X156544911Y-81002787D01*
X156476227Y-81002467D01*
X156424564Y-81001667D01*
X156387145Y-81000167D01*
X156361190Y-80997749D01*
X156343922Y-80994194D01*
X156332562Y-80989282D01*
X156324332Y-80982795D01*
X156319817Y-80978138D01*
X156313021Y-80969889D01*
X156307712Y-80959669D01*
X156303706Y-80944800D01*
X156300821Y-80922602D01*
X156298874Y-80890393D01*
X156297681Y-80845496D01*
X156297061Y-80785228D01*
X156296829Y-80706911D01*
X156296800Y-80640994D01*
X156296871Y-80548628D01*
X156297208Y-80476117D01*
X156297998Y-80420737D01*
X156299426Y-80379765D01*
X156301679Y-80350478D01*
X156304943Y-80330153D01*
X156309404Y-80316066D01*
X156315248Y-80305495D01*
X156320197Y-80298811D01*
X156343594Y-80269067D01*
X156633774Y-80269067D01*
X156730343Y-80269260D01*
G36*
X156730343Y-80269260D02*
G01*
X156806701Y-80270174D01*
X156865217Y-80272311D01*
X156908255Y-80276175D01*
X156938183Y-80282267D01*
X156957368Y-80291090D01*
X156968176Y-80303146D01*
X156972973Y-80318939D01*
X156974127Y-80338970D01*
X156974133Y-80341335D01*
X156973131Y-80363992D01*
X156968396Y-80381503D01*
X156957333Y-80394574D01*
X156937348Y-80403913D01*
X156905846Y-80410227D01*
X156860232Y-80414222D01*
X156797913Y-80416606D01*
X156716293Y-80418086D01*
X156691277Y-80418414D01*
X156449200Y-80421467D01*
X156445814Y-80486378D01*
X156442429Y-80551289D01*
X156610576Y-80551289D01*
X156676266Y-80551531D01*
X156723172Y-80552556D01*
X156755083Y-80554811D01*
X156775791Y-80558742D01*
X156789084Y-80564798D01*
X156798755Y-80573424D01*
X156798817Y-80573493D01*
X156816356Y-80607112D01*
X156815722Y-80643448D01*
X156797314Y-80674423D01*
X156793671Y-80677607D01*
X156780741Y-80685812D01*
X156763024Y-80691521D01*
X156736570Y-80695162D01*
X156697432Y-80697167D01*
X156641662Y-80697964D01*
X156605994Y-80698045D01*
X156443555Y-80698045D01*
X156443555Y-80856089D01*
X156690161Y-80856089D01*
X156771580Y-80856231D01*
X156833410Y-80856814D01*
X156878637Y-80858068D01*
X156910248Y-80860227D01*
X156931231Y-80863523D01*
X156944573Y-80868189D01*
X156953261Y-80874457D01*
X156955450Y-80876733D01*
X156971614Y-80908280D01*
X156972797Y-80944168D01*
X156959536Y-80975285D01*
X156949043Y-80985271D01*
X156938129Y-80990769D01*
X156921217Y-80995022D01*
X156895633Y-80998180D01*
X156858701Y-81000392D01*
X156807746Y-81001806D01*
X156740094Y-81002572D01*
X156653069Y-81002838D01*
X156633394Y-81002845D01*
X156544911Y-81002787D01*
X156476227Y-81002467D01*
X156424564Y-81001667D01*
X156387145Y-81000167D01*
X156361190Y-80997749D01*
X156343922Y-80994194D01*
X156332562Y-80989282D01*
X156324332Y-80982795D01*
X156319817Y-80978138D01*
X156313021Y-80969889D01*
X156307712Y-80959669D01*
X156303706Y-80944800D01*
X156300821Y-80922602D01*
X156298874Y-80890393D01*
X156297681Y-80845496D01*
X156297061Y-80785228D01*
X156296829Y-80706911D01*
X156296800Y-80640994D01*
X156296871Y-80548628D01*
X156297208Y-80476117D01*
X156297998Y-80420737D01*
X156299426Y-80379765D01*
X156301679Y-80350478D01*
X156304943Y-80330153D01*
X156309404Y-80316066D01*
X156315248Y-80305495D01*
X156320197Y-80298811D01*
X156343594Y-80269067D01*
X156633774Y-80269067D01*
X156730343Y-80269260D01*
G37*
X151787206Y-80269146D02*
X151856614Y-80269518D01*
X151909003Y-80270385D01*
X151947153Y-80271946D01*
X151973841Y-80274403D01*
X151991847Y-80277957D01*
X152003951Y-80282810D01*
X152012931Y-80289161D01*
X152016182Y-80292084D01*
X152035957Y-80323142D01*
X152039518Y-80358828D01*
X152026509Y-80390510D01*
X152020494Y-80396913D01*
X152010765Y-80403121D01*
X151995099Y-80407910D01*
X151970592Y-80411514D01*
X151934339Y-80414164D01*
X151883435Y-80416095D01*
X151814974Y-80417539D01*
X151752383Y-80418418D01*
X151504666Y-80421467D01*
X151501281Y-80486378D01*
X151497895Y-80551289D01*
X151666042Y-80551289D01*
X151739041Y-80551919D01*
X151792483Y-80554553D01*
X151829372Y-80560309D01*
X151852712Y-80570304D01*
X151865506Y-80585656D01*
X151870758Y-80607482D01*
X151871555Y-80627738D01*
X151869077Y-80652592D01*
X151859723Y-80670906D01*
X151840617Y-80683637D01*
X151808882Y-80691741D01*
X151761641Y-80696176D01*
X151696017Y-80697899D01*
X151660199Y-80698045D01*
X151499022Y-80698045D01*
X151499022Y-80856089D01*
X151747378Y-80856089D01*
X151828787Y-80856202D01*
X151890658Y-80856712D01*
X151936032Y-80857870D01*
X151967946Y-80859930D01*
X151989441Y-80863146D01*
X152003557Y-80867772D01*
X152013332Y-80874059D01*
X152018311Y-80878667D01*
X152035390Y-80905560D01*
X152040889Y-80929467D01*
X152033037Y-80958667D01*
X152018311Y-80980267D01*
X152010454Y-80987066D01*
X152000312Y-80992346D01*
X151985156Y-80996298D01*
X151962259Y-80999113D01*
X151928891Y-81000982D01*
X151882325Y-81002098D01*
X151819833Y-81002651D01*
X151738686Y-81002833D01*
X151696578Y-81002845D01*
X151606402Y-81002765D01*
X151536076Y-81002398D01*
X151482871Y-81001552D01*
X151444060Y-81000036D01*
X151416913Y-80997659D01*
X151398702Y-80994229D01*
X151386700Y-80989554D01*
X151378178Y-80983444D01*
X151374844Y-80980267D01*
X151368245Y-80972670D01*
X151363073Y-80962870D01*
X151359154Y-80948239D01*
X151356316Y-80926152D01*
X151354385Y-80893982D01*
X151353188Y-80849103D01*
X151352552Y-80788889D01*
X151352303Y-80710713D01*
X151352266Y-80637923D01*
X151352300Y-80544707D01*
X151352535Y-80471431D01*
X151353170Y-80415458D01*
X151354406Y-80374151D01*
X151356444Y-80344872D01*
X151359483Y-80324984D01*
X151363723Y-80311850D01*
X151369365Y-80302832D01*
X151376609Y-80295293D01*
X151378394Y-80293612D01*
X151387055Y-80286172D01*
X151397118Y-80280409D01*
X151411375Y-80276112D01*
X151432617Y-80273064D01*
X151463636Y-80271051D01*
X151507223Y-80269860D01*
X151566169Y-80269275D01*
X151643266Y-80269083D01*
X151697999Y-80269067D01*
X151787206Y-80269146D01*
G36*
X151787206Y-80269146D02*
G01*
X151856614Y-80269518D01*
X151909003Y-80270385D01*
X151947153Y-80271946D01*
X151973841Y-80274403D01*
X151991847Y-80277957D01*
X152003951Y-80282810D01*
X152012931Y-80289161D01*
X152016182Y-80292084D01*
X152035957Y-80323142D01*
X152039518Y-80358828D01*
X152026509Y-80390510D01*
X152020494Y-80396913D01*
X152010765Y-80403121D01*
X151995099Y-80407910D01*
X151970592Y-80411514D01*
X151934339Y-80414164D01*
X151883435Y-80416095D01*
X151814974Y-80417539D01*
X151752383Y-80418418D01*
X151504666Y-80421467D01*
X151501281Y-80486378D01*
X151497895Y-80551289D01*
X151666042Y-80551289D01*
X151739041Y-80551919D01*
X151792483Y-80554553D01*
X151829372Y-80560309D01*
X151852712Y-80570304D01*
X151865506Y-80585656D01*
X151870758Y-80607482D01*
X151871555Y-80627738D01*
X151869077Y-80652592D01*
X151859723Y-80670906D01*
X151840617Y-80683637D01*
X151808882Y-80691741D01*
X151761641Y-80696176D01*
X151696017Y-80697899D01*
X151660199Y-80698045D01*
X151499022Y-80698045D01*
X151499022Y-80856089D01*
X151747378Y-80856089D01*
X151828787Y-80856202D01*
X151890658Y-80856712D01*
X151936032Y-80857870D01*
X151967946Y-80859930D01*
X151989441Y-80863146D01*
X152003557Y-80867772D01*
X152013332Y-80874059D01*
X152018311Y-80878667D01*
X152035390Y-80905560D01*
X152040889Y-80929467D01*
X152033037Y-80958667D01*
X152018311Y-80980267D01*
X152010454Y-80987066D01*
X152000312Y-80992346D01*
X151985156Y-80996298D01*
X151962259Y-80999113D01*
X151928891Y-81000982D01*
X151882325Y-81002098D01*
X151819833Y-81002651D01*
X151738686Y-81002833D01*
X151696578Y-81002845D01*
X151606402Y-81002765D01*
X151536076Y-81002398D01*
X151482871Y-81001552D01*
X151444060Y-81000036D01*
X151416913Y-80997659D01*
X151398702Y-80994229D01*
X151386700Y-80989554D01*
X151378178Y-80983444D01*
X151374844Y-80980267D01*
X151368245Y-80972670D01*
X151363073Y-80962870D01*
X151359154Y-80948239D01*
X151356316Y-80926152D01*
X151354385Y-80893982D01*
X151353188Y-80849103D01*
X151352552Y-80788889D01*
X151352303Y-80710713D01*
X151352266Y-80637923D01*
X151352300Y-80544707D01*
X151352535Y-80471431D01*
X151353170Y-80415458D01*
X151354406Y-80374151D01*
X151356444Y-80344872D01*
X151359483Y-80324984D01*
X151363723Y-80311850D01*
X151369365Y-80302832D01*
X151376609Y-80295293D01*
X151378394Y-80293612D01*
X151387055Y-80286172D01*
X151397118Y-80280409D01*
X151411375Y-80276112D01*
X151432617Y-80273064D01*
X151463636Y-80271051D01*
X151507223Y-80269860D01*
X151566169Y-80269275D01*
X151643266Y-80269083D01*
X151697999Y-80269067D01*
X151787206Y-80269146D01*
G37*
X160244665Y-80271034D02*
X160264255Y-80278035D01*
X160265010Y-80278377D01*
X160291613Y-80298678D01*
X160306270Y-80319561D01*
X160309138Y-80329352D01*
X160308996Y-80342361D01*
X160304961Y-80360895D01*
X160296146Y-80387257D01*
X160281669Y-80423752D01*
X160260645Y-80472687D01*
X160232188Y-80536365D01*
X160195415Y-80617093D01*
X160175175Y-80661216D01*
X160138625Y-80739985D01*
X160104315Y-80812423D01*
X160073552Y-80875880D01*
X160047648Y-80927708D01*
X160027910Y-80965259D01*
X160015650Y-80985884D01*
X160013224Y-80988733D01*
X159982183Y-81001302D01*
X159947121Y-80999619D01*
X159919000Y-80984332D01*
X159917854Y-80983089D01*
X159906668Y-80966154D01*
X159887904Y-80933170D01*
X159863875Y-80888380D01*
X159836897Y-80836032D01*
X159827201Y-80816742D01*
X159754014Y-80670150D01*
X159674240Y-80829393D01*
X159645767Y-80884415D01*
X159619350Y-80932132D01*
X159597148Y-80968893D01*
X159581319Y-80991044D01*
X159575954Y-80995741D01*
X159534257Y-81002102D01*
X159499849Y-80988733D01*
X159489728Y-80974446D01*
X159472214Y-80942692D01*
X159448735Y-80896597D01*
X159420720Y-80839285D01*
X159389599Y-80773880D01*
X159356799Y-80703507D01*
X159323750Y-80631291D01*
X159291881Y-80560355D01*
X159262619Y-80493825D01*
X159237395Y-80434826D01*
X159217636Y-80386481D01*
X159204772Y-80351915D01*
X159200231Y-80334253D01*
X159200277Y-80333613D01*
X159211326Y-80311388D01*
X159233410Y-80288753D01*
X159234710Y-80287768D01*
X159261853Y-80272425D01*
X159286958Y-80272574D01*
X159296368Y-80275466D01*
X159307834Y-80281718D01*
X159320010Y-80294014D01*
X159334357Y-80314908D01*
X159352336Y-80346949D01*
X159375407Y-80392688D01*
X159405030Y-80454677D01*
X159431745Y-80511898D01*
X159462480Y-80578226D01*
X159490021Y-80637874D01*
X159512938Y-80687725D01*
X159529798Y-80724664D01*
X159539173Y-80745573D01*
X159540540Y-80748845D01*
X159546689Y-80743497D01*
X159560822Y-80721109D01*
X159581057Y-80684946D01*
X159605515Y-80638277D01*
X159615248Y-80619022D01*
X159648217Y-80554004D01*
X159673643Y-80506654D01*
X159693612Y-80474219D01*
X159710210Y-80453946D01*
X159725524Y-80443082D01*
X159741640Y-80438875D01*
X159752143Y-80438400D01*
X159770670Y-80440042D01*
X159786904Y-80446831D01*
X159803035Y-80461566D01*
X159821251Y-80487044D01*
X159843739Y-80526061D01*
X159872689Y-80581414D01*
X159888662Y-80612903D01*
X159914570Y-80663087D01*
X159937167Y-80704704D01*
X159954458Y-80734242D01*
X159964450Y-80748189D01*
X159965809Y-80748770D01*
X159972261Y-80737793D01*
X159986708Y-80709290D01*
X160007703Y-80666244D01*
X160033797Y-80611638D01*
X160063546Y-80548454D01*
X160078180Y-80517071D01*
X160116250Y-80436078D01*
X160146905Y-80373756D01*
X160171737Y-80328071D01*
X160192337Y-80296989D01*
X160210298Y-80278478D01*
X160227210Y-80270504D01*
X160244665Y-80271034D01*
G36*
X160244665Y-80271034D02*
G01*
X160264255Y-80278035D01*
X160265010Y-80278377D01*
X160291613Y-80298678D01*
X160306270Y-80319561D01*
X160309138Y-80329352D01*
X160308996Y-80342361D01*
X160304961Y-80360895D01*
X160296146Y-80387257D01*
X160281669Y-80423752D01*
X160260645Y-80472687D01*
X160232188Y-80536365D01*
X160195415Y-80617093D01*
X160175175Y-80661216D01*
X160138625Y-80739985D01*
X160104315Y-80812423D01*
X160073552Y-80875880D01*
X160047648Y-80927708D01*
X160027910Y-80965259D01*
X160015650Y-80985884D01*
X160013224Y-80988733D01*
X159982183Y-81001302D01*
X159947121Y-80999619D01*
X159919000Y-80984332D01*
X159917854Y-80983089D01*
X159906668Y-80966154D01*
X159887904Y-80933170D01*
X159863875Y-80888380D01*
X159836897Y-80836032D01*
X159827201Y-80816742D01*
X159754014Y-80670150D01*
X159674240Y-80829393D01*
X159645767Y-80884415D01*
X159619350Y-80932132D01*
X159597148Y-80968893D01*
X159581319Y-80991044D01*
X159575954Y-80995741D01*
X159534257Y-81002102D01*
X159499849Y-80988733D01*
X159489728Y-80974446D01*
X159472214Y-80942692D01*
X159448735Y-80896597D01*
X159420720Y-80839285D01*
X159389599Y-80773880D01*
X159356799Y-80703507D01*
X159323750Y-80631291D01*
X159291881Y-80560355D01*
X159262619Y-80493825D01*
X159237395Y-80434826D01*
X159217636Y-80386481D01*
X159204772Y-80351915D01*
X159200231Y-80334253D01*
X159200277Y-80333613D01*
X159211326Y-80311388D01*
X159233410Y-80288753D01*
X159234710Y-80287768D01*
X159261853Y-80272425D01*
X159286958Y-80272574D01*
X159296368Y-80275466D01*
X159307834Y-80281718D01*
X159320010Y-80294014D01*
X159334357Y-80314908D01*
X159352336Y-80346949D01*
X159375407Y-80392688D01*
X159405030Y-80454677D01*
X159431745Y-80511898D01*
X159462480Y-80578226D01*
X159490021Y-80637874D01*
X159512938Y-80687725D01*
X159529798Y-80724664D01*
X159539173Y-80745573D01*
X159540540Y-80748845D01*
X159546689Y-80743497D01*
X159560822Y-80721109D01*
X159581057Y-80684946D01*
X159605515Y-80638277D01*
X159615248Y-80619022D01*
X159648217Y-80554004D01*
X159673643Y-80506654D01*
X159693612Y-80474219D01*
X159710210Y-80453946D01*
X159725524Y-80443082D01*
X159741640Y-80438875D01*
X159752143Y-80438400D01*
X159770670Y-80440042D01*
X159786904Y-80446831D01*
X159803035Y-80461566D01*
X159821251Y-80487044D01*
X159843739Y-80526061D01*
X159872689Y-80581414D01*
X159888662Y-80612903D01*
X159914570Y-80663087D01*
X159937167Y-80704704D01*
X159954458Y-80734242D01*
X159964450Y-80748189D01*
X159965809Y-80748770D01*
X159972261Y-80737793D01*
X159986708Y-80709290D01*
X160007703Y-80666244D01*
X160033797Y-80611638D01*
X160063546Y-80548454D01*
X160078180Y-80517071D01*
X160116250Y-80436078D01*
X160146905Y-80373756D01*
X160171737Y-80328071D01*
X160192337Y-80296989D01*
X160210298Y-80278478D01*
X160227210Y-80270504D01*
X160244665Y-80271034D01*
G37*
X152808297Y-80270351D02*
X152883112Y-80275581D01*
X152952694Y-80283750D01*
X153012998Y-80294550D01*
X153059980Y-80307673D01*
X153089594Y-80322813D01*
X153094140Y-80327269D01*
X153109946Y-80361850D01*
X153105153Y-80397351D01*
X153080636Y-80427725D01*
X153079466Y-80428596D01*
X153065046Y-80437954D01*
X153049992Y-80442876D01*
X153028995Y-80443473D01*
X152996743Y-80439861D01*
X152947927Y-80432154D01*
X152944000Y-80431505D01*
X152871261Y-80422569D01*
X152792783Y-80418161D01*
X152714073Y-80418119D01*
X152640639Y-80422279D01*
X152577989Y-80430479D01*
X152531630Y-80442557D01*
X152528584Y-80443771D01*
X152494952Y-80462615D01*
X152483136Y-80481685D01*
X152492386Y-80500439D01*
X152521953Y-80518337D01*
X152571089Y-80534837D01*
X152639043Y-80549396D01*
X152684355Y-80556406D01*
X152778544Y-80569889D01*
X152853456Y-80582214D01*
X152912283Y-80594449D01*
X152958215Y-80607661D01*
X152994445Y-80622917D01*
X153024162Y-80641285D01*
X153050558Y-80663831D01*
X153071770Y-80685971D01*
X153096935Y-80716819D01*
X153109319Y-80743345D01*
X153113192Y-80776026D01*
X153113333Y-80787995D01*
X153110424Y-80827712D01*
X153098798Y-80857259D01*
X153078677Y-80883486D01*
X153037784Y-80923576D01*
X152992183Y-80954149D01*
X152938487Y-80976203D01*
X152873308Y-80990735D01*
X152793256Y-80998741D01*
X152694943Y-81001218D01*
X152678711Y-81001177D01*
X152613151Y-80999818D01*
X152548134Y-80996730D01*
X152490748Y-80992356D01*
X152448078Y-80987140D01*
X152444628Y-80986541D01*
X152402204Y-80976491D01*
X152366220Y-80963796D01*
X152345850Y-80952190D01*
X152326893Y-80921572D01*
X152325573Y-80885918D01*
X152341915Y-80854144D01*
X152345571Y-80850551D01*
X152360685Y-80839876D01*
X152379585Y-80835276D01*
X152408838Y-80836059D01*
X152444349Y-80840127D01*
X152484030Y-80843762D01*
X152539655Y-80846828D01*
X152604594Y-80849053D01*
X152672215Y-80850164D01*
X152690000Y-80850237D01*
X152757872Y-80849964D01*
X152807546Y-80848646D01*
X152843390Y-80845827D01*
X152869776Y-80841050D01*
X152891074Y-80833857D01*
X152903874Y-80827867D01*
X152932000Y-80811233D01*
X152949932Y-80796168D01*
X152952553Y-80791897D01*
X152947024Y-80774263D01*
X152920740Y-80757192D01*
X152875522Y-80741458D01*
X152813192Y-80727838D01*
X152794829Y-80724804D01*
X152698910Y-80709738D01*
X152622359Y-80697146D01*
X152562220Y-80686111D01*
X152515540Y-80675720D01*
X152479363Y-80665056D01*
X152450735Y-80653205D01*
X152426702Y-80639251D01*
X152404308Y-80622281D01*
X152380598Y-80601378D01*
X152372620Y-80594049D01*
X152344647Y-80566699D01*
X152329840Y-80545029D01*
X152324048Y-80520232D01*
X152323111Y-80488983D01*
X152333425Y-80427705D01*
X152364248Y-80375640D01*
X152415405Y-80332958D01*
X152486717Y-80299825D01*
X152537600Y-80284964D01*
X152592900Y-80275366D01*
X152659147Y-80269936D01*
X152732294Y-80268367D01*
X152808297Y-80270351D01*
G36*
X152808297Y-80270351D02*
G01*
X152883112Y-80275581D01*
X152952694Y-80283750D01*
X153012998Y-80294550D01*
X153059980Y-80307673D01*
X153089594Y-80322813D01*
X153094140Y-80327269D01*
X153109946Y-80361850D01*
X153105153Y-80397351D01*
X153080636Y-80427725D01*
X153079466Y-80428596D01*
X153065046Y-80437954D01*
X153049992Y-80442876D01*
X153028995Y-80443473D01*
X152996743Y-80439861D01*
X152947927Y-80432154D01*
X152944000Y-80431505D01*
X152871261Y-80422569D01*
X152792783Y-80418161D01*
X152714073Y-80418119D01*
X152640639Y-80422279D01*
X152577989Y-80430479D01*
X152531630Y-80442557D01*
X152528584Y-80443771D01*
X152494952Y-80462615D01*
X152483136Y-80481685D01*
X152492386Y-80500439D01*
X152521953Y-80518337D01*
X152571089Y-80534837D01*
X152639043Y-80549396D01*
X152684355Y-80556406D01*
X152778544Y-80569889D01*
X152853456Y-80582214D01*
X152912283Y-80594449D01*
X152958215Y-80607661D01*
X152994445Y-80622917D01*
X153024162Y-80641285D01*
X153050558Y-80663831D01*
X153071770Y-80685971D01*
X153096935Y-80716819D01*
X153109319Y-80743345D01*
X153113192Y-80776026D01*
X153113333Y-80787995D01*
X153110424Y-80827712D01*
X153098798Y-80857259D01*
X153078677Y-80883486D01*
X153037784Y-80923576D01*
X152992183Y-80954149D01*
X152938487Y-80976203D01*
X152873308Y-80990735D01*
X152793256Y-80998741D01*
X152694943Y-81001218D01*
X152678711Y-81001177D01*
X152613151Y-80999818D01*
X152548134Y-80996730D01*
X152490748Y-80992356D01*
X152448078Y-80987140D01*
X152444628Y-80986541D01*
X152402204Y-80976491D01*
X152366220Y-80963796D01*
X152345850Y-80952190D01*
X152326893Y-80921572D01*
X152325573Y-80885918D01*
X152341915Y-80854144D01*
X152345571Y-80850551D01*
X152360685Y-80839876D01*
X152379585Y-80835276D01*
X152408838Y-80836059D01*
X152444349Y-80840127D01*
X152484030Y-80843762D01*
X152539655Y-80846828D01*
X152604594Y-80849053D01*
X152672215Y-80850164D01*
X152690000Y-80850237D01*
X152757872Y-80849964D01*
X152807546Y-80848646D01*
X152843390Y-80845827D01*
X152869776Y-80841050D01*
X152891074Y-80833857D01*
X152903874Y-80827867D01*
X152932000Y-80811233D01*
X152949932Y-80796168D01*
X152952553Y-80791897D01*
X152947024Y-80774263D01*
X152920740Y-80757192D01*
X152875522Y-80741458D01*
X152813192Y-80727838D01*
X152794829Y-80724804D01*
X152698910Y-80709738D01*
X152622359Y-80697146D01*
X152562220Y-80686111D01*
X152515540Y-80675720D01*
X152479363Y-80665056D01*
X152450735Y-80653205D01*
X152426702Y-80639251D01*
X152404308Y-80622281D01*
X152380598Y-80601378D01*
X152372620Y-80594049D01*
X152344647Y-80566699D01*
X152329840Y-80545029D01*
X152324048Y-80520232D01*
X152323111Y-80488983D01*
X152333425Y-80427705D01*
X152364248Y-80375640D01*
X152415405Y-80332958D01*
X152486717Y-80299825D01*
X152537600Y-80284964D01*
X152592900Y-80275366D01*
X152659147Y-80269936D01*
X152732294Y-80268367D01*
X152808297Y-80270351D01*
G37*
X156828429Y-75949071D02*
X156988570Y-75970245D01*
X157152510Y-76010385D01*
X157322313Y-76069889D01*
X157500043Y-76149154D01*
X157511310Y-76154699D01*
X157569005Y-76182725D01*
X157620552Y-76206802D01*
X157662191Y-76225249D01*
X157690162Y-76236386D01*
X157699733Y-76238933D01*
X157718950Y-76243941D01*
X157723561Y-76248147D01*
X157718458Y-76258580D01*
X157702418Y-76284868D01*
X157677288Y-76324257D01*
X157644914Y-76373991D01*
X157607143Y-76431315D01*
X157565822Y-76493476D01*
X157522798Y-76557718D01*
X157479917Y-76621285D01*
X157439026Y-76681425D01*
X157401971Y-76735380D01*
X157370600Y-76780397D01*
X157346759Y-76813721D01*
X157332294Y-76832597D01*
X157330309Y-76834787D01*
X157320191Y-76830138D01*
X157297850Y-76812962D01*
X157267280Y-76786440D01*
X157251536Y-76771964D01*
X157155047Y-76696682D01*
X157048336Y-76641241D01*
X156932832Y-76606141D01*
X156809962Y-76591880D01*
X156740561Y-76593051D01*
X156619423Y-76610212D01*
X156510205Y-76646094D01*
X156412582Y-76700959D01*
X156326228Y-76775070D01*
X156250815Y-76868688D01*
X156186018Y-76982076D01*
X156148601Y-77068667D01*
X156104748Y-77204366D01*
X156072428Y-77351850D01*
X156051557Y-77507314D01*
X156042051Y-77666956D01*
X156043827Y-77826973D01*
X156056803Y-77983561D01*
X156080894Y-78132918D01*
X156116018Y-78271240D01*
X156162092Y-78394724D01*
X156178373Y-78428978D01*
X156246620Y-78543064D01*
X156327079Y-78639557D01*
X156418570Y-78717670D01*
X156519911Y-78776617D01*
X156629920Y-78815612D01*
X156747415Y-78833868D01*
X156788883Y-78835211D01*
X156910441Y-78824290D01*
X157030878Y-78791474D01*
X157148666Y-78737439D01*
X157262277Y-78662865D01*
X157353685Y-78584539D01*
X157400215Y-78540008D01*
X157581483Y-78837271D01*
X157626580Y-78911433D01*
X157667819Y-78979646D01*
X157703735Y-79039459D01*
X157732866Y-79088420D01*
X157753750Y-79124079D01*
X157764924Y-79143984D01*
X157766375Y-79147079D01*
X157758146Y-79156718D01*
X157732567Y-79173999D01*
X157692873Y-79197283D01*
X157642297Y-79224934D01*
X157584074Y-79255315D01*
X157521437Y-79286790D01*
X157457621Y-79317722D01*
X157395860Y-79346473D01*
X157339388Y-79371408D01*
X157291438Y-79390889D01*
X157267986Y-79399318D01*
X157134221Y-79437133D01*
X156996327Y-79462136D01*
X156848622Y-79475140D01*
X156721833Y-79477468D01*
X156653878Y-79476373D01*
X156588277Y-79474275D01*
X156530847Y-79471434D01*
X156487403Y-79468106D01*
X156473298Y-79466422D01*
X156334284Y-79437587D01*
X156192757Y-79392468D01*
X156055275Y-79333750D01*
X155928394Y-79264120D01*
X155850889Y-79211441D01*
X155723481Y-79103239D01*
X155605178Y-78976671D01*
X155498172Y-78834866D01*
X155404652Y-78680951D01*
X155326810Y-78518053D01*
X155282956Y-78400756D01*
X155232708Y-78217128D01*
X155199209Y-78022581D01*
X155182449Y-77821325D01*
X155182416Y-77617568D01*
X155199101Y-77415521D01*
X155232493Y-77219392D01*
X155282580Y-77033391D01*
X155286397Y-77021803D01*
X155349281Y-76859750D01*
X155426028Y-76711832D01*
X155519242Y-76573865D01*
X155631527Y-76441661D01*
X155675392Y-76396399D01*
X155811534Y-76272457D01*
X155951491Y-76169915D01*
X156097411Y-76087656D01*
X156251442Y-76024564D01*
X156415732Y-75979523D01*
X156511289Y-75962033D01*
X156670023Y-75946466D01*
X156828429Y-75949071D01*
G36*
X156828429Y-75949071D02*
G01*
X156988570Y-75970245D01*
X157152510Y-76010385D01*
X157322313Y-76069889D01*
X157500043Y-76149154D01*
X157511310Y-76154699D01*
X157569005Y-76182725D01*
X157620552Y-76206802D01*
X157662191Y-76225249D01*
X157690162Y-76236386D01*
X157699733Y-76238933D01*
X157718950Y-76243941D01*
X157723561Y-76248147D01*
X157718458Y-76258580D01*
X157702418Y-76284868D01*
X157677288Y-76324257D01*
X157644914Y-76373991D01*
X157607143Y-76431315D01*
X157565822Y-76493476D01*
X157522798Y-76557718D01*
X157479917Y-76621285D01*
X157439026Y-76681425D01*
X157401971Y-76735380D01*
X157370600Y-76780397D01*
X157346759Y-76813721D01*
X157332294Y-76832597D01*
X157330309Y-76834787D01*
X157320191Y-76830138D01*
X157297850Y-76812962D01*
X157267280Y-76786440D01*
X157251536Y-76771964D01*
X157155047Y-76696682D01*
X157048336Y-76641241D01*
X156932832Y-76606141D01*
X156809962Y-76591880D01*
X156740561Y-76593051D01*
X156619423Y-76610212D01*
X156510205Y-76646094D01*
X156412582Y-76700959D01*
X156326228Y-76775070D01*
X156250815Y-76868688D01*
X156186018Y-76982076D01*
X156148601Y-77068667D01*
X156104748Y-77204366D01*
X156072428Y-77351850D01*
X156051557Y-77507314D01*
X156042051Y-77666956D01*
X156043827Y-77826973D01*
X156056803Y-77983561D01*
X156080894Y-78132918D01*
X156116018Y-78271240D01*
X156162092Y-78394724D01*
X156178373Y-78428978D01*
X156246620Y-78543064D01*
X156327079Y-78639557D01*
X156418570Y-78717670D01*
X156519911Y-78776617D01*
X156629920Y-78815612D01*
X156747415Y-78833868D01*
X156788883Y-78835211D01*
X156910441Y-78824290D01*
X157030878Y-78791474D01*
X157148666Y-78737439D01*
X157262277Y-78662865D01*
X157353685Y-78584539D01*
X157400215Y-78540008D01*
X157581483Y-78837271D01*
X157626580Y-78911433D01*
X157667819Y-78979646D01*
X157703735Y-79039459D01*
X157732866Y-79088420D01*
X157753750Y-79124079D01*
X157764924Y-79143984D01*
X157766375Y-79147079D01*
X157758146Y-79156718D01*
X157732567Y-79173999D01*
X157692873Y-79197283D01*
X157642297Y-79224934D01*
X157584074Y-79255315D01*
X157521437Y-79286790D01*
X157457621Y-79317722D01*
X157395860Y-79346473D01*
X157339388Y-79371408D01*
X157291438Y-79390889D01*
X157267986Y-79399318D01*
X157134221Y-79437133D01*
X156996327Y-79462136D01*
X156848622Y-79475140D01*
X156721833Y-79477468D01*
X156653878Y-79476373D01*
X156588277Y-79474275D01*
X156530847Y-79471434D01*
X156487403Y-79468106D01*
X156473298Y-79466422D01*
X156334284Y-79437587D01*
X156192757Y-79392468D01*
X156055275Y-79333750D01*
X155928394Y-79264120D01*
X155850889Y-79211441D01*
X155723481Y-79103239D01*
X155605178Y-78976671D01*
X155498172Y-78834866D01*
X155404652Y-78680951D01*
X155326810Y-78518053D01*
X155282956Y-78400756D01*
X155232708Y-78217128D01*
X155199209Y-78022581D01*
X155182449Y-77821325D01*
X155182416Y-77617568D01*
X155199101Y-77415521D01*
X155232493Y-77219392D01*
X155282580Y-77033391D01*
X155286397Y-77021803D01*
X155349281Y-76859750D01*
X155426028Y-76711832D01*
X155519242Y-76573865D01*
X155631527Y-76441661D01*
X155675392Y-76396399D01*
X155811534Y-76272457D01*
X155951491Y-76169915D01*
X156097411Y-76087656D01*
X156251442Y-76024564D01*
X156415732Y-75979523D01*
X156511289Y-75962033D01*
X156670023Y-75946466D01*
X156828429Y-75949071D01*
G37*
X162686507Y-77472245D02*
X162686526Y-77706662D01*
X162686552Y-77919603D01*
X162686625Y-78112168D01*
X162686782Y-78285459D01*
X162687064Y-78440576D01*
X162687509Y-78578620D01*
X162688156Y-78700692D01*
X162689045Y-78807894D01*
X162690213Y-78901326D01*
X162691701Y-78982090D01*
X162693546Y-79051286D01*
X162695789Y-79110015D01*
X162698469Y-79159379D01*
X162701623Y-79200478D01*
X162705292Y-79234413D01*
X162709513Y-79262286D01*
X162714327Y-79285198D01*
X162719773Y-79304249D01*
X162725888Y-79320540D01*
X162732712Y-79335173D01*
X162740285Y-79349249D01*
X162748645Y-79363868D01*
X162753839Y-79372974D01*
X162788104Y-79433689D01*
X161929955Y-79433689D01*
X161929955Y-79337733D01*
X161929224Y-79294370D01*
X161927272Y-79261205D01*
X161924463Y-79243424D01*
X161923221Y-79241778D01*
X161911799Y-79248662D01*
X161889084Y-79266505D01*
X161866385Y-79285879D01*
X161811800Y-79326614D01*
X161742321Y-79367617D01*
X161665270Y-79405123D01*
X161587965Y-79435364D01*
X161557113Y-79445012D01*
X161488616Y-79459578D01*
X161405764Y-79469539D01*
X161316371Y-79474583D01*
X161228248Y-79474396D01*
X161149207Y-79468666D01*
X161111511Y-79462858D01*
X160973414Y-79424797D01*
X160846113Y-79367073D01*
X160730292Y-79290211D01*
X160626637Y-79194739D01*
X160535833Y-79081179D01*
X160469031Y-78970381D01*
X160414164Y-78853625D01*
X160372163Y-78734276D01*
X160342167Y-78608283D01*
X160323311Y-78471594D01*
X160314732Y-78320158D01*
X160314006Y-78242711D01*
X160316100Y-78185934D01*
X161145217Y-78185934D01*
X161145424Y-78279002D01*
X161148337Y-78366692D01*
X161154000Y-78443772D01*
X161162455Y-78505009D01*
X161165038Y-78517350D01*
X161196840Y-78624633D01*
X161238498Y-78711658D01*
X161290363Y-78778642D01*
X161352781Y-78825805D01*
X161426100Y-78853365D01*
X161510669Y-78861541D01*
X161606835Y-78850551D01*
X161670311Y-78834829D01*
X161719454Y-78816639D01*
X161773583Y-78790791D01*
X161814244Y-78767089D01*
X161884800Y-78720721D01*
X161884800Y-77570530D01*
X161817392Y-77526962D01*
X161738867Y-77486040D01*
X161654681Y-77459389D01*
X161569557Y-77447465D01*
X161488216Y-77450722D01*
X161415380Y-77469615D01*
X161383426Y-77485184D01*
X161325501Y-77528181D01*
X161276544Y-77584953D01*
X161235390Y-77657575D01*
X161200874Y-77748121D01*
X161171833Y-77858666D01*
X161170552Y-77864533D01*
X161160381Y-77926788D01*
X161152739Y-78004594D01*
X161147670Y-78092720D01*
X161145217Y-78185934D01*
X160316100Y-78185934D01*
X160321857Y-78029895D01*
X160343802Y-77834059D01*
X160379786Y-77655332D01*
X160429759Y-77493845D01*
X160493668Y-77349726D01*
X160571462Y-77223106D01*
X160663089Y-77114115D01*
X160768497Y-77022883D01*
X160813662Y-76991932D01*
X160914611Y-76935785D01*
X161017901Y-76896174D01*
X161127989Y-76872014D01*
X161249330Y-76862219D01*
X161341836Y-76863265D01*
X161471490Y-76874231D01*
X161584084Y-76896046D01*
X161682875Y-76929714D01*
X161771121Y-76976236D01*
X161819986Y-77010448D01*
X161849353Y-77032362D01*
X161871043Y-77047333D01*
X161879253Y-77051733D01*
X161880868Y-77040904D01*
X161882159Y-77010251D01*
X161883138Y-76962526D01*
X161883817Y-76900479D01*
X161884210Y-76826862D01*
X161884330Y-76744427D01*
X161884188Y-76655925D01*
X161883797Y-76564107D01*
X161883171Y-76471724D01*
X161882320Y-76381528D01*
X161881260Y-76296271D01*
X161880001Y-76218703D01*
X161878556Y-76151576D01*
X161876938Y-76097641D01*
X161875161Y-76059650D01*
X161874669Y-76052667D01*
X161867092Y-75982251D01*
X161855531Y-75927102D01*
X161837792Y-75879981D01*
X161811682Y-75833647D01*
X161805415Y-75824067D01*
X161780983Y-75787378D01*
X162686311Y-75787378D01*
X162686507Y-77472245D01*
G36*
X162686507Y-77472245D02*
G01*
X162686526Y-77706662D01*
X162686552Y-77919603D01*
X162686625Y-78112168D01*
X162686782Y-78285459D01*
X162687064Y-78440576D01*
X162687509Y-78578620D01*
X162688156Y-78700692D01*
X162689045Y-78807894D01*
X162690213Y-78901326D01*
X162691701Y-78982090D01*
X162693546Y-79051286D01*
X162695789Y-79110015D01*
X162698469Y-79159379D01*
X162701623Y-79200478D01*
X162705292Y-79234413D01*
X162709513Y-79262286D01*
X162714327Y-79285198D01*
X162719773Y-79304249D01*
X162725888Y-79320540D01*
X162732712Y-79335173D01*
X162740285Y-79349249D01*
X162748645Y-79363868D01*
X162753839Y-79372974D01*
X162788104Y-79433689D01*
X161929955Y-79433689D01*
X161929955Y-79337733D01*
X161929224Y-79294370D01*
X161927272Y-79261205D01*
X161924463Y-79243424D01*
X161923221Y-79241778D01*
X161911799Y-79248662D01*
X161889084Y-79266505D01*
X161866385Y-79285879D01*
X161811800Y-79326614D01*
X161742321Y-79367617D01*
X161665270Y-79405123D01*
X161587965Y-79435364D01*
X161557113Y-79445012D01*
X161488616Y-79459578D01*
X161405764Y-79469539D01*
X161316371Y-79474583D01*
X161228248Y-79474396D01*
X161149207Y-79468666D01*
X161111511Y-79462858D01*
X160973414Y-79424797D01*
X160846113Y-79367073D01*
X160730292Y-79290211D01*
X160626637Y-79194739D01*
X160535833Y-79081179D01*
X160469031Y-78970381D01*
X160414164Y-78853625D01*
X160372163Y-78734276D01*
X160342167Y-78608283D01*
X160323311Y-78471594D01*
X160314732Y-78320158D01*
X160314006Y-78242711D01*
X160316100Y-78185934D01*
X161145217Y-78185934D01*
X161145424Y-78279002D01*
X161148337Y-78366692D01*
X161154000Y-78443772D01*
X161162455Y-78505009D01*
X161165038Y-78517350D01*
X161196840Y-78624633D01*
X161238498Y-78711658D01*
X161290363Y-78778642D01*
X161352781Y-78825805D01*
X161426100Y-78853365D01*
X161510669Y-78861541D01*
X161606835Y-78850551D01*
X161670311Y-78834829D01*
X161719454Y-78816639D01*
X161773583Y-78790791D01*
X161814244Y-78767089D01*
X161884800Y-78720721D01*
X161884800Y-77570530D01*
X161817392Y-77526962D01*
X161738867Y-77486040D01*
X161654681Y-77459389D01*
X161569557Y-77447465D01*
X161488216Y-77450722D01*
X161415380Y-77469615D01*
X161383426Y-77485184D01*
X161325501Y-77528181D01*
X161276544Y-77584953D01*
X161235390Y-77657575D01*
X161200874Y-77748121D01*
X161171833Y-77858666D01*
X161170552Y-77864533D01*
X161160381Y-77926788D01*
X161152739Y-78004594D01*
X161147670Y-78092720D01*
X161145217Y-78185934D01*
X160316100Y-78185934D01*
X160321857Y-78029895D01*
X160343802Y-77834059D01*
X160379786Y-77655332D01*
X160429759Y-77493845D01*
X160493668Y-77349726D01*
X160571462Y-77223106D01*
X160663089Y-77114115D01*
X160768497Y-77022883D01*
X160813662Y-76991932D01*
X160914611Y-76935785D01*
X161017901Y-76896174D01*
X161127989Y-76872014D01*
X161249330Y-76862219D01*
X161341836Y-76863265D01*
X161471490Y-76874231D01*
X161584084Y-76896046D01*
X161682875Y-76929714D01*
X161771121Y-76976236D01*
X161819986Y-77010448D01*
X161849353Y-77032362D01*
X161871043Y-77047333D01*
X161879253Y-77051733D01*
X161880868Y-77040904D01*
X161882159Y-77010251D01*
X161883138Y-76962526D01*
X161883817Y-76900479D01*
X161884210Y-76826862D01*
X161884330Y-76744427D01*
X161884188Y-76655925D01*
X161883797Y-76564107D01*
X161883171Y-76471724D01*
X161882320Y-76381528D01*
X161881260Y-76296271D01*
X161880001Y-76218703D01*
X161878556Y-76151576D01*
X161876938Y-76097641D01*
X161875161Y-76059650D01*
X161874669Y-76052667D01*
X161867092Y-75982251D01*
X161855531Y-75927102D01*
X161837792Y-75879981D01*
X161811682Y-75833647D01*
X161805415Y-75824067D01*
X161780983Y-75787378D01*
X162686311Y-75787378D01*
X162686507Y-77472245D01*
G37*
X159173574Y-76866552D02*
X159325492Y-76886567D01*
X159460756Y-76920202D01*
X159580239Y-76967725D01*
X159684815Y-77029405D01*
X159762424Y-77092965D01*
X159831265Y-77167099D01*
X159885006Y-77246871D01*
X159927910Y-77339091D01*
X159943384Y-77382161D01*
X159956244Y-77421142D01*
X159967446Y-77457289D01*
X159977120Y-77492434D01*
X159985396Y-77528410D01*
X159992403Y-77567050D01*
X159998272Y-77610185D01*
X160003131Y-77659649D01*
X160007110Y-77717273D01*
X160010340Y-77784891D01*
X160012949Y-77864334D01*
X160015067Y-77957436D01*
X160016824Y-78066027D01*
X160018349Y-78191942D01*
X160019772Y-78337012D01*
X160021025Y-78479778D01*
X160022351Y-78635968D01*
X160023556Y-78771239D01*
X160024766Y-78887246D01*
X160026106Y-78985645D01*
X160027700Y-79068093D01*
X160029675Y-79136246D01*
X160032156Y-79191760D01*
X160035269Y-79236292D01*
X160039138Y-79271498D01*
X160043889Y-79299034D01*
X160049648Y-79320556D01*
X160056539Y-79337722D01*
X160064689Y-79352186D01*
X160074223Y-79365606D01*
X160085266Y-79379638D01*
X160089566Y-79385071D01*
X160105386Y-79407910D01*
X160112422Y-79423463D01*
X160112444Y-79423922D01*
X160101567Y-79426121D01*
X160070582Y-79428147D01*
X160021957Y-79429942D01*
X159958163Y-79431451D01*
X159881669Y-79432616D01*
X159794944Y-79433380D01*
X159700457Y-79433686D01*
X159689550Y-79433689D01*
X159266657Y-79433689D01*
X159263395Y-79337622D01*
X159260133Y-79241556D01*
X159198044Y-79292543D01*
X159100714Y-79360057D01*
X158990813Y-79414749D01*
X158904349Y-79444978D01*
X158835278Y-79459666D01*
X158751925Y-79469659D01*
X158662159Y-79474646D01*
X158573845Y-79474313D01*
X158494851Y-79468351D01*
X158458622Y-79462638D01*
X158318603Y-79424776D01*
X158192178Y-79369932D01*
X158080260Y-79298924D01*
X157983762Y-79212568D01*
X157903600Y-79111679D01*
X157840687Y-78997076D01*
X157796312Y-78870984D01*
X157783978Y-78814401D01*
X157776368Y-78752202D01*
X157772739Y-78677363D01*
X157772245Y-78643467D01*
X157772310Y-78640282D01*
X158532248Y-78640282D01*
X158541541Y-78715333D01*
X158569728Y-78779160D01*
X158618197Y-78834798D01*
X158623254Y-78839211D01*
X158671548Y-78874037D01*
X158723257Y-78896620D01*
X158783989Y-78908540D01*
X158859352Y-78911383D01*
X158877459Y-78910978D01*
X158931278Y-78908325D01*
X158971308Y-78902909D01*
X159006324Y-78892745D01*
X159045103Y-78875850D01*
X159055745Y-78870672D01*
X159116396Y-78834844D01*
X159163215Y-78792212D01*
X159175952Y-78776973D01*
X159220622Y-78720462D01*
X159220622Y-78524586D01*
X159220086Y-78445939D01*
X159218396Y-78387988D01*
X159215428Y-78348875D01*
X159211057Y-78326741D01*
X159206972Y-78320274D01*
X159191047Y-78317111D01*
X159157264Y-78314488D01*
X159110340Y-78312655D01*
X159054993Y-78311857D01*
X159046106Y-78311842D01*
X158925330Y-78317096D01*
X158822660Y-78333263D01*
X158736106Y-78360961D01*
X158663681Y-78400808D01*
X158608751Y-78447758D01*
X158564204Y-78505645D01*
X158539480Y-78568693D01*
X158532248Y-78640282D01*
X157772310Y-78640282D01*
X157774178Y-78549712D01*
X157782522Y-78470812D01*
X157798768Y-78399590D01*
X157824405Y-78328864D01*
X157848401Y-78276493D01*
X157907020Y-78181196D01*
X157985117Y-78093170D01*
X158080315Y-78014017D01*
X158190238Y-77945340D01*
X158312510Y-77888741D01*
X158444755Y-77845821D01*
X158509422Y-77830882D01*
X158645604Y-77808777D01*
X158794049Y-77794194D01*
X158945505Y-77787813D01*
X159072064Y-77789445D01*
X159233950Y-77796224D01*
X159226530Y-77737245D01*
X159207238Y-77638092D01*
X159176104Y-77557372D01*
X159132269Y-77494466D01*
X159074871Y-77448756D01*
X159003048Y-77419622D01*
X158915941Y-77406447D01*
X158812686Y-77408611D01*
X158774711Y-77412612D01*
X158633520Y-77437780D01*
X158496707Y-77478814D01*
X158402178Y-77516815D01*
X158357018Y-77536190D01*
X158318585Y-77551760D01*
X158292234Y-77561405D01*
X158284546Y-77563452D01*
X158274802Y-77554374D01*
X158258083Y-77525405D01*
X158234232Y-77476217D01*
X158203093Y-77406484D01*
X158164507Y-77315879D01*
X158157910Y-77300089D01*
X158127853Y-77227772D01*
X158100874Y-77162425D01*
X158078136Y-77106906D01*
X158060806Y-77064072D01*
X158050048Y-77036781D01*
X158046941Y-77027942D01*
X158056940Y-77023187D01*
X158083217Y-77017910D01*
X158111489Y-77014231D01*
X158141646Y-77009474D01*
X158189433Y-77000028D01*
X158250612Y-76986820D01*
X158320946Y-76970776D01*
X158396194Y-76952820D01*
X158424755Y-76945797D01*
X158529816Y-76920209D01*
X158617480Y-76900147D01*
X158692068Y-76884969D01*
X158757903Y-76874035D01*
X158819307Y-76866704D01*
X158880602Y-76862335D01*
X158946110Y-76860287D01*
X159004128Y-76859889D01*
X159173574Y-76866552D01*
G36*
X159173574Y-76866552D02*
G01*
X159325492Y-76886567D01*
X159460756Y-76920202D01*
X159580239Y-76967725D01*
X159684815Y-77029405D01*
X159762424Y-77092965D01*
X159831265Y-77167099D01*
X159885006Y-77246871D01*
X159927910Y-77339091D01*
X159943384Y-77382161D01*
X159956244Y-77421142D01*
X159967446Y-77457289D01*
X159977120Y-77492434D01*
X159985396Y-77528410D01*
X159992403Y-77567050D01*
X159998272Y-77610185D01*
X160003131Y-77659649D01*
X160007110Y-77717273D01*
X160010340Y-77784891D01*
X160012949Y-77864334D01*
X160015067Y-77957436D01*
X160016824Y-78066027D01*
X160018349Y-78191942D01*
X160019772Y-78337012D01*
X160021025Y-78479778D01*
X160022351Y-78635968D01*
X160023556Y-78771239D01*
X160024766Y-78887246D01*
X160026106Y-78985645D01*
X160027700Y-79068093D01*
X160029675Y-79136246D01*
X160032156Y-79191760D01*
X160035269Y-79236292D01*
X160039138Y-79271498D01*
X160043889Y-79299034D01*
X160049648Y-79320556D01*
X160056539Y-79337722D01*
X160064689Y-79352186D01*
X160074223Y-79365606D01*
X160085266Y-79379638D01*
X160089566Y-79385071D01*
X160105386Y-79407910D01*
X160112422Y-79423463D01*
X160112444Y-79423922D01*
X160101567Y-79426121D01*
X160070582Y-79428147D01*
X160021957Y-79429942D01*
X159958163Y-79431451D01*
X159881669Y-79432616D01*
X159794944Y-79433380D01*
X159700457Y-79433686D01*
X159689550Y-79433689D01*
X159266657Y-79433689D01*
X159263395Y-79337622D01*
X159260133Y-79241556D01*
X159198044Y-79292543D01*
X159100714Y-79360057D01*
X158990813Y-79414749D01*
X158904349Y-79444978D01*
X158835278Y-79459666D01*
X158751925Y-79469659D01*
X158662159Y-79474646D01*
X158573845Y-79474313D01*
X158494851Y-79468351D01*
X158458622Y-79462638D01*
X158318603Y-79424776D01*
X158192178Y-79369932D01*
X158080260Y-79298924D01*
X157983762Y-79212568D01*
X157903600Y-79111679D01*
X157840687Y-78997076D01*
X157796312Y-78870984D01*
X157783978Y-78814401D01*
X157776368Y-78752202D01*
X157772739Y-78677363D01*
X157772245Y-78643467D01*
X157772310Y-78640282D01*
X158532248Y-78640282D01*
X158541541Y-78715333D01*
X158569728Y-78779160D01*
X158618197Y-78834798D01*
X158623254Y-78839211D01*
X158671548Y-78874037D01*
X158723257Y-78896620D01*
X158783989Y-78908540D01*
X158859352Y-78911383D01*
X158877459Y-78910978D01*
X158931278Y-78908325D01*
X158971308Y-78902909D01*
X159006324Y-78892745D01*
X159045103Y-78875850D01*
X159055745Y-78870672D01*
X159116396Y-78834844D01*
X159163215Y-78792212D01*
X159175952Y-78776973D01*
X159220622Y-78720462D01*
X159220622Y-78524586D01*
X159220086Y-78445939D01*
X159218396Y-78387988D01*
X159215428Y-78348875D01*
X159211057Y-78326741D01*
X159206972Y-78320274D01*
X159191047Y-78317111D01*
X159157264Y-78314488D01*
X159110340Y-78312655D01*
X159054993Y-78311857D01*
X159046106Y-78311842D01*
X158925330Y-78317096D01*
X158822660Y-78333263D01*
X158736106Y-78360961D01*
X158663681Y-78400808D01*
X158608751Y-78447758D01*
X158564204Y-78505645D01*
X158539480Y-78568693D01*
X158532248Y-78640282D01*
X157772310Y-78640282D01*
X157774178Y-78549712D01*
X157782522Y-78470812D01*
X157798768Y-78399590D01*
X157824405Y-78328864D01*
X157848401Y-78276493D01*
X157907020Y-78181196D01*
X157985117Y-78093170D01*
X158080315Y-78014017D01*
X158190238Y-77945340D01*
X158312510Y-77888741D01*
X158444755Y-77845821D01*
X158509422Y-77830882D01*
X158645604Y-77808777D01*
X158794049Y-77794194D01*
X158945505Y-77787813D01*
X159072064Y-77789445D01*
X159233950Y-77796224D01*
X159226530Y-77737245D01*
X159207238Y-77638092D01*
X159176104Y-77557372D01*
X159132269Y-77494466D01*
X159074871Y-77448756D01*
X159003048Y-77419622D01*
X158915941Y-77406447D01*
X158812686Y-77408611D01*
X158774711Y-77412612D01*
X158633520Y-77437780D01*
X158496707Y-77478814D01*
X158402178Y-77516815D01*
X158357018Y-77536190D01*
X158318585Y-77551760D01*
X158292234Y-77561405D01*
X158284546Y-77563452D01*
X158274802Y-77554374D01*
X158258083Y-77525405D01*
X158234232Y-77476217D01*
X158203093Y-77406484D01*
X158164507Y-77315879D01*
X158157910Y-77300089D01*
X158127853Y-77227772D01*
X158100874Y-77162425D01*
X158078136Y-77106906D01*
X158060806Y-77064072D01*
X158050048Y-77036781D01*
X158046941Y-77027942D01*
X158056940Y-77023187D01*
X158083217Y-77017910D01*
X158111489Y-77014231D01*
X158141646Y-77009474D01*
X158189433Y-77000028D01*
X158250612Y-76986820D01*
X158320946Y-76970776D01*
X158396194Y-76952820D01*
X158424755Y-76945797D01*
X158529816Y-76920209D01*
X158617480Y-76900147D01*
X158692068Y-76884969D01*
X158757903Y-76874035D01*
X158819307Y-76866704D01*
X158880602Y-76862335D01*
X158946110Y-76860287D01*
X159004128Y-76859889D01*
X159173574Y-76866552D01*
G37*
X153553600Y-75489054D02*
X153564465Y-75602993D01*
X153596082Y-75710616D01*
X153646985Y-75809615D01*
X153715707Y-75897684D01*
X153800781Y-75972516D01*
X153897768Y-76030384D01*
X154004036Y-76070005D01*
X154111050Y-76088573D01*
X154216700Y-76087434D01*
X154318875Y-76067930D01*
X154415466Y-76031406D01*
X154504362Y-75979205D01*
X154583454Y-75912673D01*
X154650631Y-75833152D01*
X154703783Y-75741987D01*
X154740801Y-75640523D01*
X154759573Y-75530102D01*
X154761511Y-75480206D01*
X154761511Y-75392267D01*
X154813440Y-75392267D01*
X154849747Y-75395111D01*
X154876645Y-75406911D01*
X154903751Y-75430649D01*
X154942133Y-75469031D01*
X154942133Y-77660602D01*
X154942124Y-77922739D01*
X154942092Y-78163241D01*
X154942028Y-78383048D01*
X154941924Y-78583101D01*
X154941773Y-78764344D01*
X154941566Y-78927716D01*
X154941294Y-79074160D01*
X154940950Y-79204617D01*
X154940526Y-79320029D01*
X154940013Y-79421338D01*
X154939403Y-79509484D01*
X154938688Y-79585410D01*
X154937860Y-79650057D01*
X154936911Y-79704367D01*
X154935833Y-79749280D01*
X154934617Y-79785740D01*
X154933255Y-79814687D01*
X154931739Y-79837063D01*
X154930062Y-79853809D01*
X154928214Y-79865868D01*
X154926187Y-79874180D01*
X154923975Y-79879687D01*
X154922892Y-79881537D01*
X154918729Y-79888549D01*
X154915195Y-79894996D01*
X154911365Y-79900900D01*
X154906318Y-79906286D01*
X154899129Y-79911178D01*
X154888877Y-79915598D01*
X154874636Y-79919572D01*
X154855486Y-79923121D01*
X154830501Y-79926270D01*
X154798760Y-79929042D01*
X154759338Y-79931461D01*
X154711314Y-79933551D01*
X154653763Y-79935335D01*
X154585763Y-79936837D01*
X154506390Y-79938080D01*
X154414721Y-79939089D01*
X154309834Y-79939885D01*
X154190804Y-79940494D01*
X154056710Y-79940939D01*
X153906627Y-79941243D01*
X153739633Y-79941430D01*
X153554804Y-79941524D01*
X153351217Y-79941548D01*
X153127950Y-79941525D01*
X152884078Y-79941480D01*
X152618679Y-79941437D01*
X152580296Y-79941432D01*
X152313318Y-79941389D01*
X152067998Y-79941318D01*
X151843417Y-79941213D01*
X151638655Y-79941066D01*
X151452794Y-79940869D01*
X151284912Y-79940616D01*
X151134092Y-79940300D01*
X150999413Y-79939913D01*
X150879956Y-79939447D01*
X150774801Y-79938897D01*
X150683029Y-79938253D01*
X150603721Y-79937511D01*
X150535957Y-79936661D01*
X150478818Y-79935697D01*
X150431383Y-79934611D01*
X150392734Y-79933397D01*
X150361951Y-79932047D01*
X150338115Y-79930555D01*
X150320306Y-79928911D01*
X150307605Y-79927111D01*
X150299092Y-79925145D01*
X150294734Y-79923477D01*
X150286272Y-79919906D01*
X150278503Y-79917270D01*
X150271398Y-79914634D01*
X150264927Y-79911062D01*
X150259061Y-79905621D01*
X150253771Y-79897375D01*
X150249026Y-79885390D01*
X150244798Y-79868731D01*
X150241057Y-79846463D01*
X150237773Y-79817652D01*
X150234917Y-79781363D01*
X150232460Y-79736661D01*
X150230371Y-79682611D01*
X150228622Y-79618279D01*
X150227183Y-79542730D01*
X150226024Y-79455030D01*
X150225117Y-79354243D01*
X150224431Y-79239434D01*
X150223937Y-79109670D01*
X150223605Y-78964015D01*
X150223407Y-78801535D01*
X150223313Y-78621295D01*
X150223292Y-78422360D01*
X150223315Y-78203796D01*
X150223354Y-77964668D01*
X150223378Y-77704040D01*
X150223378Y-77661889D01*
X150223364Y-77398992D01*
X150223339Y-77157732D01*
X150223329Y-76937165D01*
X150223358Y-76736352D01*
X150223452Y-76554349D01*
X150223638Y-76390216D01*
X150223941Y-76243011D01*
X150224386Y-76111792D01*
X150224966Y-76001867D01*
X150527803Y-76001867D01*
X150567593Y-76059711D01*
X150578764Y-76075479D01*
X150588834Y-76089441D01*
X150597862Y-76102784D01*
X150605903Y-76116693D01*
X150613014Y-76132356D01*
X150619253Y-76150958D01*
X150624675Y-76173686D01*
X150629338Y-76201727D01*
X150633299Y-76236267D01*
X150636615Y-76278492D01*
X150639341Y-76329589D01*
X150641536Y-76390744D01*
X150643255Y-76463144D01*
X150644556Y-76547975D01*
X150645495Y-76646422D01*
X150646130Y-76759674D01*
X150646516Y-76888916D01*
X150646712Y-77035334D01*
X150646773Y-77200116D01*
X150646757Y-77384447D01*
X150646720Y-77589513D01*
X150646711Y-77712133D01*
X150646735Y-77929082D01*
X150646769Y-78124642D01*
X150646757Y-78299999D01*
X150646642Y-78456341D01*
X150646370Y-78594857D01*
X150645882Y-78716734D01*
X150645124Y-78823160D01*
X150644038Y-78915322D01*
X150642569Y-78994409D01*
X150640660Y-79061608D01*
X150638256Y-79118107D01*
X150635299Y-79165093D01*
X150631734Y-79203755D01*
X150627505Y-79235280D01*
X150622554Y-79260855D01*
X150616827Y-79281670D01*
X150610267Y-79298911D01*
X150602817Y-79313765D01*
X150594421Y-79327422D01*
X150585024Y-79341069D01*
X150574568Y-79355893D01*
X150568477Y-79364783D01*
X150529704Y-79422400D01*
X151061268Y-79422400D01*
X151184517Y-79422365D01*
X151287013Y-79422215D01*
X151370580Y-79421878D01*
X151437044Y-79421286D01*
X151488229Y-79420367D01*
X151525959Y-79419051D01*
X151552060Y-79417269D01*
X151568356Y-79414951D01*
X151576672Y-79412026D01*
X151578832Y-79408424D01*
X151576661Y-79404075D01*
X151575465Y-79402645D01*
X151550315Y-79365573D01*
X151524417Y-79312772D01*
X151500808Y-79250770D01*
X151492539Y-79224357D01*
X151487922Y-79206416D01*
X151484021Y-79185355D01*
X151480752Y-79159089D01*
X151478034Y-79125532D01*
X151475785Y-79082599D01*
X151473923Y-79028204D01*
X151472364Y-78960262D01*
X151471028Y-78876688D01*
X151469831Y-78775395D01*
X151468692Y-78654300D01*
X151468315Y-78609600D01*
X151467298Y-78484449D01*
X151466540Y-78380082D01*
X151466097Y-78294707D01*
X151466030Y-78226533D01*
X151466395Y-78173765D01*
X151467252Y-78134614D01*
X151468659Y-78107285D01*
X151470675Y-78089986D01*
X151473357Y-78080926D01*
X151476764Y-78078312D01*
X151480956Y-78080351D01*
X151485429Y-78084667D01*
X151495784Y-78097602D01*
X151517842Y-78126676D01*
X151550043Y-78169759D01*
X151590826Y-78224718D01*
X151638630Y-78289423D01*
X151691895Y-78361742D01*
X151749060Y-78439544D01*
X151808563Y-78520698D01*
X151868845Y-78603072D01*
X151928345Y-78684536D01*
X151985502Y-78762957D01*
X152038755Y-78836204D01*
X152086543Y-78902147D01*
X152127307Y-78958654D01*
X152159484Y-79003593D01*
X152181515Y-79034834D01*
X152186083Y-79041466D01*
X152209004Y-79078369D01*
X152235812Y-79126359D01*
X152261211Y-79175897D01*
X152264432Y-79182577D01*
X152286110Y-79230772D01*
X152298696Y-79268334D01*
X152304426Y-79304160D01*
X152305544Y-79346200D01*
X152304910Y-79422400D01*
X153459349Y-79422400D01*
X153368185Y-79328669D01*
X153321388Y-79278775D01*
X153271101Y-79222295D01*
X153225056Y-79168026D01*
X153204631Y-79142673D01*
X153174193Y-79103128D01*
X153134138Y-79049916D01*
X153085639Y-78984667D01*
X153029865Y-78909011D01*
X152967989Y-78824577D01*
X152901181Y-78732994D01*
X152830613Y-78635892D01*
X152757455Y-78534901D01*
X152682879Y-78431650D01*
X152608056Y-78327768D01*
X152534157Y-78224885D01*
X152462354Y-78124631D01*
X152393816Y-78028636D01*
X152329716Y-77938527D01*
X152271225Y-77855936D01*
X152219514Y-77782492D01*
X152175753Y-77719824D01*
X152141115Y-77669561D01*
X152116770Y-77633334D01*
X152103889Y-77612771D01*
X152102131Y-77608668D01*
X152110090Y-77597342D01*
X152130885Y-77570162D01*
X152163153Y-77528829D01*
X152205530Y-77475044D01*
X152256653Y-77410506D01*
X152315159Y-77336918D01*
X152379686Y-77255978D01*
X152448869Y-77169388D01*
X152521347Y-77078848D01*
X152595754Y-76986060D01*
X152655483Y-76911702D01*
X153666489Y-76911702D01*
X153672398Y-76924659D01*
X153686728Y-76946908D01*
X153687775Y-76948391D01*
X153706562Y-76978544D01*
X153726209Y-77015375D01*
X153730108Y-77023511D01*
X153733644Y-77031940D01*
X153736770Y-77042059D01*
X153739514Y-77055260D01*
X153741908Y-77072938D01*
X153743981Y-77096484D01*
X153745765Y-77127293D01*
X153747288Y-77166757D01*
X153748581Y-77216269D01*
X153749674Y-77277223D01*
X153750597Y-77351011D01*
X153751381Y-77439028D01*
X153752055Y-77542665D01*
X153752650Y-77663316D01*
X153753195Y-77802374D01*
X153753721Y-77961232D01*
X153754255Y-78140089D01*
X153754794Y-78325207D01*
X153755228Y-78489145D01*
X153755491Y-78633303D01*
X153755516Y-78759079D01*
X153755235Y-78867871D01*
X153754581Y-78961077D01*
X153753486Y-79040097D01*
X153751882Y-79106328D01*
X153749703Y-79161170D01*
X153746881Y-79206021D01*
X153743349Y-79242278D01*
X153739039Y-79271341D01*
X153733883Y-79294609D01*
X153727815Y-79313479D01*
X153720767Y-79329351D01*
X153712671Y-79343622D01*
X153703460Y-79357691D01*
X153694960Y-79370158D01*
X153677824Y-79396452D01*
X153667678Y-79414037D01*
X153666489Y-79417257D01*
X153677396Y-79418334D01*
X153708589Y-79419335D01*
X153757777Y-79420235D01*
X153822667Y-79421010D01*
X153900970Y-79421637D01*
X153990393Y-79422091D01*
X154088644Y-79422349D01*
X154157555Y-79422400D01*
X154262548Y-79422180D01*
X154359390Y-79421548D01*
X154445893Y-79420549D01*
X154519868Y-79419227D01*
X154579126Y-79417626D01*
X154621480Y-79415791D01*
X154644740Y-79413765D01*
X154648622Y-79412493D01*
X154640924Y-79397591D01*
X154632926Y-79389560D01*
X154619754Y-79372434D01*
X154602515Y-79342183D01*
X154590593Y-79317622D01*
X154563955Y-79258711D01*
X154560880Y-78081845D01*
X154557805Y-76904978D01*
X154112147Y-76904978D01*
X154014330Y-76905142D01*
X153923936Y-76905611D01*
X153843370Y-76906347D01*
X153775038Y-76907316D01*
X153721344Y-76908480D01*
X153684695Y-76909803D01*
X153667496Y-76911249D01*
X153666489Y-76911702D01*
X152655483Y-76911702D01*
X152670730Y-76892722D01*
X152744910Y-76800537D01*
X152816931Y-76711204D01*
X152885431Y-76626424D01*
X152949045Y-76547898D01*
X153006412Y-76477326D01*
X153056167Y-76416409D01*
X153096948Y-76366847D01*
X153114112Y-76346178D01*
X153200404Y-76245516D01*
X153277003Y-76162259D01*
X153345817Y-76094438D01*
X153408752Y-76040089D01*
X153418133Y-76032722D01*
X153457644Y-76002117D01*
X152325884Y-76001867D01*
X152331173Y-76049844D01*
X152327870Y-76107188D01*
X152306339Y-76175463D01*
X152266365Y-76255212D01*
X152221057Y-76327495D01*
X152204839Y-76350140D01*
X152176786Y-76387696D01*
X152138570Y-76438021D01*
X152091863Y-76498973D01*
X152038339Y-76568411D01*
X151979669Y-76644194D01*
X151917525Y-76724180D01*
X151853579Y-76806228D01*
X151789505Y-76888196D01*
X151726973Y-76967943D01*
X151667657Y-77043327D01*
X151613229Y-77112207D01*
X151565361Y-77172442D01*
X151525725Y-77221889D01*
X151495994Y-77258408D01*
X151477839Y-77279858D01*
X151474780Y-77283156D01*
X151471921Y-77275149D01*
X151469707Y-77244855D01*
X151468143Y-77192556D01*
X151467233Y-77118531D01*
X151466980Y-77023063D01*
X151467387Y-76906434D01*
X151468296Y-76786445D01*
X151469618Y-76654333D01*
X151471143Y-76542594D01*
X151473119Y-76449025D01*
X151475794Y-76371419D01*
X151479418Y-76307574D01*
X151484239Y-76255283D01*
X151490506Y-76212344D01*
X151498468Y-76176551D01*
X151508373Y-76145700D01*
X151520469Y-76117586D01*
X151535007Y-76090005D01*
X151549689Y-76064966D01*
X151587686Y-76001867D01*
X150527803Y-76001867D01*
X150224966Y-76001867D01*
X150224999Y-75995617D01*
X150225805Y-75893544D01*
X150226830Y-75804633D01*
X150228100Y-75727941D01*
X150229640Y-75662527D01*
X150231476Y-75607449D01*
X150233633Y-75561765D01*
X150236137Y-75524534D01*
X150239013Y-75494813D01*
X150242287Y-75471662D01*
X150245985Y-75454139D01*
X150250131Y-75441301D01*
X150254753Y-75432208D01*
X150259874Y-75425918D01*
X150265522Y-75421488D01*
X150271721Y-75417978D01*
X150278496Y-75414445D01*
X150284492Y-75410876D01*
X150289725Y-75408300D01*
X150297901Y-75405972D01*
X150310114Y-75403878D01*
X150327459Y-75402007D01*
X150351031Y-75400347D01*
X150381923Y-75398884D01*
X150421232Y-75397608D01*
X150470050Y-75396504D01*
X150529473Y-75395561D01*
X150600596Y-75394767D01*
X150684512Y-75394109D01*
X150782317Y-75393575D01*
X150895106Y-75393153D01*
X151023971Y-75392829D01*
X151170009Y-75392592D01*
X151334314Y-75392430D01*
X151517980Y-75392330D01*
X151722103Y-75392280D01*
X151933247Y-75392267D01*
X153553600Y-75392267D01*
X153553600Y-75489054D01*
G36*
X153553600Y-75489054D02*
G01*
X153564465Y-75602993D01*
X153596082Y-75710616D01*
X153646985Y-75809615D01*
X153715707Y-75897684D01*
X153800781Y-75972516D01*
X153897768Y-76030384D01*
X154004036Y-76070005D01*
X154111050Y-76088573D01*
X154216700Y-76087434D01*
X154318875Y-76067930D01*
X154415466Y-76031406D01*
X154504362Y-75979205D01*
X154583454Y-75912673D01*
X154650631Y-75833152D01*
X154703783Y-75741987D01*
X154740801Y-75640523D01*
X154759573Y-75530102D01*
X154761511Y-75480206D01*
X154761511Y-75392267D01*
X154813440Y-75392267D01*
X154849747Y-75395111D01*
X154876645Y-75406911D01*
X154903751Y-75430649D01*
X154942133Y-75469031D01*
X154942133Y-77660602D01*
X154942124Y-77922739D01*
X154942092Y-78163241D01*
X154942028Y-78383048D01*
X154941924Y-78583101D01*
X154941773Y-78764344D01*
X154941566Y-78927716D01*
X154941294Y-79074160D01*
X154940950Y-79204617D01*
X154940526Y-79320029D01*
X154940013Y-79421338D01*
X154939403Y-79509484D01*
X154938688Y-79585410D01*
X154937860Y-79650057D01*
X154936911Y-79704367D01*
X154935833Y-79749280D01*
X154934617Y-79785740D01*
X154933255Y-79814687D01*
X154931739Y-79837063D01*
X154930062Y-79853809D01*
X154928214Y-79865868D01*
X154926187Y-79874180D01*
X154923975Y-79879687D01*
X154922892Y-79881537D01*
X154918729Y-79888549D01*
X154915195Y-79894996D01*
X154911365Y-79900900D01*
X154906318Y-79906286D01*
X154899129Y-79911178D01*
X154888877Y-79915598D01*
X154874636Y-79919572D01*
X154855486Y-79923121D01*
X154830501Y-79926270D01*
X154798760Y-79929042D01*
X154759338Y-79931461D01*
X154711314Y-79933551D01*
X154653763Y-79935335D01*
X154585763Y-79936837D01*
X154506390Y-79938080D01*
X154414721Y-79939089D01*
X154309834Y-79939885D01*
X154190804Y-79940494D01*
X154056710Y-79940939D01*
X153906627Y-79941243D01*
X153739633Y-79941430D01*
X153554804Y-79941524D01*
X153351217Y-79941548D01*
X153127950Y-79941525D01*
X152884078Y-79941480D01*
X152618679Y-79941437D01*
X152580296Y-79941432D01*
X152313318Y-79941389D01*
X152067998Y-79941318D01*
X151843417Y-79941213D01*
X151638655Y-79941066D01*
X151452794Y-79940869D01*
X151284912Y-79940616D01*
X151134092Y-79940300D01*
X150999413Y-79939913D01*
X150879956Y-79939447D01*
X150774801Y-79938897D01*
X150683029Y-79938253D01*
X150603721Y-79937511D01*
X150535957Y-79936661D01*
X150478818Y-79935697D01*
X150431383Y-79934611D01*
X150392734Y-79933397D01*
X150361951Y-79932047D01*
X150338115Y-79930555D01*
X150320306Y-79928911D01*
X150307605Y-79927111D01*
X150299092Y-79925145D01*
X150294734Y-79923477D01*
X150286272Y-79919906D01*
X150278503Y-79917270D01*
X150271398Y-79914634D01*
X150264927Y-79911062D01*
X150259061Y-79905621D01*
X150253771Y-79897375D01*
X150249026Y-79885390D01*
X150244798Y-79868731D01*
X150241057Y-79846463D01*
X150237773Y-79817652D01*
X150234917Y-79781363D01*
X150232460Y-79736661D01*
X150230371Y-79682611D01*
X150228622Y-79618279D01*
X150227183Y-79542730D01*
X150226024Y-79455030D01*
X150225117Y-79354243D01*
X150224431Y-79239434D01*
X150223937Y-79109670D01*
X150223605Y-78964015D01*
X150223407Y-78801535D01*
X150223313Y-78621295D01*
X150223292Y-78422360D01*
X150223315Y-78203796D01*
X150223354Y-77964668D01*
X150223378Y-77704040D01*
X150223378Y-77661889D01*
X150223364Y-77398992D01*
X150223339Y-77157732D01*
X150223329Y-76937165D01*
X150223358Y-76736352D01*
X150223452Y-76554349D01*
X150223638Y-76390216D01*
X150223941Y-76243011D01*
X150224386Y-76111792D01*
X150224966Y-76001867D01*
X150527803Y-76001867D01*
X150567593Y-76059711D01*
X150578764Y-76075479D01*
X150588834Y-76089441D01*
X150597862Y-76102784D01*
X150605903Y-76116693D01*
X150613014Y-76132356D01*
X150619253Y-76150958D01*
X150624675Y-76173686D01*
X150629338Y-76201727D01*
X150633299Y-76236267D01*
X150636615Y-76278492D01*
X150639341Y-76329589D01*
X150641536Y-76390744D01*
X150643255Y-76463144D01*
X150644556Y-76547975D01*
X150645495Y-76646422D01*
X150646130Y-76759674D01*
X150646516Y-76888916D01*
X150646712Y-77035334D01*
X150646773Y-77200116D01*
X150646757Y-77384447D01*
X150646720Y-77589513D01*
X150646711Y-77712133D01*
X150646735Y-77929082D01*
X150646769Y-78124642D01*
X150646757Y-78299999D01*
X150646642Y-78456341D01*
X150646370Y-78594857D01*
X150645882Y-78716734D01*
X150645124Y-78823160D01*
X150644038Y-78915322D01*
X150642569Y-78994409D01*
X150640660Y-79061608D01*
X150638256Y-79118107D01*
X150635299Y-79165093D01*
X150631734Y-79203755D01*
X150627505Y-79235280D01*
X150622554Y-79260855D01*
X150616827Y-79281670D01*
X150610267Y-79298911D01*
X150602817Y-79313765D01*
X150594421Y-79327422D01*
X150585024Y-79341069D01*
X150574568Y-79355893D01*
X150568477Y-79364783D01*
X150529704Y-79422400D01*
X151061268Y-79422400D01*
X151184517Y-79422365D01*
X151287013Y-79422215D01*
X151370580Y-79421878D01*
X151437044Y-79421286D01*
X151488229Y-79420367D01*
X151525959Y-79419051D01*
X151552060Y-79417269D01*
X151568356Y-79414951D01*
X151576672Y-79412026D01*
X151578832Y-79408424D01*
X151576661Y-79404075D01*
X151575465Y-79402645D01*
X151550315Y-79365573D01*
X151524417Y-79312772D01*
X151500808Y-79250770D01*
X151492539Y-79224357D01*
X151487922Y-79206416D01*
X151484021Y-79185355D01*
X151480752Y-79159089D01*
X151478034Y-79125532D01*
X151475785Y-79082599D01*
X151473923Y-79028204D01*
X151472364Y-78960262D01*
X151471028Y-78876688D01*
X151469831Y-78775395D01*
X151468692Y-78654300D01*
X151468315Y-78609600D01*
X151467298Y-78484449D01*
X151466540Y-78380082D01*
X151466097Y-78294707D01*
X151466030Y-78226533D01*
X151466395Y-78173765D01*
X151467252Y-78134614D01*
X151468659Y-78107285D01*
X151470675Y-78089986D01*
X151473357Y-78080926D01*
X151476764Y-78078312D01*
X151480956Y-78080351D01*
X151485429Y-78084667D01*
X151495784Y-78097602D01*
X151517842Y-78126676D01*
X151550043Y-78169759D01*
X151590826Y-78224718D01*
X151638630Y-78289423D01*
X151691895Y-78361742D01*
X151749060Y-78439544D01*
X151808563Y-78520698D01*
X151868845Y-78603072D01*
X151928345Y-78684536D01*
X151985502Y-78762957D01*
X152038755Y-78836204D01*
X152086543Y-78902147D01*
X152127307Y-78958654D01*
X152159484Y-79003593D01*
X152181515Y-79034834D01*
X152186083Y-79041466D01*
X152209004Y-79078369D01*
X152235812Y-79126359D01*
X152261211Y-79175897D01*
X152264432Y-79182577D01*
X152286110Y-79230772D01*
X152298696Y-79268334D01*
X152304426Y-79304160D01*
X152305544Y-79346200D01*
X152304910Y-79422400D01*
X153459349Y-79422400D01*
X153368185Y-79328669D01*
X153321388Y-79278775D01*
X153271101Y-79222295D01*
X153225056Y-79168026D01*
X153204631Y-79142673D01*
X153174193Y-79103128D01*
X153134138Y-79049916D01*
X153085639Y-78984667D01*
X153029865Y-78909011D01*
X152967989Y-78824577D01*
X152901181Y-78732994D01*
X152830613Y-78635892D01*
X152757455Y-78534901D01*
X152682879Y-78431650D01*
X152608056Y-78327768D01*
X152534157Y-78224885D01*
X152462354Y-78124631D01*
X152393816Y-78028636D01*
X152329716Y-77938527D01*
X152271225Y-77855936D01*
X152219514Y-77782492D01*
X152175753Y-77719824D01*
X152141115Y-77669561D01*
X152116770Y-77633334D01*
X152103889Y-77612771D01*
X152102131Y-77608668D01*
X152110090Y-77597342D01*
X152130885Y-77570162D01*
X152163153Y-77528829D01*
X152205530Y-77475044D01*
X152256653Y-77410506D01*
X152315159Y-77336918D01*
X152379686Y-77255978D01*
X152448869Y-77169388D01*
X152521347Y-77078848D01*
X152595754Y-76986060D01*
X152655483Y-76911702D01*
X153666489Y-76911702D01*
X153672398Y-76924659D01*
X153686728Y-76946908D01*
X153687775Y-76948391D01*
X153706562Y-76978544D01*
X153726209Y-77015375D01*
X153730108Y-77023511D01*
X153733644Y-77031940D01*
X153736770Y-77042059D01*
X153739514Y-77055260D01*
X153741908Y-77072938D01*
X153743981Y-77096484D01*
X153745765Y-77127293D01*
X153747288Y-77166757D01*
X153748581Y-77216269D01*
X153749674Y-77277223D01*
X153750597Y-77351011D01*
X153751381Y-77439028D01*
X153752055Y-77542665D01*
X153752650Y-77663316D01*
X153753195Y-77802374D01*
X153753721Y-77961232D01*
X153754255Y-78140089D01*
X153754794Y-78325207D01*
X153755228Y-78489145D01*
X153755491Y-78633303D01*
X153755516Y-78759079D01*
X153755235Y-78867871D01*
X153754581Y-78961077D01*
X153753486Y-79040097D01*
X153751882Y-79106328D01*
X153749703Y-79161170D01*
X153746881Y-79206021D01*
X153743349Y-79242278D01*
X153739039Y-79271341D01*
X153733883Y-79294609D01*
X153727815Y-79313479D01*
X153720767Y-79329351D01*
X153712671Y-79343622D01*
X153703460Y-79357691D01*
X153694960Y-79370158D01*
X153677824Y-79396452D01*
X153667678Y-79414037D01*
X153666489Y-79417257D01*
X153677396Y-79418334D01*
X153708589Y-79419335D01*
X153757777Y-79420235D01*
X153822667Y-79421010D01*
X153900970Y-79421637D01*
X153990393Y-79422091D01*
X154088644Y-79422349D01*
X154157555Y-79422400D01*
X154262548Y-79422180D01*
X154359390Y-79421548D01*
X154445893Y-79420549D01*
X154519868Y-79419227D01*
X154579126Y-79417626D01*
X154621480Y-79415791D01*
X154644740Y-79413765D01*
X154648622Y-79412493D01*
X154640924Y-79397591D01*
X154632926Y-79389560D01*
X154619754Y-79372434D01*
X154602515Y-79342183D01*
X154590593Y-79317622D01*
X154563955Y-79258711D01*
X154560880Y-78081845D01*
X154557805Y-76904978D01*
X154112147Y-76904978D01*
X154014330Y-76905142D01*
X153923936Y-76905611D01*
X153843370Y-76906347D01*
X153775038Y-76907316D01*
X153721344Y-76908480D01*
X153684695Y-76909803D01*
X153667496Y-76911249D01*
X153666489Y-76911702D01*
X152655483Y-76911702D01*
X152670730Y-76892722D01*
X152744910Y-76800537D01*
X152816931Y-76711204D01*
X152885431Y-76626424D01*
X152949045Y-76547898D01*
X153006412Y-76477326D01*
X153056167Y-76416409D01*
X153096948Y-76366847D01*
X153114112Y-76346178D01*
X153200404Y-76245516D01*
X153277003Y-76162259D01*
X153345817Y-76094438D01*
X153408752Y-76040089D01*
X153418133Y-76032722D01*
X153457644Y-76002117D01*
X152325884Y-76001867D01*
X152331173Y-76049844D01*
X152327870Y-76107188D01*
X152306339Y-76175463D01*
X152266365Y-76255212D01*
X152221057Y-76327495D01*
X152204839Y-76350140D01*
X152176786Y-76387696D01*
X152138570Y-76438021D01*
X152091863Y-76498973D01*
X152038339Y-76568411D01*
X151979669Y-76644194D01*
X151917525Y-76724180D01*
X151853579Y-76806228D01*
X151789505Y-76888196D01*
X151726973Y-76967943D01*
X151667657Y-77043327D01*
X151613229Y-77112207D01*
X151565361Y-77172442D01*
X151525725Y-77221889D01*
X151495994Y-77258408D01*
X151477839Y-77279858D01*
X151474780Y-77283156D01*
X151471921Y-77275149D01*
X151469707Y-77244855D01*
X151468143Y-77192556D01*
X151467233Y-77118531D01*
X151466980Y-77023063D01*
X151467387Y-76906434D01*
X151468296Y-76786445D01*
X151469618Y-76654333D01*
X151471143Y-76542594D01*
X151473119Y-76449025D01*
X151475794Y-76371419D01*
X151479418Y-76307574D01*
X151484239Y-76255283D01*
X151490506Y-76212344D01*
X151498468Y-76176551D01*
X151508373Y-76145700D01*
X151520469Y-76117586D01*
X151535007Y-76090005D01*
X151549689Y-76064966D01*
X151587686Y-76001867D01*
X150527803Y-76001867D01*
X150224966Y-76001867D01*
X150224999Y-75995617D01*
X150225805Y-75893544D01*
X150226830Y-75804633D01*
X150228100Y-75727941D01*
X150229640Y-75662527D01*
X150231476Y-75607449D01*
X150233633Y-75561765D01*
X150236137Y-75524534D01*
X150239013Y-75494813D01*
X150242287Y-75471662D01*
X150245985Y-75454139D01*
X150250131Y-75441301D01*
X150254753Y-75432208D01*
X150259874Y-75425918D01*
X150265522Y-75421488D01*
X150271721Y-75417978D01*
X150278496Y-75414445D01*
X150284492Y-75410876D01*
X150289725Y-75408300D01*
X150297901Y-75405972D01*
X150310114Y-75403878D01*
X150327459Y-75402007D01*
X150351031Y-75400347D01*
X150381923Y-75398884D01*
X150421232Y-75397608D01*
X150470050Y-75396504D01*
X150529473Y-75395561D01*
X150600596Y-75394767D01*
X150684512Y-75394109D01*
X150782317Y-75393575D01*
X150895106Y-75393153D01*
X151023971Y-75392829D01*
X151170009Y-75392592D01*
X151334314Y-75392430D01*
X151517980Y-75392330D01*
X151722103Y-75392280D01*
X151933247Y-75392267D01*
X153553600Y-75392267D01*
X153553600Y-75489054D01*
G37*
D12*
%TO.C,U6*%
X222698000Y-82437300D02*
X223714000Y-82437300D01*
X222748800Y-73648900D02*
X222698000Y-82437300D01*
X223764800Y-73648900D02*
X222748800Y-73648900D01*
X225111000Y-74791900D02*
X226889000Y-74791900D01*
X225111000Y-80354500D02*
X226711200Y-80354500D01*
X225911100Y-80354500D02*
X225911100Y-78144700D01*
X226000000Y-74791900D02*
X226000000Y-76773100D01*
X226000000Y-76773100D02*
X224450600Y-78322500D01*
X228184400Y-73648900D02*
X229302000Y-73648900D01*
X229302000Y-73648900D02*
X229302000Y-82411900D01*
X229302000Y-82411900D02*
X228336800Y-82411900D01*
%TO.C,U5*%
X207537200Y-82411900D02*
X206572000Y-82411900D01*
X207537200Y-73648900D02*
X207537200Y-82411900D01*
X206419600Y-73648900D02*
X207537200Y-73648900D01*
X204235200Y-76773100D02*
X202685800Y-78322500D01*
X204235200Y-74791900D02*
X204235200Y-76773100D01*
X204146300Y-80354500D02*
X204146300Y-78144700D01*
X203346200Y-80354500D02*
X204946400Y-80354500D01*
X203346200Y-74791900D02*
X205124200Y-74791900D01*
X202000000Y-73648900D02*
X200984000Y-73648900D01*
X200984000Y-73648900D02*
X200933200Y-82437300D01*
X200933200Y-82437300D02*
X201949200Y-82437300D01*
%TO.C,U3*%
X213302000Y-65911900D02*
X212336800Y-65911900D01*
X213302000Y-57148900D02*
X213302000Y-65911900D01*
X212184400Y-57148900D02*
X213302000Y-57148900D01*
X210000000Y-60273100D02*
X208450600Y-61822500D01*
X210000000Y-58291900D02*
X210000000Y-60273100D01*
X209911100Y-63854500D02*
X209911100Y-61644700D01*
X209111000Y-63854500D02*
X210711200Y-63854500D01*
X209111000Y-58291900D02*
X210889000Y-58291900D01*
X207764800Y-57148900D02*
X206748800Y-57148900D01*
X206748800Y-57148900D02*
X206698000Y-65937300D01*
X206698000Y-65937300D02*
X207714000Y-65937300D01*
%TO.C,U4*%
X216698000Y-65937300D02*
X217714000Y-65937300D01*
X216748800Y-57148900D02*
X216698000Y-65937300D01*
X217764800Y-57148900D02*
X216748800Y-57148900D01*
X219111000Y-58291900D02*
X220889000Y-58291900D01*
X219111000Y-63854500D02*
X220711200Y-63854500D01*
X219911100Y-63854500D02*
X219911100Y-61644700D01*
X220000000Y-58291900D02*
X220000000Y-60273100D01*
X220000000Y-60273100D02*
X218450600Y-61822500D01*
X222184400Y-57148900D02*
X223302000Y-57148900D01*
X223302000Y-57148900D02*
X223302000Y-65911900D01*
X223302000Y-65911900D02*
X222336800Y-65911900D01*
%TO.C,u7*%
X229302000Y-49411900D02*
X228336800Y-49411900D01*
X229302000Y-40648900D02*
X229302000Y-49411900D01*
X228184400Y-40648900D02*
X229302000Y-40648900D01*
X226000000Y-43773100D02*
X224450600Y-45322500D01*
X226000000Y-41791900D02*
X226000000Y-43773100D01*
X225911100Y-47354500D02*
X225911100Y-45144700D01*
X225111000Y-47354500D02*
X226711200Y-47354500D01*
X225111000Y-41791900D02*
X226889000Y-41791900D01*
X223764800Y-40648900D02*
X222748800Y-40648900D01*
X222748800Y-40648900D02*
X222698000Y-49437300D01*
X222698000Y-49437300D02*
X223714000Y-49437300D01*
%TO.C,U2*%
X207537200Y-49411900D02*
X206572000Y-49411900D01*
X207537200Y-40648900D02*
X207537200Y-49411900D01*
X206419600Y-40648900D02*
X207537200Y-40648900D01*
X204235200Y-43773100D02*
X202685800Y-45322500D01*
X204235200Y-41791900D02*
X204235200Y-43773100D01*
X204146300Y-47354500D02*
X204146300Y-45144700D01*
X203346200Y-47354500D02*
X204946400Y-47354500D01*
X203346200Y-41791900D02*
X205124200Y-41791900D01*
X202000000Y-40648900D02*
X200984000Y-40648900D01*
X200984000Y-40648900D02*
X200933200Y-49437300D01*
X200933200Y-49437300D02*
X201949200Y-49437300D01*
D14*
%TO.C,R6*%
X111850000Y-72460000D02*
X111850000Y-73230000D01*
X113220000Y-73230000D02*
X110480000Y-73230000D01*
X110480000Y-73230000D02*
X110480000Y-79770000D01*
X113220000Y-79770000D02*
X113220000Y-73230000D01*
X110480000Y-79770000D02*
X113220000Y-79770000D01*
X111850000Y-80540000D02*
X111850000Y-79770000D01*
%TO.C,R5*%
X115900000Y-72460000D02*
X115900000Y-73230000D01*
X117270000Y-73230000D02*
X114530000Y-73230000D01*
X114530000Y-73230000D02*
X114530000Y-79770000D01*
X117270000Y-79770000D02*
X117270000Y-73230000D01*
X114530000Y-79770000D02*
X117270000Y-79770000D01*
X115900000Y-80540000D02*
X115900000Y-79770000D01*
%TO.C,R4*%
X119950000Y-72460000D02*
X119950000Y-73230000D01*
X121320000Y-73230000D02*
X118580000Y-73230000D01*
X118580000Y-73230000D02*
X118580000Y-79770000D01*
X121320000Y-79770000D02*
X121320000Y-73230000D01*
X118580000Y-79770000D02*
X121320000Y-79770000D01*
X119950000Y-80540000D02*
X119950000Y-79770000D01*
%TO.C,R3*%
X124000000Y-72460000D02*
X124000000Y-73230000D01*
X125370000Y-73230000D02*
X122630000Y-73230000D01*
X122630000Y-73230000D02*
X122630000Y-79770000D01*
X125370000Y-79770000D02*
X125370000Y-73230000D01*
X122630000Y-79770000D02*
X125370000Y-79770000D01*
X124000000Y-80540000D02*
X124000000Y-79770000D01*
%TO.C,R2*%
X128050000Y-72460000D02*
X128050000Y-73230000D01*
X129420000Y-73230000D02*
X126680000Y-73230000D01*
X126680000Y-73230000D02*
X126680000Y-79770000D01*
X129420000Y-79770000D02*
X129420000Y-73230000D01*
X126680000Y-79770000D02*
X129420000Y-79770000D01*
X128050000Y-80540000D02*
X128050000Y-79770000D01*
%TO.C,R1*%
X132100000Y-72460000D02*
X132100000Y-73230000D01*
X133470000Y-73230000D02*
X130730000Y-73230000D01*
X130730000Y-73230000D02*
X130730000Y-79770000D01*
X133470000Y-79770000D02*
X133470000Y-73230000D01*
X130730000Y-79770000D02*
X133470000Y-79770000D01*
X132100000Y-80540000D02*
X132100000Y-79770000D01*
%TO.C,U1*%
D12*
X105397500Y-49840000D02*
X69837500Y-49840000D01*
X69837500Y-70160000D01*
X105397500Y-70160000D01*
X105397500Y-49840000D01*
D14*
%TO.C,TP6*%
X107082500Y-78500000D02*
G75*
G02*
X103682500Y-78500000I-1700000J0D01*
G01*
X103682500Y-78500000D02*
G75*
G02*
X107082500Y-78500000I1700000J0D01*
G01*
%TO.C,U9*%
X140550000Y-43260018D02*
X140550000Y-41930018D01*
X141880000Y-43260018D02*
X140550000Y-43260018D01*
X143150000Y-43260018D02*
X160990000Y-43260018D01*
X143150000Y-43260018D02*
X143150000Y-40600018D01*
X160990000Y-43260018D02*
X160990000Y-40600018D01*
X143150000Y-40600018D02*
X160990000Y-40600018D01*
%TO.C,TP14*%
X71582500Y-41800000D02*
G75*
G02*
X68182500Y-41800000I-1700000J0D01*
G01*
X68182500Y-41800000D02*
G75*
G02*
X71582500Y-41800000I1700000J0D01*
G01*
%TO.C,TP13*%
X77082500Y-41800000D02*
G75*
G02*
X73682500Y-41800000I-1700000J0D01*
G01*
X73682500Y-41800000D02*
G75*
G02*
X77082500Y-41800000I1700000J0D01*
G01*
%TO.C,TP12*%
X78950000Y-77750000D02*
G75*
G02*
X75550000Y-77750000I-1700000J0D01*
G01*
X75550000Y-77750000D02*
G75*
G02*
X78950000Y-77750000I1700000J0D01*
G01*
%TO.C,TP10*%
X86950000Y-79500000D02*
G75*
G02*
X83550000Y-79500000I-1700000J0D01*
G01*
X83550000Y-79500000D02*
G75*
G02*
X86950000Y-79500000I1700000J0D01*
G01*
%TO.C,TP9*%
X91700000Y-78500000D02*
G75*
G02*
X88300000Y-78500000I-1700000J0D01*
G01*
X88300000Y-78500000D02*
G75*
G02*
X91700000Y-78500000I1700000J0D01*
G01*
%TO.C,TP8*%
X99582500Y-78500000D02*
G75*
G02*
X96182500Y-78500000I-1700000J0D01*
G01*
X96182500Y-78500000D02*
G75*
G02*
X99582500Y-78500000I1700000J0D01*
G01*
%TO.C,TP7*%
X103200000Y-80000000D02*
G75*
G02*
X99800000Y-80000000I-1700000J0D01*
G01*
X99800000Y-80000000D02*
G75*
G02*
X103200000Y-80000000I1700000J0D01*
G01*
%TO.C,TP5*%
X92700000Y-42000000D02*
G75*
G02*
X89300000Y-42000000I-1700000J0D01*
G01*
X89300000Y-42000000D02*
G75*
G02*
X92700000Y-42000000I1700000J0D01*
G01*
%TO.C,TP4*%
X97700000Y-40000000D02*
G75*
G02*
X94300000Y-40000000I-1700000J0D01*
G01*
X94300000Y-40000000D02*
G75*
G02*
X97700000Y-40000000I1700000J0D01*
G01*
%TO.C,TP3*%
X102082500Y-42500000D02*
G75*
G02*
X98682500Y-42500000I-1700000J0D01*
G01*
X98682500Y-42500000D02*
G75*
G02*
X102082500Y-42500000I1700000J0D01*
G01*
%TO.C,TP2*%
X106200000Y-40000000D02*
G75*
G02*
X102800000Y-40000000I-1700000J0D01*
G01*
X102800000Y-40000000D02*
G75*
G02*
X106200000Y-40000000I1700000J0D01*
G01*
%TO.C,TP1*%
X110700000Y-42000000D02*
G75*
G02*
X107300000Y-42000000I-1700000J0D01*
G01*
X107300000Y-42000000D02*
G75*
G02*
X110700000Y-42000000I1700000J0D01*
G01*
%TO.C,D6*%
X125710000Y-60955000D02*
X125710000Y-64045000D01*
X125710001Y-60955170D02*
G75*
G02*
X131259999Y-62500462I2559999J-1544830D01*
G01*
X131260000Y-62499538D02*
G75*
G02*
X125710000Y-64044830I-2990000J-462D01*
G01*
X130770000Y-62500000D02*
G75*
G02*
X125770000Y-62500000I-2500000J0D01*
G01*
X125770000Y-62500000D02*
G75*
G02*
X130770000Y-62500000I2500000J0D01*
G01*
%TO.C,D5*%
X118710000Y-60955000D02*
X118710000Y-64045000D01*
X118710001Y-60955170D02*
G75*
G02*
X124259999Y-62500462I2559999J-1544830D01*
G01*
X124260000Y-62499538D02*
G75*
G02*
X118710000Y-64044830I-2990000J-462D01*
G01*
X123770000Y-62500000D02*
G75*
G02*
X118770000Y-62500000I-2500000J0D01*
G01*
X118770000Y-62500000D02*
G75*
G02*
X123770000Y-62500000I2500000J0D01*
G01*
%TO.C,D4*%
X111710000Y-60955000D02*
X111710000Y-64045000D01*
X111710001Y-60955170D02*
G75*
G02*
X117259999Y-62500462I2559999J-1544830D01*
G01*
X117260000Y-62499538D02*
G75*
G02*
X111710000Y-64044830I-2990000J-462D01*
G01*
X116770000Y-62500000D02*
G75*
G02*
X111770000Y-62500000I-2500000J0D01*
G01*
X111770000Y-62500000D02*
G75*
G02*
X116770000Y-62500000I2500000J0D01*
G01*
%TO.C,D3*%
X125710000Y-51955000D02*
X125710000Y-55045000D01*
X125710001Y-51955170D02*
G75*
G02*
X131259999Y-53500462I2559999J-1544830D01*
G01*
X131260000Y-53499538D02*
G75*
G02*
X125710000Y-55044830I-2990000J-462D01*
G01*
X130770000Y-53500000D02*
G75*
G02*
X125770000Y-53500000I-2500000J0D01*
G01*
X125770000Y-53500000D02*
G75*
G02*
X130770000Y-53500000I2500000J0D01*
G01*
%TO.C,D2*%
X118710000Y-51955000D02*
X118710000Y-55045000D01*
X118710001Y-51955170D02*
G75*
G02*
X124259999Y-53500462I2559999J-1544830D01*
G01*
X124260000Y-53499538D02*
G75*
G02*
X118710000Y-55044830I-2990000J-462D01*
G01*
X123770000Y-53500000D02*
G75*
G02*
X118770000Y-53500000I-2500000J0D01*
G01*
X118770000Y-53500000D02*
G75*
G02*
X123770000Y-53500000I2500000J0D01*
G01*
%TO.C,D1*%
X111710000Y-51955000D02*
X111710000Y-55045000D01*
X111710001Y-51955170D02*
G75*
G02*
X117259999Y-53500462I2559999J-1544830D01*
G01*
X117260000Y-53499538D02*
G75*
G02*
X111710000Y-55044830I-2990000J-462D01*
G01*
X116770000Y-53500000D02*
G75*
G02*
X111770000Y-53500000I-2500000J0D01*
G01*
X111770000Y-53500000D02*
G75*
G02*
X116770000Y-53500000I2500000J0D01*
G01*
%TD*%
M02*
