%TF.GenerationSoftware,KiCad,Pcbnew,8.0.0*%
%TF.CreationDate,2024-03-10T20:57:54+01:00*%
%TF.ProjectId,EEK,45454b2e-6b69-4636-9164-5f7063625858,V1.0*%
%TF.SameCoordinates,Original*%
%TF.FileFunction,Soldermask,Top*%
%TF.FilePolarity,Negative*%
%FSLAX46Y46*%
G04 Gerber Fmt 4.6, Leading zero omitted, Abs format (unit mm)*
G04 Created by KiCad (PCBNEW 8.0.0) date 2024-03-10 20:57:54*
%MOMM*%
%LPD*%
G01*
G04 APERTURE LIST*
%ADD10O,1.700000X1.700000*%
%ADD11R,1.700000X1.700000*%
%ADD12C,1.524000*%
%ADD13C,1.600000*%
%ADD14O,1.600000X1.600000*%
%ADD15R,1.524000X1.524000*%
%ADD16C,3.000000*%
%ADD17R,1.800000X1.800000*%
%ADD18C,1.800000*%
G04 APERTURE END LIST*
D10*
%TO.C,U10*%
X186370000Y-42000000D03*
X183830000Y-42000000D03*
X181290000Y-42000000D03*
D11*
X178750000Y-42000000D03*
%TD*%
D12*
%TO.C,U6*%
X223764800Y-74842700D03*
X228336800Y-74842700D03*
X223764800Y-81395900D03*
X228260600Y-81421300D03*
%TD*%
%TO.C,U5*%
X206495800Y-81421300D03*
X202000000Y-81395900D03*
X206572000Y-74842700D03*
X202000000Y-74842700D03*
%TD*%
%TO.C,U3*%
X212260600Y-64921300D03*
X207764800Y-64895900D03*
X212336800Y-58342700D03*
X207764800Y-58342700D03*
%TD*%
%TO.C,U4*%
X217764800Y-58342700D03*
X222336800Y-58342700D03*
X217764800Y-64895900D03*
X222260600Y-64921300D03*
%TD*%
%TO.C,u7*%
X228260600Y-48421300D03*
X223764800Y-48395900D03*
X228336800Y-41842700D03*
X223764800Y-41842700D03*
%TD*%
%TO.C,U2*%
X206495800Y-48421300D03*
X202000000Y-48395900D03*
X206572000Y-41842700D03*
X202000000Y-41842700D03*
%TD*%
D13*
%TO.C,R6*%
X111850000Y-71420000D03*
D14*
X111850000Y-81580000D03*
%TD*%
D13*
%TO.C,R5*%
X115900000Y-71420000D03*
D14*
X115900000Y-81580000D03*
%TD*%
D13*
%TO.C,R4*%
X119950000Y-71420000D03*
D14*
X119950000Y-81580000D03*
%TD*%
D13*
%TO.C,R3*%
X124000000Y-71420000D03*
D14*
X124000000Y-81580000D03*
%TD*%
D13*
%TO.C,R2*%
X128050000Y-71420000D03*
D14*
X128050000Y-81580000D03*
%TD*%
D13*
%TO.C,R1*%
X132100000Y-71420000D03*
D14*
X132100000Y-81580000D03*
%TD*%
D15*
%TO.C,U1*%
X105397500Y-47300000D03*
D12*
X102857500Y-47300000D03*
X100317500Y-47300000D03*
X97777500Y-47300000D03*
X95237500Y-47300000D03*
X92697500Y-47300000D03*
X90157500Y-47300000D03*
X87617500Y-47300000D03*
X85077500Y-47300000D03*
X82537500Y-47300000D03*
X79997500Y-47300000D03*
X77457500Y-47300000D03*
X74917500Y-47300000D03*
X72377500Y-47300000D03*
X69837500Y-47300000D03*
X69837500Y-72700000D03*
X72377500Y-72700000D03*
X74917500Y-72700000D03*
X77457500Y-72700000D03*
X79997500Y-72700000D03*
X82537500Y-72700000D03*
X85077500Y-72700000D03*
X87617500Y-72700000D03*
X90157500Y-72700000D03*
X92697500Y-72700000D03*
X95237500Y-72700000D03*
X97777500Y-72700000D03*
X100317500Y-72700000D03*
X102857500Y-72700000D03*
X105397500Y-72700000D03*
%TD*%
D16*
%TO.C,TP6*%
X105382500Y-78500000D03*
%TD*%
D11*
%TO.C,U9*%
X141880000Y-41930018D03*
D10*
X144420000Y-41930018D03*
X146960000Y-41930018D03*
X149500000Y-41930018D03*
X152040000Y-41930018D03*
X154580000Y-41930018D03*
X157120000Y-41930018D03*
X159660000Y-41930018D03*
%TD*%
D16*
%TO.C,TP14*%
X69882500Y-41800000D03*
%TD*%
%TO.C,TP13*%
X75382500Y-41800000D03*
%TD*%
%TO.C,TP12*%
X77250000Y-77750000D03*
%TD*%
%TO.C,TP10*%
X85250000Y-79500000D03*
%TD*%
%TO.C,TP9*%
X90000000Y-78500000D03*
%TD*%
%TO.C,TP8*%
X97882500Y-78500000D03*
%TD*%
%TO.C,TP7*%
X101500000Y-80000000D03*
%TD*%
%TO.C,TP5*%
X91000000Y-42000000D03*
%TD*%
%TO.C,TP4*%
X96000000Y-40000000D03*
%TD*%
%TO.C,TP3*%
X100382500Y-42500000D03*
%TD*%
%TO.C,TP2*%
X104500000Y-40000000D03*
%TD*%
%TO.C,TP1*%
X109000000Y-42000000D03*
%TD*%
D17*
%TO.C,D6*%
X127000000Y-62500000D03*
D18*
X129540000Y-62500000D03*
%TD*%
D17*
%TO.C,D5*%
X120000000Y-62500000D03*
D18*
X122540000Y-62500000D03*
%TD*%
D17*
%TO.C,D4*%
X113000000Y-62500000D03*
D18*
X115540000Y-62500000D03*
%TD*%
D17*
%TO.C,D3*%
X127000000Y-53500000D03*
D18*
X129540000Y-53500000D03*
%TD*%
D17*
%TO.C,D2*%
X120000000Y-53500000D03*
D18*
X122540000Y-53500000D03*
%TD*%
D17*
%TO.C,D1*%
X113000000Y-53500000D03*
D18*
X115540000Y-53500000D03*
%TD*%
M02*
