%TF.GenerationSoftware,KiCad,Pcbnew,8.0.1*%
%TF.CreationDate,2024-04-15T12:37:48+02:00*%
%TF.ProjectId,EEK,45454b2e-6b69-4636-9164-5f7063625858,V1.1*%
%TF.SameCoordinates,Original*%
%TF.FileFunction,Legend,Bot*%
%TF.FilePolarity,Positive*%
%FSLAX46Y46*%
G04 Gerber Fmt 4.6, Leading zero omitted, Abs format (unit mm)*
G04 Created by KiCad (PCBNEW 8.0.1) date 2024-04-15 12:37:48*
%MOMM*%
%LPD*%
G01*
G04 APERTURE LIST*
%ADD10C,0.150000*%
G04 APERTURE END LIST*
D10*
X160399028Y-87421752D02*
X160399028Y-88231276D01*
X160399028Y-88231276D02*
X160446647Y-88326514D01*
X160446647Y-88326514D02*
X160494266Y-88374133D01*
X160494266Y-88374133D02*
X160589504Y-88421752D01*
X160589504Y-88421752D02*
X160732361Y-88421752D01*
X160732361Y-88421752D02*
X160827599Y-88374133D01*
X160399028Y-88040800D02*
X160494266Y-88088419D01*
X160494266Y-88088419D02*
X160684742Y-88088419D01*
X160684742Y-88088419D02*
X160779980Y-88040800D01*
X160779980Y-88040800D02*
X160827599Y-87993180D01*
X160827599Y-87993180D02*
X160875218Y-87897942D01*
X160875218Y-87897942D02*
X160875218Y-87612228D01*
X160875218Y-87612228D02*
X160827599Y-87516990D01*
X160827599Y-87516990D02*
X160779980Y-87469371D01*
X160779980Y-87469371D02*
X160684742Y-87421752D01*
X160684742Y-87421752D02*
X160494266Y-87421752D01*
X160494266Y-87421752D02*
X160399028Y-87469371D01*
X159922837Y-88088419D02*
X159922837Y-87421752D01*
X159922837Y-87088419D02*
X159970456Y-87136038D01*
X159970456Y-87136038D02*
X159922837Y-87183657D01*
X159922837Y-87183657D02*
X159875218Y-87136038D01*
X159875218Y-87136038D02*
X159922837Y-87088419D01*
X159922837Y-87088419D02*
X159922837Y-87183657D01*
X159589504Y-87421752D02*
X159208552Y-87421752D01*
X159446647Y-87088419D02*
X159446647Y-87945561D01*
X159446647Y-87945561D02*
X159399028Y-88040800D01*
X159399028Y-88040800D02*
X159303790Y-88088419D01*
X159303790Y-88088419D02*
X159208552Y-88088419D01*
X158875218Y-88088419D02*
X158875218Y-87088419D01*
X158446647Y-88088419D02*
X158446647Y-87564609D01*
X158446647Y-87564609D02*
X158494266Y-87469371D01*
X158494266Y-87469371D02*
X158589504Y-87421752D01*
X158589504Y-87421752D02*
X158732361Y-87421752D01*
X158732361Y-87421752D02*
X158827599Y-87469371D01*
X158827599Y-87469371D02*
X158875218Y-87516990D01*
X157541885Y-87421752D02*
X157541885Y-88088419D01*
X157970456Y-87421752D02*
X157970456Y-87945561D01*
X157970456Y-87945561D02*
X157922837Y-88040800D01*
X157922837Y-88040800D02*
X157827599Y-88088419D01*
X157827599Y-88088419D02*
X157684742Y-88088419D01*
X157684742Y-88088419D02*
X157589504Y-88040800D01*
X157589504Y-88040800D02*
X157541885Y-87993180D01*
X157065694Y-88088419D02*
X157065694Y-87088419D01*
X157065694Y-87469371D02*
X156970456Y-87421752D01*
X156970456Y-87421752D02*
X156779980Y-87421752D01*
X156779980Y-87421752D02*
X156684742Y-87469371D01*
X156684742Y-87469371D02*
X156637123Y-87516990D01*
X156637123Y-87516990D02*
X156589504Y-87612228D01*
X156589504Y-87612228D02*
X156589504Y-87897942D01*
X156589504Y-87897942D02*
X156637123Y-87993180D01*
X156637123Y-87993180D02*
X156684742Y-88040800D01*
X156684742Y-88040800D02*
X156779980Y-88088419D01*
X156779980Y-88088419D02*
X156970456Y-88088419D01*
X156970456Y-88088419D02*
X157065694Y-88040800D01*
X156160932Y-87564609D02*
X155827599Y-87564609D01*
X155684742Y-88088419D02*
X156160932Y-88088419D01*
X156160932Y-88088419D02*
X156160932Y-87088419D01*
X156160932Y-87088419D02*
X155684742Y-87088419D01*
X155256170Y-87564609D02*
X154922837Y-87564609D01*
X154779980Y-88088419D02*
X155256170Y-88088419D01*
X155256170Y-88088419D02*
X155256170Y-87088419D01*
X155256170Y-87088419D02*
X154779980Y-87088419D01*
X154351408Y-88088419D02*
X154351408Y-87088419D01*
X153779980Y-88088419D02*
X154208551Y-87516990D01*
X153779980Y-87088419D02*
X154351408Y-87659847D01*
%TO.C,QR1*%
G36*
X165077600Y-89633600D02*
G01*
X165577600Y-89633600D01*
X165577600Y-89133600D01*
X165077600Y-89133600D01*
X165077600Y-89633600D01*
G37*
G36*
X165077600Y-90133600D02*
G01*
X165577600Y-90133600D01*
X165577600Y-89633600D01*
X165077600Y-89633600D01*
X165077600Y-90133600D01*
G37*
G36*
X165077600Y-90633600D02*
G01*
X165577600Y-90633600D01*
X165577600Y-90133600D01*
X165077600Y-90133600D01*
X165077600Y-90633600D01*
G37*
G36*
X165077600Y-91133600D02*
G01*
X165577600Y-91133600D01*
X165577600Y-90633600D01*
X165077600Y-90633600D01*
X165077600Y-91133600D01*
G37*
G36*
X165077600Y-91633600D02*
G01*
X165577600Y-91633600D01*
X165577600Y-91133600D01*
X165077600Y-91133600D01*
X165077600Y-91633600D01*
G37*
G36*
X165077600Y-92133600D02*
G01*
X165577600Y-92133600D01*
X165577600Y-91633600D01*
X165077600Y-91633600D01*
X165077600Y-92133600D01*
G37*
G36*
X165077600Y-92633600D02*
G01*
X165577600Y-92633600D01*
X165577600Y-92133600D01*
X165077600Y-92133600D01*
X165077600Y-92633600D01*
G37*
G36*
X165077600Y-93633600D02*
G01*
X165577600Y-93633600D01*
X165577600Y-93133600D01*
X165077600Y-93133600D01*
X165077600Y-93633600D01*
G37*
G36*
X165077600Y-94633600D02*
G01*
X165577600Y-94633600D01*
X165577600Y-94133600D01*
X165077600Y-94133600D01*
X165077600Y-94633600D01*
G37*
G36*
X165077600Y-95633600D02*
G01*
X165577600Y-95633600D01*
X165577600Y-95133600D01*
X165077600Y-95133600D01*
X165077600Y-95633600D01*
G37*
G36*
X165077600Y-96133600D02*
G01*
X165577600Y-96133600D01*
X165577600Y-95633600D01*
X165077600Y-95633600D01*
X165077600Y-96133600D01*
G37*
G36*
X165077600Y-97133600D02*
G01*
X165577600Y-97133600D01*
X165577600Y-96633600D01*
X165077600Y-96633600D01*
X165077600Y-97133600D01*
G37*
G36*
X165077600Y-98133600D02*
G01*
X165577600Y-98133600D01*
X165577600Y-97633600D01*
X165077600Y-97633600D01*
X165077600Y-98133600D01*
G37*
G36*
X165077600Y-99133600D02*
G01*
X165577600Y-99133600D01*
X165577600Y-98633600D01*
X165077600Y-98633600D01*
X165077600Y-99133600D01*
G37*
G36*
X165077600Y-100133600D02*
G01*
X165577600Y-100133600D01*
X165577600Y-99633600D01*
X165077600Y-99633600D01*
X165077600Y-100133600D01*
G37*
G36*
X165077600Y-101633600D02*
G01*
X165577600Y-101633600D01*
X165577600Y-101133600D01*
X165077600Y-101133600D01*
X165077600Y-101633600D01*
G37*
G36*
X165077600Y-102633600D02*
G01*
X165577600Y-102633600D01*
X165577600Y-102133600D01*
X165077600Y-102133600D01*
X165077600Y-102633600D01*
G37*
G36*
X165077600Y-103133600D02*
G01*
X165577600Y-103133600D01*
X165577600Y-102633600D01*
X165077600Y-102633600D01*
X165077600Y-103133600D01*
G37*
G36*
X165077600Y-103633600D02*
G01*
X165577600Y-103633600D01*
X165577600Y-103133600D01*
X165077600Y-103133600D01*
X165077600Y-103633600D01*
G37*
G36*
X165077600Y-104133600D02*
G01*
X165577600Y-104133600D01*
X165577600Y-103633600D01*
X165077600Y-103633600D01*
X165077600Y-104133600D01*
G37*
G36*
X165077600Y-104633600D02*
G01*
X165577600Y-104633600D01*
X165577600Y-104133600D01*
X165077600Y-104133600D01*
X165077600Y-104633600D01*
G37*
G36*
X165077600Y-105133600D02*
G01*
X165577600Y-105133600D01*
X165577600Y-104633600D01*
X165077600Y-104633600D01*
X165077600Y-105133600D01*
G37*
G36*
X165077600Y-105633600D02*
G01*
X165577600Y-105633600D01*
X165577600Y-105133600D01*
X165077600Y-105133600D01*
X165077600Y-105633600D01*
G37*
G36*
X164577600Y-89633600D02*
G01*
X165077600Y-89633600D01*
X165077600Y-89133600D01*
X164577600Y-89133600D01*
X164577600Y-89633600D01*
G37*
G36*
X164577600Y-92633600D02*
G01*
X165077600Y-92633600D01*
X165077600Y-92133600D01*
X164577600Y-92133600D01*
X164577600Y-92633600D01*
G37*
G36*
X164577600Y-96133600D02*
G01*
X165077600Y-96133600D01*
X165077600Y-95633600D01*
X164577600Y-95633600D01*
X164577600Y-96133600D01*
G37*
G36*
X164577600Y-96633600D02*
G01*
X165077600Y-96633600D01*
X165077600Y-96133600D01*
X164577600Y-96133600D01*
X164577600Y-96633600D01*
G37*
G36*
X164577600Y-98133600D02*
G01*
X165077600Y-98133600D01*
X165077600Y-97633600D01*
X164577600Y-97633600D01*
X164577600Y-98133600D01*
G37*
G36*
X164577600Y-98633600D02*
G01*
X165077600Y-98633600D01*
X165077600Y-98133600D01*
X164577600Y-98133600D01*
X164577600Y-98633600D01*
G37*
G36*
X164577600Y-99133600D02*
G01*
X165077600Y-99133600D01*
X165077600Y-98633600D01*
X164577600Y-98633600D01*
X164577600Y-99133600D01*
G37*
G36*
X164577600Y-99633600D02*
G01*
X165077600Y-99633600D01*
X165077600Y-99133600D01*
X164577600Y-99133600D01*
X164577600Y-99633600D01*
G37*
G36*
X164577600Y-100133600D02*
G01*
X165077600Y-100133600D01*
X165077600Y-99633600D01*
X164577600Y-99633600D01*
X164577600Y-100133600D01*
G37*
G36*
X164577600Y-101633600D02*
G01*
X165077600Y-101633600D01*
X165077600Y-101133600D01*
X164577600Y-101133600D01*
X164577600Y-101633600D01*
G37*
G36*
X164577600Y-102633600D02*
G01*
X165077600Y-102633600D01*
X165077600Y-102133600D01*
X164577600Y-102133600D01*
X164577600Y-102633600D01*
G37*
G36*
X164577600Y-105633600D02*
G01*
X165077600Y-105633600D01*
X165077600Y-105133600D01*
X164577600Y-105133600D01*
X164577600Y-105633600D01*
G37*
G36*
X164077600Y-89633600D02*
G01*
X164577600Y-89633600D01*
X164577600Y-89133600D01*
X164077600Y-89133600D01*
X164077600Y-89633600D01*
G37*
G36*
X164077600Y-90633600D02*
G01*
X164577600Y-90633600D01*
X164577600Y-90133600D01*
X164077600Y-90133600D01*
X164077600Y-90633600D01*
G37*
G36*
X164077600Y-91133600D02*
G01*
X164577600Y-91133600D01*
X164577600Y-90633600D01*
X164077600Y-90633600D01*
X164077600Y-91133600D01*
G37*
G36*
X164077600Y-91633600D02*
G01*
X164577600Y-91633600D01*
X164577600Y-91133600D01*
X164077600Y-91133600D01*
X164077600Y-91633600D01*
G37*
G36*
X164077600Y-92633600D02*
G01*
X164577600Y-92633600D01*
X164577600Y-92133600D01*
X164077600Y-92133600D01*
X164077600Y-92633600D01*
G37*
G36*
X164077600Y-94133600D02*
G01*
X164577600Y-94133600D01*
X164577600Y-93633600D01*
X164077600Y-93633600D01*
X164077600Y-94133600D01*
G37*
G36*
X164077600Y-95633600D02*
G01*
X164577600Y-95633600D01*
X164577600Y-95133600D01*
X164077600Y-95133600D01*
X164077600Y-95633600D01*
G37*
G36*
X164077600Y-96133600D02*
G01*
X164577600Y-96133600D01*
X164577600Y-95633600D01*
X164077600Y-95633600D01*
X164077600Y-96133600D01*
G37*
G36*
X164077600Y-97133600D02*
G01*
X164577600Y-97133600D01*
X164577600Y-96633600D01*
X164077600Y-96633600D01*
X164077600Y-97133600D01*
G37*
G36*
X164077600Y-97633600D02*
G01*
X164577600Y-97633600D01*
X164577600Y-97133600D01*
X164077600Y-97133600D01*
X164077600Y-97633600D01*
G37*
G36*
X164077600Y-98133600D02*
G01*
X164577600Y-98133600D01*
X164577600Y-97633600D01*
X164077600Y-97633600D01*
X164077600Y-98133600D01*
G37*
G36*
X164077600Y-98633600D02*
G01*
X164577600Y-98633600D01*
X164577600Y-98133600D01*
X164077600Y-98133600D01*
X164077600Y-98633600D01*
G37*
G36*
X164077600Y-99133600D02*
G01*
X164577600Y-99133600D01*
X164577600Y-98633600D01*
X164077600Y-98633600D01*
X164077600Y-99133600D01*
G37*
G36*
X164077600Y-99633600D02*
G01*
X164577600Y-99633600D01*
X164577600Y-99133600D01*
X164077600Y-99133600D01*
X164077600Y-99633600D01*
G37*
G36*
X164077600Y-101633600D02*
G01*
X164577600Y-101633600D01*
X164577600Y-101133600D01*
X164077600Y-101133600D01*
X164077600Y-101633600D01*
G37*
G36*
X164077600Y-102633600D02*
G01*
X164577600Y-102633600D01*
X164577600Y-102133600D01*
X164077600Y-102133600D01*
X164077600Y-102633600D01*
G37*
G36*
X164077600Y-103633600D02*
G01*
X164577600Y-103633600D01*
X164577600Y-103133600D01*
X164077600Y-103133600D01*
X164077600Y-103633600D01*
G37*
G36*
X164077600Y-104133600D02*
G01*
X164577600Y-104133600D01*
X164577600Y-103633600D01*
X164077600Y-103633600D01*
X164077600Y-104133600D01*
G37*
G36*
X164077600Y-104633600D02*
G01*
X164577600Y-104633600D01*
X164577600Y-104133600D01*
X164077600Y-104133600D01*
X164077600Y-104633600D01*
G37*
G36*
X164077600Y-105633600D02*
G01*
X164577600Y-105633600D01*
X164577600Y-105133600D01*
X164077600Y-105133600D01*
X164077600Y-105633600D01*
G37*
G36*
X163577600Y-89633600D02*
G01*
X164077600Y-89633600D01*
X164077600Y-89133600D01*
X163577600Y-89133600D01*
X163577600Y-89633600D01*
G37*
G36*
X163577600Y-90633600D02*
G01*
X164077600Y-90633600D01*
X164077600Y-90133600D01*
X163577600Y-90133600D01*
X163577600Y-90633600D01*
G37*
G36*
X163577600Y-91133600D02*
G01*
X164077600Y-91133600D01*
X164077600Y-90633600D01*
X163577600Y-90633600D01*
X163577600Y-91133600D01*
G37*
G36*
X163577600Y-91633600D02*
G01*
X164077600Y-91633600D01*
X164077600Y-91133600D01*
X163577600Y-91133600D01*
X163577600Y-91633600D01*
G37*
G36*
X163577600Y-92633600D02*
G01*
X164077600Y-92633600D01*
X164077600Y-92133600D01*
X163577600Y-92133600D01*
X163577600Y-92633600D01*
G37*
G36*
X163577600Y-94133600D02*
G01*
X164077600Y-94133600D01*
X164077600Y-93633600D01*
X163577600Y-93633600D01*
X163577600Y-94133600D01*
G37*
G36*
X163577600Y-95133600D02*
G01*
X164077600Y-95133600D01*
X164077600Y-94633600D01*
X163577600Y-94633600D01*
X163577600Y-95133600D01*
G37*
G36*
X163577600Y-95633600D02*
G01*
X164077600Y-95633600D01*
X164077600Y-95133600D01*
X163577600Y-95133600D01*
X163577600Y-95633600D01*
G37*
G36*
X163577600Y-96133600D02*
G01*
X164077600Y-96133600D01*
X164077600Y-95633600D01*
X163577600Y-95633600D01*
X163577600Y-96133600D01*
G37*
G36*
X163577600Y-96633600D02*
G01*
X164077600Y-96633600D01*
X164077600Y-96133600D01*
X163577600Y-96133600D01*
X163577600Y-96633600D01*
G37*
G36*
X163577600Y-97133600D02*
G01*
X164077600Y-97133600D01*
X164077600Y-96633600D01*
X163577600Y-96633600D01*
X163577600Y-97133600D01*
G37*
G36*
X163577600Y-98633600D02*
G01*
X164077600Y-98633600D01*
X164077600Y-98133600D01*
X163577600Y-98133600D01*
X163577600Y-98633600D01*
G37*
G36*
X163577600Y-99633600D02*
G01*
X164077600Y-99633600D01*
X164077600Y-99133600D01*
X163577600Y-99133600D01*
X163577600Y-99633600D01*
G37*
G36*
X163577600Y-101133600D02*
G01*
X164077600Y-101133600D01*
X164077600Y-100633600D01*
X163577600Y-100633600D01*
X163577600Y-101133600D01*
G37*
G36*
X163577600Y-101633600D02*
G01*
X164077600Y-101633600D01*
X164077600Y-101133600D01*
X163577600Y-101133600D01*
X163577600Y-101633600D01*
G37*
G36*
X163577600Y-102633600D02*
G01*
X164077600Y-102633600D01*
X164077600Y-102133600D01*
X163577600Y-102133600D01*
X163577600Y-102633600D01*
G37*
G36*
X163577600Y-103633600D02*
G01*
X164077600Y-103633600D01*
X164077600Y-103133600D01*
X163577600Y-103133600D01*
X163577600Y-103633600D01*
G37*
G36*
X163577600Y-104133600D02*
G01*
X164077600Y-104133600D01*
X164077600Y-103633600D01*
X163577600Y-103633600D01*
X163577600Y-104133600D01*
G37*
G36*
X163577600Y-104633600D02*
G01*
X164077600Y-104633600D01*
X164077600Y-104133600D01*
X163577600Y-104133600D01*
X163577600Y-104633600D01*
G37*
G36*
X163577600Y-105633600D02*
G01*
X164077600Y-105633600D01*
X164077600Y-105133600D01*
X163577600Y-105133600D01*
X163577600Y-105633600D01*
G37*
G36*
X163077600Y-89633600D02*
G01*
X163577600Y-89633600D01*
X163577600Y-89133600D01*
X163077600Y-89133600D01*
X163077600Y-89633600D01*
G37*
G36*
X163077600Y-90633600D02*
G01*
X163577600Y-90633600D01*
X163577600Y-90133600D01*
X163077600Y-90133600D01*
X163077600Y-90633600D01*
G37*
G36*
X163077600Y-91133600D02*
G01*
X163577600Y-91133600D01*
X163577600Y-90633600D01*
X163077600Y-90633600D01*
X163077600Y-91133600D01*
G37*
G36*
X163077600Y-91633600D02*
G01*
X163577600Y-91633600D01*
X163577600Y-91133600D01*
X163077600Y-91133600D01*
X163077600Y-91633600D01*
G37*
G36*
X163077600Y-92633600D02*
G01*
X163577600Y-92633600D01*
X163577600Y-92133600D01*
X163077600Y-92133600D01*
X163077600Y-92633600D01*
G37*
G36*
X163077600Y-93633600D02*
G01*
X163577600Y-93633600D01*
X163577600Y-93133600D01*
X163077600Y-93133600D01*
X163077600Y-93633600D01*
G37*
G36*
X163077600Y-94633600D02*
G01*
X163577600Y-94633600D01*
X163577600Y-94133600D01*
X163077600Y-94133600D01*
X163077600Y-94633600D01*
G37*
G36*
X163077600Y-95133600D02*
G01*
X163577600Y-95133600D01*
X163577600Y-94633600D01*
X163077600Y-94633600D01*
X163077600Y-95133600D01*
G37*
G36*
X163077600Y-97133600D02*
G01*
X163577600Y-97133600D01*
X163577600Y-96633600D01*
X163077600Y-96633600D01*
X163077600Y-97133600D01*
G37*
G36*
X163077600Y-97633600D02*
G01*
X163577600Y-97633600D01*
X163577600Y-97133600D01*
X163077600Y-97133600D01*
X163077600Y-97633600D01*
G37*
G36*
X163077600Y-99133600D02*
G01*
X163577600Y-99133600D01*
X163577600Y-98633600D01*
X163077600Y-98633600D01*
X163077600Y-99133600D01*
G37*
G36*
X163077600Y-99633600D02*
G01*
X163577600Y-99633600D01*
X163577600Y-99133600D01*
X163077600Y-99133600D01*
X163077600Y-99633600D01*
G37*
G36*
X163077600Y-100633600D02*
G01*
X163577600Y-100633600D01*
X163577600Y-100133600D01*
X163077600Y-100133600D01*
X163077600Y-100633600D01*
G37*
G36*
X163077600Y-102633600D02*
G01*
X163577600Y-102633600D01*
X163577600Y-102133600D01*
X163077600Y-102133600D01*
X163077600Y-102633600D01*
G37*
G36*
X163077600Y-103633600D02*
G01*
X163577600Y-103633600D01*
X163577600Y-103133600D01*
X163077600Y-103133600D01*
X163077600Y-103633600D01*
G37*
G36*
X163077600Y-104133600D02*
G01*
X163577600Y-104133600D01*
X163577600Y-103633600D01*
X163077600Y-103633600D01*
X163077600Y-104133600D01*
G37*
G36*
X163077600Y-104633600D02*
G01*
X163577600Y-104633600D01*
X163577600Y-104133600D01*
X163077600Y-104133600D01*
X163077600Y-104633600D01*
G37*
G36*
X163077600Y-105633600D02*
G01*
X163577600Y-105633600D01*
X163577600Y-105133600D01*
X163077600Y-105133600D01*
X163077600Y-105633600D01*
G37*
G36*
X162577600Y-89633600D02*
G01*
X163077600Y-89633600D01*
X163077600Y-89133600D01*
X162577600Y-89133600D01*
X162577600Y-89633600D01*
G37*
G36*
X162577600Y-92633600D02*
G01*
X163077600Y-92633600D01*
X163077600Y-92133600D01*
X162577600Y-92133600D01*
X162577600Y-92633600D01*
G37*
G36*
X162577600Y-94133600D02*
G01*
X163077600Y-94133600D01*
X163077600Y-93633600D01*
X162577600Y-93633600D01*
X162577600Y-94133600D01*
G37*
G36*
X162577600Y-94633600D02*
G01*
X163077600Y-94633600D01*
X163077600Y-94133600D01*
X162577600Y-94133600D01*
X162577600Y-94633600D01*
G37*
G36*
X162577600Y-95633600D02*
G01*
X163077600Y-95633600D01*
X163077600Y-95133600D01*
X162577600Y-95133600D01*
X162577600Y-95633600D01*
G37*
G36*
X162577600Y-96133600D02*
G01*
X163077600Y-96133600D01*
X163077600Y-95633600D01*
X162577600Y-95633600D01*
X162577600Y-96133600D01*
G37*
G36*
X162577600Y-96633600D02*
G01*
X163077600Y-96633600D01*
X163077600Y-96133600D01*
X162577600Y-96133600D01*
X162577600Y-96633600D01*
G37*
G36*
X162577600Y-100133600D02*
G01*
X163077600Y-100133600D01*
X163077600Y-99633600D01*
X162577600Y-99633600D01*
X162577600Y-100133600D01*
G37*
G36*
X162577600Y-100633600D02*
G01*
X163077600Y-100633600D01*
X163077600Y-100133600D01*
X162577600Y-100133600D01*
X162577600Y-100633600D01*
G37*
G36*
X162577600Y-101633600D02*
G01*
X163077600Y-101633600D01*
X163077600Y-101133600D01*
X162577600Y-101133600D01*
X162577600Y-101633600D01*
G37*
G36*
X162577600Y-102633600D02*
G01*
X163077600Y-102633600D01*
X163077600Y-102133600D01*
X162577600Y-102133600D01*
X162577600Y-102633600D01*
G37*
G36*
X162577600Y-105633600D02*
G01*
X163077600Y-105633600D01*
X163077600Y-105133600D01*
X162577600Y-105133600D01*
X162577600Y-105633600D01*
G37*
G36*
X162077600Y-89633600D02*
G01*
X162577600Y-89633600D01*
X162577600Y-89133600D01*
X162077600Y-89133600D01*
X162077600Y-89633600D01*
G37*
G36*
X162077600Y-90133600D02*
G01*
X162577600Y-90133600D01*
X162577600Y-89633600D01*
X162077600Y-89633600D01*
X162077600Y-90133600D01*
G37*
G36*
X162077600Y-90633600D02*
G01*
X162577600Y-90633600D01*
X162577600Y-90133600D01*
X162077600Y-90133600D01*
X162077600Y-90633600D01*
G37*
G36*
X162077600Y-91133600D02*
G01*
X162577600Y-91133600D01*
X162577600Y-90633600D01*
X162077600Y-90633600D01*
X162077600Y-91133600D01*
G37*
G36*
X162077600Y-91633600D02*
G01*
X162577600Y-91633600D01*
X162577600Y-91133600D01*
X162077600Y-91133600D01*
X162077600Y-91633600D01*
G37*
G36*
X162077600Y-92133600D02*
G01*
X162577600Y-92133600D01*
X162577600Y-91633600D01*
X162077600Y-91633600D01*
X162077600Y-92133600D01*
G37*
G36*
X162077600Y-92633600D02*
G01*
X162577600Y-92633600D01*
X162577600Y-92133600D01*
X162077600Y-92133600D01*
X162077600Y-92633600D01*
G37*
G36*
X162077600Y-93633600D02*
G01*
X162577600Y-93633600D01*
X162577600Y-93133600D01*
X162077600Y-93133600D01*
X162077600Y-93633600D01*
G37*
G36*
X162077600Y-94633600D02*
G01*
X162577600Y-94633600D01*
X162577600Y-94133600D01*
X162077600Y-94133600D01*
X162077600Y-94633600D01*
G37*
G36*
X162077600Y-95633600D02*
G01*
X162577600Y-95633600D01*
X162577600Y-95133600D01*
X162077600Y-95133600D01*
X162077600Y-95633600D01*
G37*
G36*
X162077600Y-96633600D02*
G01*
X162577600Y-96633600D01*
X162577600Y-96133600D01*
X162077600Y-96133600D01*
X162077600Y-96633600D01*
G37*
G36*
X162077600Y-97633600D02*
G01*
X162577600Y-97633600D01*
X162577600Y-97133600D01*
X162077600Y-97133600D01*
X162077600Y-97633600D01*
G37*
G36*
X162077600Y-98633600D02*
G01*
X162577600Y-98633600D01*
X162577600Y-98133600D01*
X162077600Y-98133600D01*
X162077600Y-98633600D01*
G37*
G36*
X162077600Y-99633600D02*
G01*
X162577600Y-99633600D01*
X162577600Y-99133600D01*
X162077600Y-99133600D01*
X162077600Y-99633600D01*
G37*
G36*
X162077600Y-100633600D02*
G01*
X162577600Y-100633600D01*
X162577600Y-100133600D01*
X162077600Y-100133600D01*
X162077600Y-100633600D01*
G37*
G36*
X162077600Y-101633600D02*
G01*
X162577600Y-101633600D01*
X162577600Y-101133600D01*
X162077600Y-101133600D01*
X162077600Y-101633600D01*
G37*
G36*
X162077600Y-102633600D02*
G01*
X162577600Y-102633600D01*
X162577600Y-102133600D01*
X162077600Y-102133600D01*
X162077600Y-102633600D01*
G37*
G36*
X162077600Y-103133600D02*
G01*
X162577600Y-103133600D01*
X162577600Y-102633600D01*
X162077600Y-102633600D01*
X162077600Y-103133600D01*
G37*
G36*
X162077600Y-103633600D02*
G01*
X162577600Y-103633600D01*
X162577600Y-103133600D01*
X162077600Y-103133600D01*
X162077600Y-103633600D01*
G37*
G36*
X162077600Y-104133600D02*
G01*
X162577600Y-104133600D01*
X162577600Y-103633600D01*
X162077600Y-103633600D01*
X162077600Y-104133600D01*
G37*
G36*
X162077600Y-104633600D02*
G01*
X162577600Y-104633600D01*
X162577600Y-104133600D01*
X162077600Y-104133600D01*
X162077600Y-104633600D01*
G37*
G36*
X162077600Y-105133600D02*
G01*
X162577600Y-105133600D01*
X162577600Y-104633600D01*
X162077600Y-104633600D01*
X162077600Y-105133600D01*
G37*
G36*
X162077600Y-105633600D02*
G01*
X162577600Y-105633600D01*
X162577600Y-105133600D01*
X162077600Y-105133600D01*
X162077600Y-105633600D01*
G37*
G36*
X161577600Y-93633600D02*
G01*
X162077600Y-93633600D01*
X162077600Y-93133600D01*
X161577600Y-93133600D01*
X161577600Y-93633600D01*
G37*
G36*
X161577600Y-94133600D02*
G01*
X162077600Y-94133600D01*
X162077600Y-93633600D01*
X161577600Y-93633600D01*
X161577600Y-94133600D01*
G37*
G36*
X161577600Y-94633600D02*
G01*
X162077600Y-94633600D01*
X162077600Y-94133600D01*
X161577600Y-94133600D01*
X161577600Y-94633600D01*
G37*
G36*
X161577600Y-95133600D02*
G01*
X162077600Y-95133600D01*
X162077600Y-94633600D01*
X161577600Y-94633600D01*
X161577600Y-95133600D01*
G37*
G36*
X161577600Y-96133600D02*
G01*
X162077600Y-96133600D01*
X162077600Y-95633600D01*
X161577600Y-95633600D01*
X161577600Y-96133600D01*
G37*
G36*
X161577600Y-96633600D02*
G01*
X162077600Y-96633600D01*
X162077600Y-96133600D01*
X161577600Y-96133600D01*
X161577600Y-96633600D01*
G37*
G36*
X161577600Y-97133600D02*
G01*
X162077600Y-97133600D01*
X162077600Y-96633600D01*
X161577600Y-96633600D01*
X161577600Y-97133600D01*
G37*
G36*
X161577600Y-97633600D02*
G01*
X162077600Y-97633600D01*
X162077600Y-97133600D01*
X161577600Y-97133600D01*
X161577600Y-97633600D01*
G37*
G36*
X161577600Y-99133600D02*
G01*
X162077600Y-99133600D01*
X162077600Y-98633600D01*
X161577600Y-98633600D01*
X161577600Y-99133600D01*
G37*
G36*
X161577600Y-101133600D02*
G01*
X162077600Y-101133600D01*
X162077600Y-100633600D01*
X161577600Y-100633600D01*
X161577600Y-101133600D01*
G37*
G36*
X161077600Y-89633600D02*
G01*
X161577600Y-89633600D01*
X161577600Y-89133600D01*
X161077600Y-89133600D01*
X161077600Y-89633600D01*
G37*
G36*
X161077600Y-91133600D02*
G01*
X161577600Y-91133600D01*
X161577600Y-90633600D01*
X161077600Y-90633600D01*
X161077600Y-91133600D01*
G37*
G36*
X161077600Y-91633600D02*
G01*
X161577600Y-91633600D01*
X161577600Y-91133600D01*
X161077600Y-91133600D01*
X161077600Y-91633600D01*
G37*
G36*
X161077600Y-92133600D02*
G01*
X161577600Y-92133600D01*
X161577600Y-91633600D01*
X161077600Y-91633600D01*
X161077600Y-92133600D01*
G37*
G36*
X161077600Y-92633600D02*
G01*
X161577600Y-92633600D01*
X161577600Y-92133600D01*
X161077600Y-92133600D01*
X161077600Y-92633600D01*
G37*
G36*
X161077600Y-93133600D02*
G01*
X161577600Y-93133600D01*
X161577600Y-92633600D01*
X161077600Y-92633600D01*
X161077600Y-93133600D01*
G37*
G36*
X161077600Y-93633600D02*
G01*
X161577600Y-93633600D01*
X161577600Y-93133600D01*
X161077600Y-93133600D01*
X161077600Y-93633600D01*
G37*
G36*
X161077600Y-94133600D02*
G01*
X161577600Y-94133600D01*
X161577600Y-93633600D01*
X161077600Y-93633600D01*
X161077600Y-94133600D01*
G37*
G36*
X161077600Y-95133600D02*
G01*
X161577600Y-95133600D01*
X161577600Y-94633600D01*
X161077600Y-94633600D01*
X161077600Y-95133600D01*
G37*
G36*
X161077600Y-95633600D02*
G01*
X161577600Y-95633600D01*
X161577600Y-95133600D01*
X161077600Y-95133600D01*
X161077600Y-95633600D01*
G37*
G36*
X161077600Y-96633600D02*
G01*
X161577600Y-96633600D01*
X161577600Y-96133600D01*
X161077600Y-96133600D01*
X161077600Y-96633600D01*
G37*
G36*
X161077600Y-97133600D02*
G01*
X161577600Y-97133600D01*
X161577600Y-96633600D01*
X161077600Y-96633600D01*
X161077600Y-97133600D01*
G37*
G36*
X161077600Y-97633600D02*
G01*
X161577600Y-97633600D01*
X161577600Y-97133600D01*
X161077600Y-97133600D01*
X161077600Y-97633600D01*
G37*
G36*
X161077600Y-99133600D02*
G01*
X161577600Y-99133600D01*
X161577600Y-98633600D01*
X161077600Y-98633600D01*
X161077600Y-99133600D01*
G37*
G36*
X161077600Y-100133600D02*
G01*
X161577600Y-100133600D01*
X161577600Y-99633600D01*
X161077600Y-99633600D01*
X161077600Y-100133600D01*
G37*
G36*
X161077600Y-102133600D02*
G01*
X161577600Y-102133600D01*
X161577600Y-101633600D01*
X161077600Y-101633600D01*
X161077600Y-102133600D01*
G37*
G36*
X161077600Y-102633600D02*
G01*
X161577600Y-102633600D01*
X161577600Y-102133600D01*
X161077600Y-102133600D01*
X161077600Y-102633600D01*
G37*
G36*
X161077600Y-103633600D02*
G01*
X161577600Y-103633600D01*
X161577600Y-103133600D01*
X161077600Y-103133600D01*
X161077600Y-103633600D01*
G37*
G36*
X161077600Y-105633600D02*
G01*
X161577600Y-105633600D01*
X161577600Y-105133600D01*
X161077600Y-105133600D01*
X161077600Y-105633600D01*
G37*
G36*
X160577600Y-91133600D02*
G01*
X161077600Y-91133600D01*
X161077600Y-90633600D01*
X160577600Y-90633600D01*
X160577600Y-91133600D01*
G37*
G36*
X160577600Y-97633600D02*
G01*
X161077600Y-97633600D01*
X161077600Y-97133600D01*
X160577600Y-97133600D01*
X160577600Y-97633600D01*
G37*
G36*
X160577600Y-99633600D02*
G01*
X161077600Y-99633600D01*
X161077600Y-99133600D01*
X160577600Y-99133600D01*
X160577600Y-99633600D01*
G37*
G36*
X160577600Y-100133600D02*
G01*
X161077600Y-100133600D01*
X161077600Y-99633600D01*
X160577600Y-99633600D01*
X160577600Y-100133600D01*
G37*
G36*
X160577600Y-102133600D02*
G01*
X161077600Y-102133600D01*
X161077600Y-101633600D01*
X160577600Y-101633600D01*
X160577600Y-102133600D01*
G37*
G36*
X160577600Y-104133600D02*
G01*
X161077600Y-104133600D01*
X161077600Y-103633600D01*
X160577600Y-103633600D01*
X160577600Y-104133600D01*
G37*
G36*
X160577600Y-104633600D02*
G01*
X161077600Y-104633600D01*
X161077600Y-104133600D01*
X160577600Y-104133600D01*
X160577600Y-104633600D01*
G37*
G36*
X160577600Y-105133600D02*
G01*
X161077600Y-105133600D01*
X161077600Y-104633600D01*
X160577600Y-104633600D01*
X160577600Y-105133600D01*
G37*
G36*
X160577600Y-105633600D02*
G01*
X161077600Y-105633600D01*
X161077600Y-105133600D01*
X160577600Y-105133600D01*
X160577600Y-105633600D01*
G37*
G36*
X160077600Y-90133600D02*
G01*
X160577600Y-90133600D01*
X160577600Y-89633600D01*
X160077600Y-89633600D01*
X160077600Y-90133600D01*
G37*
G36*
X160077600Y-90633600D02*
G01*
X160577600Y-90633600D01*
X160577600Y-90133600D01*
X160077600Y-90133600D01*
X160077600Y-90633600D01*
G37*
G36*
X160077600Y-91133600D02*
G01*
X160577600Y-91133600D01*
X160577600Y-90633600D01*
X160077600Y-90633600D01*
X160077600Y-91133600D01*
G37*
G36*
X160077600Y-92133600D02*
G01*
X160577600Y-92133600D01*
X160577600Y-91633600D01*
X160077600Y-91633600D01*
X160077600Y-92133600D01*
G37*
G36*
X160077600Y-92633600D02*
G01*
X160577600Y-92633600D01*
X160577600Y-92133600D01*
X160077600Y-92133600D01*
X160077600Y-92633600D01*
G37*
G36*
X160077600Y-93133600D02*
G01*
X160577600Y-93133600D01*
X160577600Y-92633600D01*
X160077600Y-92633600D01*
X160077600Y-93133600D01*
G37*
G36*
X160077600Y-97133600D02*
G01*
X160577600Y-97133600D01*
X160577600Y-96633600D01*
X160077600Y-96633600D01*
X160077600Y-97133600D01*
G37*
G36*
X160077600Y-97633600D02*
G01*
X160577600Y-97633600D01*
X160577600Y-97133600D01*
X160077600Y-97133600D01*
X160077600Y-97633600D01*
G37*
G36*
X160077600Y-98133600D02*
G01*
X160577600Y-98133600D01*
X160577600Y-97633600D01*
X160077600Y-97633600D01*
X160077600Y-98133600D01*
G37*
G36*
X160077600Y-99633600D02*
G01*
X160577600Y-99633600D01*
X160577600Y-99133600D01*
X160077600Y-99133600D01*
X160077600Y-99633600D01*
G37*
G36*
X160077600Y-100633600D02*
G01*
X160577600Y-100633600D01*
X160577600Y-100133600D01*
X160077600Y-100133600D01*
X160077600Y-100633600D01*
G37*
G36*
X160077600Y-101133600D02*
G01*
X160577600Y-101133600D01*
X160577600Y-100633600D01*
X160077600Y-100633600D01*
X160077600Y-101133600D01*
G37*
G36*
X160077600Y-103133600D02*
G01*
X160577600Y-103133600D01*
X160577600Y-102633600D01*
X160077600Y-102633600D01*
X160077600Y-103133600D01*
G37*
G36*
X160077600Y-104633600D02*
G01*
X160577600Y-104633600D01*
X160577600Y-104133600D01*
X160077600Y-104133600D01*
X160077600Y-104633600D01*
G37*
G36*
X160077600Y-105633600D02*
G01*
X160577600Y-105633600D01*
X160577600Y-105133600D01*
X160077600Y-105133600D01*
X160077600Y-105633600D01*
G37*
G36*
X159577600Y-89633600D02*
G01*
X160077600Y-89633600D01*
X160077600Y-89133600D01*
X159577600Y-89133600D01*
X159577600Y-89633600D01*
G37*
G36*
X159577600Y-90133600D02*
G01*
X160077600Y-90133600D01*
X160077600Y-89633600D01*
X159577600Y-89633600D01*
X159577600Y-90133600D01*
G37*
G36*
X159577600Y-90633600D02*
G01*
X160077600Y-90633600D01*
X160077600Y-90133600D01*
X159577600Y-90133600D01*
X159577600Y-90633600D01*
G37*
G36*
X159577600Y-91133600D02*
G01*
X160077600Y-91133600D01*
X160077600Y-90633600D01*
X159577600Y-90633600D01*
X159577600Y-91133600D01*
G37*
G36*
X159577600Y-91633600D02*
G01*
X160077600Y-91633600D01*
X160077600Y-91133600D01*
X159577600Y-91133600D01*
X159577600Y-91633600D01*
G37*
G36*
X159577600Y-95133600D02*
G01*
X160077600Y-95133600D01*
X160077600Y-94633600D01*
X159577600Y-94633600D01*
X159577600Y-95133600D01*
G37*
G36*
X159577600Y-97633600D02*
G01*
X160077600Y-97633600D01*
X160077600Y-97133600D01*
X159577600Y-97133600D01*
X159577600Y-97633600D01*
G37*
G36*
X159577600Y-99633600D02*
G01*
X160077600Y-99633600D01*
X160077600Y-99133600D01*
X159577600Y-99133600D01*
X159577600Y-99633600D01*
G37*
G36*
X159577600Y-102133600D02*
G01*
X160077600Y-102133600D01*
X160077600Y-101633600D01*
X159577600Y-101633600D01*
X159577600Y-102133600D01*
G37*
G36*
X159577600Y-105133600D02*
G01*
X160077600Y-105133600D01*
X160077600Y-104633600D01*
X159577600Y-104633600D01*
X159577600Y-105133600D01*
G37*
G36*
X159577600Y-105633600D02*
G01*
X160077600Y-105633600D01*
X160077600Y-105133600D01*
X159577600Y-105133600D01*
X159577600Y-105633600D01*
G37*
G36*
X159077600Y-91133600D02*
G01*
X159577600Y-91133600D01*
X159577600Y-90633600D01*
X159077600Y-90633600D01*
X159077600Y-91133600D01*
G37*
G36*
X159077600Y-91633600D02*
G01*
X159577600Y-91633600D01*
X159577600Y-91133600D01*
X159077600Y-91133600D01*
X159077600Y-91633600D01*
G37*
G36*
X159077600Y-92633600D02*
G01*
X159577600Y-92633600D01*
X159577600Y-92133600D01*
X159077600Y-92133600D01*
X159077600Y-92633600D01*
G37*
G36*
X159077600Y-94633600D02*
G01*
X159577600Y-94633600D01*
X159577600Y-94133600D01*
X159077600Y-94133600D01*
X159077600Y-94633600D01*
G37*
G36*
X159077600Y-96133600D02*
G01*
X159577600Y-96133600D01*
X159577600Y-95633600D01*
X159077600Y-95633600D01*
X159077600Y-96133600D01*
G37*
G36*
X159077600Y-96633600D02*
G01*
X159577600Y-96633600D01*
X159577600Y-96133600D01*
X159077600Y-96133600D01*
X159077600Y-96633600D01*
G37*
G36*
X159077600Y-97133600D02*
G01*
X159577600Y-97133600D01*
X159577600Y-96633600D01*
X159077600Y-96633600D01*
X159077600Y-97133600D01*
G37*
G36*
X159077600Y-97633600D02*
G01*
X159577600Y-97633600D01*
X159577600Y-97133600D01*
X159077600Y-97133600D01*
X159077600Y-97633600D01*
G37*
G36*
X159077600Y-98133600D02*
G01*
X159577600Y-98133600D01*
X159577600Y-97633600D01*
X159077600Y-97633600D01*
X159077600Y-98133600D01*
G37*
G36*
X159077600Y-98633600D02*
G01*
X159577600Y-98633600D01*
X159577600Y-98133600D01*
X159077600Y-98133600D01*
X159077600Y-98633600D01*
G37*
G36*
X159077600Y-100633600D02*
G01*
X159577600Y-100633600D01*
X159577600Y-100133600D01*
X159077600Y-100133600D01*
X159077600Y-100633600D01*
G37*
G36*
X159077600Y-103133600D02*
G01*
X159577600Y-103133600D01*
X159577600Y-102633600D01*
X159077600Y-102633600D01*
X159077600Y-103133600D01*
G37*
G36*
X159077600Y-105633600D02*
G01*
X159577600Y-105633600D01*
X159577600Y-105133600D01*
X159077600Y-105133600D01*
X159077600Y-105633600D01*
G37*
G36*
X158577600Y-89633600D02*
G01*
X159077600Y-89633600D01*
X159077600Y-89133600D01*
X158577600Y-89133600D01*
X158577600Y-89633600D01*
G37*
G36*
X158577600Y-90133600D02*
G01*
X159077600Y-90133600D01*
X159077600Y-89633600D01*
X158577600Y-89633600D01*
X158577600Y-90133600D01*
G37*
G36*
X158577600Y-93133600D02*
G01*
X159077600Y-93133600D01*
X159077600Y-92633600D01*
X158577600Y-92633600D01*
X158577600Y-93133600D01*
G37*
G36*
X158577600Y-93633600D02*
G01*
X159077600Y-93633600D01*
X159077600Y-93133600D01*
X158577600Y-93133600D01*
X158577600Y-93633600D01*
G37*
G36*
X158577600Y-94633600D02*
G01*
X159077600Y-94633600D01*
X159077600Y-94133600D01*
X158577600Y-94133600D01*
X158577600Y-94633600D01*
G37*
G36*
X158577600Y-95133600D02*
G01*
X159077600Y-95133600D01*
X159077600Y-94633600D01*
X158577600Y-94633600D01*
X158577600Y-95133600D01*
G37*
G36*
X158577600Y-95633600D02*
G01*
X159077600Y-95633600D01*
X159077600Y-95133600D01*
X158577600Y-95133600D01*
X158577600Y-95633600D01*
G37*
G36*
X158577600Y-96633600D02*
G01*
X159077600Y-96633600D01*
X159077600Y-96133600D01*
X158577600Y-96133600D01*
X158577600Y-96633600D01*
G37*
G36*
X158577600Y-97633600D02*
G01*
X159077600Y-97633600D01*
X159077600Y-97133600D01*
X158577600Y-97133600D01*
X158577600Y-97633600D01*
G37*
G36*
X158577600Y-98133600D02*
G01*
X159077600Y-98133600D01*
X159077600Y-97633600D01*
X158577600Y-97633600D01*
X158577600Y-98133600D01*
G37*
G36*
X158577600Y-98633600D02*
G01*
X159077600Y-98633600D01*
X159077600Y-98133600D01*
X158577600Y-98133600D01*
X158577600Y-98633600D01*
G37*
G36*
X158577600Y-99633600D02*
G01*
X159077600Y-99633600D01*
X159077600Y-99133600D01*
X158577600Y-99133600D01*
X158577600Y-99633600D01*
G37*
G36*
X158577600Y-100133600D02*
G01*
X159077600Y-100133600D01*
X159077600Y-99633600D01*
X158577600Y-99633600D01*
X158577600Y-100133600D01*
G37*
G36*
X158577600Y-101133600D02*
G01*
X159077600Y-101133600D01*
X159077600Y-100633600D01*
X158577600Y-100633600D01*
X158577600Y-101133600D01*
G37*
G36*
X158577600Y-101633600D02*
G01*
X159077600Y-101633600D01*
X159077600Y-101133600D01*
X158577600Y-101133600D01*
X158577600Y-101633600D01*
G37*
G36*
X158577600Y-103133600D02*
G01*
X159077600Y-103133600D01*
X159077600Y-102633600D01*
X158577600Y-102633600D01*
X158577600Y-103133600D01*
G37*
G36*
X158577600Y-103633600D02*
G01*
X159077600Y-103633600D01*
X159077600Y-103133600D01*
X158577600Y-103133600D01*
X158577600Y-103633600D01*
G37*
G36*
X158577600Y-104133600D02*
G01*
X159077600Y-104133600D01*
X159077600Y-103633600D01*
X158577600Y-103633600D01*
X158577600Y-104133600D01*
G37*
G36*
X158577600Y-105133600D02*
G01*
X159077600Y-105133600D01*
X159077600Y-104633600D01*
X158577600Y-104633600D01*
X158577600Y-105133600D01*
G37*
G36*
X158077600Y-89633600D02*
G01*
X158577600Y-89633600D01*
X158577600Y-89133600D01*
X158077600Y-89133600D01*
X158077600Y-89633600D01*
G37*
G36*
X158077600Y-90133600D02*
G01*
X158577600Y-90133600D01*
X158577600Y-89633600D01*
X158077600Y-89633600D01*
X158077600Y-90133600D01*
G37*
G36*
X158077600Y-90633600D02*
G01*
X158577600Y-90633600D01*
X158577600Y-90133600D01*
X158077600Y-90133600D01*
X158077600Y-90633600D01*
G37*
G36*
X158077600Y-92633600D02*
G01*
X158577600Y-92633600D01*
X158577600Y-92133600D01*
X158077600Y-92133600D01*
X158077600Y-92633600D01*
G37*
G36*
X158077600Y-94133600D02*
G01*
X158577600Y-94133600D01*
X158577600Y-93633600D01*
X158077600Y-93633600D01*
X158077600Y-94133600D01*
G37*
G36*
X158077600Y-94633600D02*
G01*
X158577600Y-94633600D01*
X158577600Y-94133600D01*
X158077600Y-94133600D01*
X158077600Y-94633600D01*
G37*
G36*
X158077600Y-96133600D02*
G01*
X158577600Y-96133600D01*
X158577600Y-95633600D01*
X158077600Y-95633600D01*
X158077600Y-96133600D01*
G37*
G36*
X158077600Y-96633600D02*
G01*
X158577600Y-96633600D01*
X158577600Y-96133600D01*
X158077600Y-96133600D01*
X158077600Y-96633600D01*
G37*
G36*
X158077600Y-97133600D02*
G01*
X158577600Y-97133600D01*
X158577600Y-96633600D01*
X158077600Y-96633600D01*
X158077600Y-97133600D01*
G37*
G36*
X158077600Y-97633600D02*
G01*
X158577600Y-97633600D01*
X158577600Y-97133600D01*
X158077600Y-97133600D01*
X158077600Y-97633600D01*
G37*
G36*
X158077600Y-98133600D02*
G01*
X158577600Y-98133600D01*
X158577600Y-97633600D01*
X158077600Y-97633600D01*
X158077600Y-98133600D01*
G37*
G36*
X158077600Y-98633600D02*
G01*
X158577600Y-98633600D01*
X158577600Y-98133600D01*
X158077600Y-98133600D01*
X158077600Y-98633600D01*
G37*
G36*
X158077600Y-99133600D02*
G01*
X158577600Y-99133600D01*
X158577600Y-98633600D01*
X158077600Y-98633600D01*
X158077600Y-99133600D01*
G37*
G36*
X158077600Y-99633600D02*
G01*
X158577600Y-99633600D01*
X158577600Y-99133600D01*
X158077600Y-99133600D01*
X158077600Y-99633600D01*
G37*
G36*
X158077600Y-100133600D02*
G01*
X158577600Y-100133600D01*
X158577600Y-99633600D01*
X158077600Y-99633600D01*
X158077600Y-100133600D01*
G37*
G36*
X158077600Y-101133600D02*
G01*
X158577600Y-101133600D01*
X158577600Y-100633600D01*
X158077600Y-100633600D01*
X158077600Y-101133600D01*
G37*
G36*
X158077600Y-101633600D02*
G01*
X158577600Y-101633600D01*
X158577600Y-101133600D01*
X158077600Y-101133600D01*
X158077600Y-101633600D01*
G37*
G36*
X158077600Y-102633600D02*
G01*
X158577600Y-102633600D01*
X158577600Y-102133600D01*
X158077600Y-102133600D01*
X158077600Y-102633600D01*
G37*
G36*
X158077600Y-103133600D02*
G01*
X158577600Y-103133600D01*
X158577600Y-102633600D01*
X158077600Y-102633600D01*
X158077600Y-103133600D01*
G37*
G36*
X158077600Y-104633600D02*
G01*
X158577600Y-104633600D01*
X158577600Y-104133600D01*
X158077600Y-104133600D01*
X158077600Y-104633600D01*
G37*
G36*
X158077600Y-105133600D02*
G01*
X158577600Y-105133600D01*
X158577600Y-104633600D01*
X158077600Y-104633600D01*
X158077600Y-105133600D01*
G37*
G36*
X157577600Y-92133600D02*
G01*
X158077600Y-92133600D01*
X158077600Y-91633600D01*
X157577600Y-91633600D01*
X157577600Y-92133600D01*
G37*
G36*
X157577600Y-93633600D02*
G01*
X158077600Y-93633600D01*
X158077600Y-93133600D01*
X157577600Y-93133600D01*
X157577600Y-93633600D01*
G37*
G36*
X157577600Y-94633600D02*
G01*
X158077600Y-94633600D01*
X158077600Y-94133600D01*
X157577600Y-94133600D01*
X157577600Y-94633600D01*
G37*
G36*
X157577600Y-95133600D02*
G01*
X158077600Y-95133600D01*
X158077600Y-94633600D01*
X157577600Y-94633600D01*
X157577600Y-95133600D01*
G37*
G36*
X157577600Y-96633600D02*
G01*
X158077600Y-96633600D01*
X158077600Y-96133600D01*
X157577600Y-96133600D01*
X157577600Y-96633600D01*
G37*
G36*
X157577600Y-97133600D02*
G01*
X158077600Y-97133600D01*
X158077600Y-96633600D01*
X157577600Y-96633600D01*
X157577600Y-97133600D01*
G37*
G36*
X157577600Y-98633600D02*
G01*
X158077600Y-98633600D01*
X158077600Y-98133600D01*
X157577600Y-98133600D01*
X157577600Y-98633600D01*
G37*
G36*
X157577600Y-99133600D02*
G01*
X158077600Y-99133600D01*
X158077600Y-98633600D01*
X157577600Y-98633600D01*
X157577600Y-99133600D01*
G37*
G36*
X157577600Y-101633600D02*
G01*
X158077600Y-101633600D01*
X158077600Y-101133600D01*
X157577600Y-101133600D01*
X157577600Y-101633600D01*
G37*
G36*
X157577600Y-102633600D02*
G01*
X158077600Y-102633600D01*
X158077600Y-102133600D01*
X157577600Y-102133600D01*
X157577600Y-102633600D01*
G37*
G36*
X157577600Y-103633600D02*
G01*
X158077600Y-103633600D01*
X158077600Y-103133600D01*
X157577600Y-103133600D01*
X157577600Y-103633600D01*
G37*
G36*
X157577600Y-104633600D02*
G01*
X158077600Y-104633600D01*
X158077600Y-104133600D01*
X157577600Y-104133600D01*
X157577600Y-104633600D01*
G37*
G36*
X157577600Y-105133600D02*
G01*
X158077600Y-105133600D01*
X158077600Y-104633600D01*
X157577600Y-104633600D01*
X157577600Y-105133600D01*
G37*
G36*
X157077600Y-90133600D02*
G01*
X157577600Y-90133600D01*
X157577600Y-89633600D01*
X157077600Y-89633600D01*
X157077600Y-90133600D01*
G37*
G36*
X157077600Y-90633600D02*
G01*
X157577600Y-90633600D01*
X157577600Y-90133600D01*
X157077600Y-90133600D01*
X157077600Y-90633600D01*
G37*
G36*
X157077600Y-91133600D02*
G01*
X157577600Y-91133600D01*
X157577600Y-90633600D01*
X157077600Y-90633600D01*
X157077600Y-91133600D01*
G37*
G36*
X157077600Y-91633600D02*
G01*
X157577600Y-91633600D01*
X157577600Y-91133600D01*
X157077600Y-91133600D01*
X157077600Y-91633600D01*
G37*
G36*
X157077600Y-92633600D02*
G01*
X157577600Y-92633600D01*
X157577600Y-92133600D01*
X157077600Y-92133600D01*
X157077600Y-92633600D01*
G37*
G36*
X157077600Y-94133600D02*
G01*
X157577600Y-94133600D01*
X157577600Y-93633600D01*
X157077600Y-93633600D01*
X157077600Y-94133600D01*
G37*
G36*
X157077600Y-95633600D02*
G01*
X157577600Y-95633600D01*
X157577600Y-95133600D01*
X157077600Y-95133600D01*
X157077600Y-95633600D01*
G37*
G36*
X157077600Y-97133600D02*
G01*
X157577600Y-97133600D01*
X157577600Y-96633600D01*
X157077600Y-96633600D01*
X157077600Y-97133600D01*
G37*
G36*
X157077600Y-98133600D02*
G01*
X157577600Y-98133600D01*
X157577600Y-97633600D01*
X157077600Y-97633600D01*
X157077600Y-98133600D01*
G37*
G36*
X157077600Y-100133600D02*
G01*
X157577600Y-100133600D01*
X157577600Y-99633600D01*
X157077600Y-99633600D01*
X157077600Y-100133600D01*
G37*
G36*
X157077600Y-100633600D02*
G01*
X157577600Y-100633600D01*
X157577600Y-100133600D01*
X157077600Y-100133600D01*
X157077600Y-100633600D01*
G37*
G36*
X157077600Y-102133600D02*
G01*
X157577600Y-102133600D01*
X157577600Y-101633600D01*
X157077600Y-101633600D01*
X157077600Y-102133600D01*
G37*
G36*
X157077600Y-103633600D02*
G01*
X157577600Y-103633600D01*
X157577600Y-103133600D01*
X157077600Y-103133600D01*
X157077600Y-103633600D01*
G37*
G36*
X157077600Y-105133600D02*
G01*
X157577600Y-105133600D01*
X157577600Y-104633600D01*
X157077600Y-104633600D01*
X157077600Y-105133600D01*
G37*
G36*
X156577600Y-90633600D02*
G01*
X157077600Y-90633600D01*
X157077600Y-90133600D01*
X156577600Y-90133600D01*
X156577600Y-90633600D01*
G37*
G36*
X156577600Y-91133600D02*
G01*
X157077600Y-91133600D01*
X157077600Y-90633600D01*
X156577600Y-90633600D01*
X156577600Y-91133600D01*
G37*
G36*
X156577600Y-91633600D02*
G01*
X157077600Y-91633600D01*
X157077600Y-91133600D01*
X156577600Y-91133600D01*
X156577600Y-91633600D01*
G37*
G36*
X156577600Y-93133600D02*
G01*
X157077600Y-93133600D01*
X157077600Y-92633600D01*
X156577600Y-92633600D01*
X156577600Y-93133600D01*
G37*
G36*
X156577600Y-93633600D02*
G01*
X157077600Y-93633600D01*
X157077600Y-93133600D01*
X156577600Y-93133600D01*
X156577600Y-93633600D01*
G37*
G36*
X156577600Y-94133600D02*
G01*
X157077600Y-94133600D01*
X157077600Y-93633600D01*
X156577600Y-93633600D01*
X156577600Y-94133600D01*
G37*
G36*
X156577600Y-96633600D02*
G01*
X157077600Y-96633600D01*
X157077600Y-96133600D01*
X156577600Y-96133600D01*
X156577600Y-96633600D01*
G37*
G36*
X156577600Y-97133600D02*
G01*
X157077600Y-97133600D01*
X157077600Y-96633600D01*
X156577600Y-96633600D01*
X156577600Y-97133600D01*
G37*
G36*
X156577600Y-98633600D02*
G01*
X157077600Y-98633600D01*
X157077600Y-98133600D01*
X156577600Y-98133600D01*
X156577600Y-98633600D01*
G37*
G36*
X156577600Y-99133600D02*
G01*
X157077600Y-99133600D01*
X157077600Y-98633600D01*
X156577600Y-98633600D01*
X156577600Y-99133600D01*
G37*
G36*
X156577600Y-100633600D02*
G01*
X157077600Y-100633600D01*
X157077600Y-100133600D01*
X156577600Y-100133600D01*
X156577600Y-100633600D01*
G37*
G36*
X156577600Y-101133600D02*
G01*
X157077600Y-101133600D01*
X157077600Y-100633600D01*
X156577600Y-100633600D01*
X156577600Y-101133600D01*
G37*
G36*
X156577600Y-101633600D02*
G01*
X157077600Y-101633600D01*
X157077600Y-101133600D01*
X156577600Y-101133600D01*
X156577600Y-101633600D01*
G37*
G36*
X156577600Y-102133600D02*
G01*
X157077600Y-102133600D01*
X157077600Y-101633600D01*
X156577600Y-101633600D01*
X156577600Y-102133600D01*
G37*
G36*
X156577600Y-104133600D02*
G01*
X157077600Y-104133600D01*
X157077600Y-103633600D01*
X156577600Y-103633600D01*
X156577600Y-104133600D01*
G37*
G36*
X156577600Y-104633600D02*
G01*
X157077600Y-104633600D01*
X157077600Y-104133600D01*
X156577600Y-104133600D01*
X156577600Y-104633600D01*
G37*
G36*
X156577600Y-105133600D02*
G01*
X157077600Y-105133600D01*
X157077600Y-104633600D01*
X156577600Y-104633600D01*
X156577600Y-105133600D01*
G37*
G36*
X156577600Y-105633600D02*
G01*
X157077600Y-105633600D01*
X157077600Y-105133600D01*
X156577600Y-105133600D01*
X156577600Y-105633600D01*
G37*
G36*
X156077600Y-90133600D02*
G01*
X156577600Y-90133600D01*
X156577600Y-89633600D01*
X156077600Y-89633600D01*
X156077600Y-90133600D01*
G37*
G36*
X156077600Y-90633600D02*
G01*
X156577600Y-90633600D01*
X156577600Y-90133600D01*
X156077600Y-90133600D01*
X156077600Y-90633600D01*
G37*
G36*
X156077600Y-92133600D02*
G01*
X156577600Y-92133600D01*
X156577600Y-91633600D01*
X156077600Y-91633600D01*
X156077600Y-92133600D01*
G37*
G36*
X156077600Y-92633600D02*
G01*
X156577600Y-92633600D01*
X156577600Y-92133600D01*
X156077600Y-92133600D01*
X156077600Y-92633600D01*
G37*
G36*
X156077600Y-94133600D02*
G01*
X156577600Y-94133600D01*
X156577600Y-93633600D01*
X156077600Y-93633600D01*
X156077600Y-94133600D01*
G37*
G36*
X156077600Y-94633600D02*
G01*
X156577600Y-94633600D01*
X156577600Y-94133600D01*
X156077600Y-94133600D01*
X156077600Y-94633600D01*
G37*
G36*
X156077600Y-96133600D02*
G01*
X156577600Y-96133600D01*
X156577600Y-95633600D01*
X156077600Y-95633600D01*
X156077600Y-96133600D01*
G37*
G36*
X156077600Y-96633600D02*
G01*
X156577600Y-96633600D01*
X156577600Y-96133600D01*
X156077600Y-96133600D01*
X156077600Y-96633600D01*
G37*
G36*
X156077600Y-97133600D02*
G01*
X156577600Y-97133600D01*
X156577600Y-96633600D01*
X156077600Y-96633600D01*
X156077600Y-97133600D01*
G37*
G36*
X156077600Y-99133600D02*
G01*
X156577600Y-99133600D01*
X156577600Y-98633600D01*
X156077600Y-98633600D01*
X156077600Y-99133600D01*
G37*
G36*
X156077600Y-99633600D02*
G01*
X156577600Y-99633600D01*
X156577600Y-99133600D01*
X156077600Y-99133600D01*
X156077600Y-99633600D01*
G37*
G36*
X156077600Y-102133600D02*
G01*
X156577600Y-102133600D01*
X156577600Y-101633600D01*
X156077600Y-101633600D01*
X156077600Y-102133600D01*
G37*
G36*
X156077600Y-102633600D02*
G01*
X156577600Y-102633600D01*
X156577600Y-102133600D01*
X156077600Y-102133600D01*
X156077600Y-102633600D01*
G37*
G36*
X156077600Y-104133600D02*
G01*
X156577600Y-104133600D01*
X156577600Y-103633600D01*
X156077600Y-103633600D01*
X156077600Y-104133600D01*
G37*
G36*
X156077600Y-105633600D02*
G01*
X156577600Y-105633600D01*
X156577600Y-105133600D01*
X156077600Y-105133600D01*
X156077600Y-105633600D01*
G37*
G36*
X155577600Y-90133600D02*
G01*
X156077600Y-90133600D01*
X156077600Y-89633600D01*
X155577600Y-89633600D01*
X155577600Y-90133600D01*
G37*
G36*
X155577600Y-91133600D02*
G01*
X156077600Y-91133600D01*
X156077600Y-90633600D01*
X155577600Y-90633600D01*
X155577600Y-91133600D01*
G37*
G36*
X155577600Y-91633600D02*
G01*
X156077600Y-91633600D01*
X156077600Y-91133600D01*
X155577600Y-91133600D01*
X155577600Y-91633600D01*
G37*
G36*
X155577600Y-93133600D02*
G01*
X156077600Y-93133600D01*
X156077600Y-92633600D01*
X155577600Y-92633600D01*
X155577600Y-93133600D01*
G37*
G36*
X155577600Y-96133600D02*
G01*
X156077600Y-96133600D01*
X156077600Y-95633600D01*
X155577600Y-95633600D01*
X155577600Y-96133600D01*
G37*
G36*
X155577600Y-97633600D02*
G01*
X156077600Y-97633600D01*
X156077600Y-97133600D01*
X155577600Y-97133600D01*
X155577600Y-97633600D01*
G37*
G36*
X155577600Y-98133600D02*
G01*
X156077600Y-98133600D01*
X156077600Y-97633600D01*
X155577600Y-97633600D01*
X155577600Y-98133600D01*
G37*
G36*
X155577600Y-99133600D02*
G01*
X156077600Y-99133600D01*
X156077600Y-98633600D01*
X155577600Y-98633600D01*
X155577600Y-99133600D01*
G37*
G36*
X155577600Y-100133600D02*
G01*
X156077600Y-100133600D01*
X156077600Y-99633600D01*
X155577600Y-99633600D01*
X155577600Y-100133600D01*
G37*
G36*
X155577600Y-100633600D02*
G01*
X156077600Y-100633600D01*
X156077600Y-100133600D01*
X155577600Y-100133600D01*
X155577600Y-100633600D01*
G37*
G36*
X155577600Y-101133600D02*
G01*
X156077600Y-101133600D01*
X156077600Y-100633600D01*
X155577600Y-100633600D01*
X155577600Y-101133600D01*
G37*
G36*
X155577600Y-104133600D02*
G01*
X156077600Y-104133600D01*
X156077600Y-103633600D01*
X155577600Y-103633600D01*
X155577600Y-104133600D01*
G37*
G36*
X155577600Y-105633600D02*
G01*
X156077600Y-105633600D01*
X156077600Y-105133600D01*
X155577600Y-105133600D01*
X155577600Y-105633600D01*
G37*
G36*
X155077600Y-92133600D02*
G01*
X155577600Y-92133600D01*
X155577600Y-91633600D01*
X155077600Y-91633600D01*
X155077600Y-92133600D01*
G37*
G36*
X155077600Y-92633600D02*
G01*
X155577600Y-92633600D01*
X155577600Y-92133600D01*
X155077600Y-92133600D01*
X155077600Y-92633600D01*
G37*
G36*
X155077600Y-93133600D02*
G01*
X155577600Y-93133600D01*
X155577600Y-92633600D01*
X155077600Y-92633600D01*
X155077600Y-93133600D01*
G37*
G36*
X155077600Y-93633600D02*
G01*
X155577600Y-93633600D01*
X155577600Y-93133600D01*
X155077600Y-93133600D01*
X155077600Y-93633600D01*
G37*
G36*
X155077600Y-94633600D02*
G01*
X155577600Y-94633600D01*
X155577600Y-94133600D01*
X155077600Y-94133600D01*
X155077600Y-94633600D01*
G37*
G36*
X155077600Y-95133600D02*
G01*
X155577600Y-95133600D01*
X155577600Y-94633600D01*
X155077600Y-94633600D01*
X155077600Y-95133600D01*
G37*
G36*
X155077600Y-96133600D02*
G01*
X155577600Y-96133600D01*
X155577600Y-95633600D01*
X155077600Y-95633600D01*
X155077600Y-96133600D01*
G37*
G36*
X155077600Y-96633600D02*
G01*
X155577600Y-96633600D01*
X155577600Y-96133600D01*
X155077600Y-96133600D01*
X155077600Y-96633600D01*
G37*
G36*
X155077600Y-97633600D02*
G01*
X155577600Y-97633600D01*
X155577600Y-97133600D01*
X155077600Y-97133600D01*
X155077600Y-97633600D01*
G37*
G36*
X155077600Y-98633600D02*
G01*
X155577600Y-98633600D01*
X155577600Y-98133600D01*
X155077600Y-98133600D01*
X155077600Y-98633600D01*
G37*
G36*
X155077600Y-99133600D02*
G01*
X155577600Y-99133600D01*
X155577600Y-98633600D01*
X155077600Y-98633600D01*
X155077600Y-99133600D01*
G37*
G36*
X155077600Y-99633600D02*
G01*
X155577600Y-99633600D01*
X155577600Y-99133600D01*
X155077600Y-99133600D01*
X155077600Y-99633600D01*
G37*
G36*
X155077600Y-101133600D02*
G01*
X155577600Y-101133600D01*
X155577600Y-100633600D01*
X155077600Y-100633600D01*
X155077600Y-101133600D01*
G37*
G36*
X155077600Y-101633600D02*
G01*
X155577600Y-101633600D01*
X155577600Y-101133600D01*
X155077600Y-101133600D01*
X155077600Y-101633600D01*
G37*
G36*
X155077600Y-102133600D02*
G01*
X155577600Y-102133600D01*
X155577600Y-101633600D01*
X155077600Y-101633600D01*
X155077600Y-102133600D01*
G37*
G36*
X155077600Y-102633600D02*
G01*
X155577600Y-102633600D01*
X155577600Y-102133600D01*
X155077600Y-102133600D01*
X155077600Y-102633600D01*
G37*
G36*
X155077600Y-103133600D02*
G01*
X155577600Y-103133600D01*
X155577600Y-102633600D01*
X155077600Y-102633600D01*
X155077600Y-103133600D01*
G37*
G36*
X155077600Y-104133600D02*
G01*
X155577600Y-104133600D01*
X155577600Y-103633600D01*
X155077600Y-103633600D01*
X155077600Y-104133600D01*
G37*
G36*
X155077600Y-104633600D02*
G01*
X155577600Y-104633600D01*
X155577600Y-104133600D01*
X155077600Y-104133600D01*
X155077600Y-104633600D01*
G37*
G36*
X155077600Y-105633600D02*
G01*
X155577600Y-105633600D01*
X155577600Y-105133600D01*
X155077600Y-105133600D01*
X155077600Y-105633600D01*
G37*
G36*
X154577600Y-90633600D02*
G01*
X155077600Y-90633600D01*
X155077600Y-90133600D01*
X154577600Y-90133600D01*
X154577600Y-90633600D01*
G37*
G36*
X154577600Y-91133600D02*
G01*
X155077600Y-91133600D01*
X155077600Y-90633600D01*
X154577600Y-90633600D01*
X154577600Y-91133600D01*
G37*
G36*
X154577600Y-92133600D02*
G01*
X155077600Y-92133600D01*
X155077600Y-91633600D01*
X154577600Y-91633600D01*
X154577600Y-92133600D01*
G37*
G36*
X154577600Y-93133600D02*
G01*
X155077600Y-93133600D01*
X155077600Y-92633600D01*
X154577600Y-92633600D01*
X154577600Y-93133600D01*
G37*
G36*
X154577600Y-93633600D02*
G01*
X155077600Y-93633600D01*
X155077600Y-93133600D01*
X154577600Y-93133600D01*
X154577600Y-93633600D01*
G37*
G36*
X154577600Y-94133600D02*
G01*
X155077600Y-94133600D01*
X155077600Y-93633600D01*
X154577600Y-93633600D01*
X154577600Y-94133600D01*
G37*
G36*
X154577600Y-96133600D02*
G01*
X155077600Y-96133600D01*
X155077600Y-95633600D01*
X154577600Y-95633600D01*
X154577600Y-96133600D01*
G37*
G36*
X154577600Y-97133600D02*
G01*
X155077600Y-97133600D01*
X155077600Y-96633600D01*
X154577600Y-96633600D01*
X154577600Y-97133600D01*
G37*
G36*
X154577600Y-97633600D02*
G01*
X155077600Y-97633600D01*
X155077600Y-97133600D01*
X154577600Y-97133600D01*
X154577600Y-97633600D01*
G37*
G36*
X154577600Y-98633600D02*
G01*
X155077600Y-98633600D01*
X155077600Y-98133600D01*
X154577600Y-98133600D01*
X154577600Y-98633600D01*
G37*
G36*
X154577600Y-99133600D02*
G01*
X155077600Y-99133600D01*
X155077600Y-98633600D01*
X154577600Y-98633600D01*
X154577600Y-99133600D01*
G37*
G36*
X154577600Y-101133600D02*
G01*
X155077600Y-101133600D01*
X155077600Y-100633600D01*
X154577600Y-100633600D01*
X154577600Y-101133600D01*
G37*
G36*
X154577600Y-101633600D02*
G01*
X155077600Y-101633600D01*
X155077600Y-101133600D01*
X154577600Y-101133600D01*
X154577600Y-101633600D01*
G37*
G36*
X154577600Y-102133600D02*
G01*
X155077600Y-102133600D01*
X155077600Y-101633600D01*
X154577600Y-101633600D01*
X154577600Y-102133600D01*
G37*
G36*
X154577600Y-104133600D02*
G01*
X155077600Y-104133600D01*
X155077600Y-103633600D01*
X154577600Y-103633600D01*
X154577600Y-104133600D01*
G37*
G36*
X154577600Y-105133600D02*
G01*
X155077600Y-105133600D01*
X155077600Y-104633600D01*
X154577600Y-104633600D01*
X154577600Y-105133600D01*
G37*
G36*
X154577600Y-105633600D02*
G01*
X155077600Y-105633600D01*
X155077600Y-105133600D01*
X154577600Y-105133600D01*
X154577600Y-105633600D01*
G37*
G36*
X154077600Y-91133600D02*
G01*
X154577600Y-91133600D01*
X154577600Y-90633600D01*
X154077600Y-90633600D01*
X154077600Y-91133600D01*
G37*
G36*
X154077600Y-91633600D02*
G01*
X154577600Y-91633600D01*
X154577600Y-91133600D01*
X154077600Y-91133600D01*
X154077600Y-91633600D01*
G37*
G36*
X154077600Y-92633600D02*
G01*
X154577600Y-92633600D01*
X154577600Y-92133600D01*
X154077600Y-92133600D01*
X154077600Y-92633600D01*
G37*
G36*
X154077600Y-93133600D02*
G01*
X154577600Y-93133600D01*
X154577600Y-92633600D01*
X154077600Y-92633600D01*
X154077600Y-93133600D01*
G37*
G36*
X154077600Y-95133600D02*
G01*
X154577600Y-95133600D01*
X154577600Y-94633600D01*
X154077600Y-94633600D01*
X154077600Y-95133600D01*
G37*
G36*
X154077600Y-95633600D02*
G01*
X154577600Y-95633600D01*
X154577600Y-95133600D01*
X154077600Y-95133600D01*
X154077600Y-95633600D01*
G37*
G36*
X154077600Y-97133600D02*
G01*
X154577600Y-97133600D01*
X154577600Y-96633600D01*
X154077600Y-96633600D01*
X154077600Y-97133600D01*
G37*
G36*
X154077600Y-97633600D02*
G01*
X154577600Y-97633600D01*
X154577600Y-97133600D01*
X154077600Y-97133600D01*
X154077600Y-97633600D01*
G37*
G36*
X154077600Y-98633600D02*
G01*
X154577600Y-98633600D01*
X154577600Y-98133600D01*
X154077600Y-98133600D01*
X154077600Y-98633600D01*
G37*
G36*
X154077600Y-100133600D02*
G01*
X154577600Y-100133600D01*
X154577600Y-99633600D01*
X154077600Y-99633600D01*
X154077600Y-100133600D01*
G37*
G36*
X154077600Y-100633600D02*
G01*
X154577600Y-100633600D01*
X154577600Y-100133600D01*
X154077600Y-100133600D01*
X154077600Y-100633600D01*
G37*
G36*
X154077600Y-101633600D02*
G01*
X154577600Y-101633600D01*
X154577600Y-101133600D01*
X154077600Y-101133600D01*
X154077600Y-101633600D01*
G37*
G36*
X154077600Y-103133600D02*
G01*
X154577600Y-103133600D01*
X154577600Y-102633600D01*
X154077600Y-102633600D01*
X154077600Y-103133600D01*
G37*
G36*
X154077600Y-103633600D02*
G01*
X154577600Y-103633600D01*
X154577600Y-103133600D01*
X154077600Y-103133600D01*
X154077600Y-103633600D01*
G37*
G36*
X154077600Y-105633600D02*
G01*
X154577600Y-105633600D01*
X154577600Y-105133600D01*
X154077600Y-105133600D01*
X154077600Y-105633600D01*
G37*
G36*
X153577600Y-89633600D02*
G01*
X154077600Y-89633600D01*
X154077600Y-89133600D01*
X153577600Y-89133600D01*
X153577600Y-89633600D01*
G37*
G36*
X153577600Y-90633600D02*
G01*
X154077600Y-90633600D01*
X154077600Y-90133600D01*
X153577600Y-90133600D01*
X153577600Y-90633600D01*
G37*
G36*
X153577600Y-91133600D02*
G01*
X154077600Y-91133600D01*
X154077600Y-90633600D01*
X153577600Y-90633600D01*
X153577600Y-91133600D01*
G37*
G36*
X153577600Y-92133600D02*
G01*
X154077600Y-92133600D01*
X154077600Y-91633600D01*
X153577600Y-91633600D01*
X153577600Y-92133600D01*
G37*
G36*
X153577600Y-93633600D02*
G01*
X154077600Y-93633600D01*
X154077600Y-93133600D01*
X153577600Y-93133600D01*
X153577600Y-93633600D01*
G37*
G36*
X153577600Y-94133600D02*
G01*
X154077600Y-94133600D01*
X154077600Y-93633600D01*
X153577600Y-93633600D01*
X153577600Y-94133600D01*
G37*
G36*
X153577600Y-94633600D02*
G01*
X154077600Y-94633600D01*
X154077600Y-94133600D01*
X153577600Y-94133600D01*
X153577600Y-94633600D01*
G37*
G36*
X153577600Y-95133600D02*
G01*
X154077600Y-95133600D01*
X154077600Y-94633600D01*
X153577600Y-94633600D01*
X153577600Y-95133600D01*
G37*
G36*
X153577600Y-95633600D02*
G01*
X154077600Y-95633600D01*
X154077600Y-95133600D01*
X153577600Y-95133600D01*
X153577600Y-95633600D01*
G37*
G36*
X153577600Y-96633600D02*
G01*
X154077600Y-96633600D01*
X154077600Y-96133600D01*
X153577600Y-96133600D01*
X153577600Y-96633600D01*
G37*
G36*
X153577600Y-97133600D02*
G01*
X154077600Y-97133600D01*
X154077600Y-96633600D01*
X153577600Y-96633600D01*
X153577600Y-97133600D01*
G37*
G36*
X153577600Y-98133600D02*
G01*
X154077600Y-98133600D01*
X154077600Y-97633600D01*
X153577600Y-97633600D01*
X153577600Y-98133600D01*
G37*
G36*
X153577600Y-98633600D02*
G01*
X154077600Y-98633600D01*
X154077600Y-98133600D01*
X153577600Y-98133600D01*
X153577600Y-98633600D01*
G37*
G36*
X153577600Y-99133600D02*
G01*
X154077600Y-99133600D01*
X154077600Y-98633600D01*
X153577600Y-98633600D01*
X153577600Y-99133600D01*
G37*
G36*
X153577600Y-101633600D02*
G01*
X154077600Y-101633600D01*
X154077600Y-101133600D01*
X153577600Y-101133600D01*
X153577600Y-101633600D01*
G37*
G36*
X153577600Y-102133600D02*
G01*
X154077600Y-102133600D01*
X154077600Y-101633600D01*
X153577600Y-101633600D01*
X153577600Y-102133600D01*
G37*
G36*
X153577600Y-104133600D02*
G01*
X154077600Y-104133600D01*
X154077600Y-103633600D01*
X153577600Y-103633600D01*
X153577600Y-104133600D01*
G37*
G36*
X153577600Y-104633600D02*
G01*
X154077600Y-104633600D01*
X154077600Y-104133600D01*
X153577600Y-104133600D01*
X153577600Y-104633600D01*
G37*
G36*
X153077600Y-90633600D02*
G01*
X153577600Y-90633600D01*
X153577600Y-90133600D01*
X153077600Y-90133600D01*
X153077600Y-90633600D01*
G37*
G36*
X153077600Y-92133600D02*
G01*
X153577600Y-92133600D01*
X153577600Y-91633600D01*
X153077600Y-91633600D01*
X153077600Y-92133600D01*
G37*
G36*
X153077600Y-92633600D02*
G01*
X153577600Y-92633600D01*
X153577600Y-92133600D01*
X153077600Y-92133600D01*
X153077600Y-92633600D01*
G37*
G36*
X153077600Y-93133600D02*
G01*
X153577600Y-93133600D01*
X153577600Y-92633600D01*
X153077600Y-92633600D01*
X153077600Y-93133600D01*
G37*
G36*
X153077600Y-96133600D02*
G01*
X153577600Y-96133600D01*
X153577600Y-95633600D01*
X153077600Y-95633600D01*
X153077600Y-96133600D01*
G37*
G36*
X153077600Y-96633600D02*
G01*
X153577600Y-96633600D01*
X153577600Y-96133600D01*
X153077600Y-96133600D01*
X153077600Y-96633600D01*
G37*
G36*
X153077600Y-97633600D02*
G01*
X153577600Y-97633600D01*
X153577600Y-97133600D01*
X153077600Y-97133600D01*
X153077600Y-97633600D01*
G37*
G36*
X153077600Y-99133600D02*
G01*
X153577600Y-99133600D01*
X153577600Y-98633600D01*
X153077600Y-98633600D01*
X153077600Y-99133600D01*
G37*
G36*
X153077600Y-99633600D02*
G01*
X153577600Y-99633600D01*
X153577600Y-99133600D01*
X153077600Y-99133600D01*
X153077600Y-99633600D01*
G37*
G36*
X153077600Y-101133600D02*
G01*
X153577600Y-101133600D01*
X153577600Y-100633600D01*
X153077600Y-100633600D01*
X153077600Y-101133600D01*
G37*
G36*
X153077600Y-101633600D02*
G01*
X153577600Y-101633600D01*
X153577600Y-101133600D01*
X153077600Y-101133600D01*
X153077600Y-101633600D01*
G37*
G36*
X153077600Y-102133600D02*
G01*
X153577600Y-102133600D01*
X153577600Y-101633600D01*
X153077600Y-101633600D01*
X153077600Y-102133600D01*
G37*
G36*
X153077600Y-102633600D02*
G01*
X153577600Y-102633600D01*
X153577600Y-102133600D01*
X153077600Y-102133600D01*
X153077600Y-102633600D01*
G37*
G36*
X153077600Y-103133600D02*
G01*
X153577600Y-103133600D01*
X153577600Y-102633600D01*
X153077600Y-102633600D01*
X153077600Y-103133600D01*
G37*
G36*
X153077600Y-103633600D02*
G01*
X153577600Y-103633600D01*
X153577600Y-103133600D01*
X153077600Y-103133600D01*
X153077600Y-103633600D01*
G37*
G36*
X153077600Y-104133600D02*
G01*
X153577600Y-104133600D01*
X153577600Y-103633600D01*
X153077600Y-103633600D01*
X153077600Y-104133600D01*
G37*
G36*
X153077600Y-104633600D02*
G01*
X153577600Y-104633600D01*
X153577600Y-104133600D01*
X153077600Y-104133600D01*
X153077600Y-104633600D01*
G37*
G36*
X153077600Y-105633600D02*
G01*
X153577600Y-105633600D01*
X153577600Y-105133600D01*
X153077600Y-105133600D01*
X153077600Y-105633600D01*
G37*
G36*
X152577600Y-93633600D02*
G01*
X153077600Y-93633600D01*
X153077600Y-93133600D01*
X152577600Y-93133600D01*
X152577600Y-93633600D01*
G37*
G36*
X152577600Y-94133600D02*
G01*
X153077600Y-94133600D01*
X153077600Y-93633600D01*
X152577600Y-93633600D01*
X152577600Y-94133600D01*
G37*
G36*
X152577600Y-95133600D02*
G01*
X153077600Y-95133600D01*
X153077600Y-94633600D01*
X152577600Y-94633600D01*
X152577600Y-95133600D01*
G37*
G36*
X152577600Y-95633600D02*
G01*
X153077600Y-95633600D01*
X153077600Y-95133600D01*
X152577600Y-95133600D01*
X152577600Y-95633600D01*
G37*
G36*
X152577600Y-96633600D02*
G01*
X153077600Y-96633600D01*
X153077600Y-96133600D01*
X152577600Y-96133600D01*
X152577600Y-96633600D01*
G37*
G36*
X152577600Y-97133600D02*
G01*
X153077600Y-97133600D01*
X153077600Y-96633600D01*
X152577600Y-96633600D01*
X152577600Y-97133600D01*
G37*
G36*
X152577600Y-98133600D02*
G01*
X153077600Y-98133600D01*
X153077600Y-97633600D01*
X152577600Y-97633600D01*
X152577600Y-98133600D01*
G37*
G36*
X152577600Y-98633600D02*
G01*
X153077600Y-98633600D01*
X153077600Y-98133600D01*
X152577600Y-98133600D01*
X152577600Y-98633600D01*
G37*
G36*
X152577600Y-100133600D02*
G01*
X153077600Y-100133600D01*
X153077600Y-99633600D01*
X152577600Y-99633600D01*
X152577600Y-100133600D01*
G37*
G36*
X152577600Y-100633600D02*
G01*
X153077600Y-100633600D01*
X153077600Y-100133600D01*
X152577600Y-100133600D01*
X152577600Y-100633600D01*
G37*
G36*
X152577600Y-101133600D02*
G01*
X153077600Y-101133600D01*
X153077600Y-100633600D01*
X152577600Y-100633600D01*
X152577600Y-101133600D01*
G37*
G36*
X152577600Y-101633600D02*
G01*
X153077600Y-101633600D01*
X153077600Y-101133600D01*
X152577600Y-101133600D01*
X152577600Y-101633600D01*
G37*
G36*
X152577600Y-103633600D02*
G01*
X153077600Y-103633600D01*
X153077600Y-103133600D01*
X152577600Y-103133600D01*
X152577600Y-103633600D01*
G37*
G36*
X152077600Y-89633600D02*
G01*
X152577600Y-89633600D01*
X152577600Y-89133600D01*
X152077600Y-89133600D01*
X152077600Y-89633600D01*
G37*
G36*
X152077600Y-90133600D02*
G01*
X152577600Y-90133600D01*
X152577600Y-89633600D01*
X152077600Y-89633600D01*
X152077600Y-90133600D01*
G37*
G36*
X152077600Y-90633600D02*
G01*
X152577600Y-90633600D01*
X152577600Y-90133600D01*
X152077600Y-90133600D01*
X152077600Y-90633600D01*
G37*
G36*
X152077600Y-91133600D02*
G01*
X152577600Y-91133600D01*
X152577600Y-90633600D01*
X152077600Y-90633600D01*
X152077600Y-91133600D01*
G37*
G36*
X152077600Y-91633600D02*
G01*
X152577600Y-91633600D01*
X152577600Y-91133600D01*
X152077600Y-91133600D01*
X152077600Y-91633600D01*
G37*
G36*
X152077600Y-92133600D02*
G01*
X152577600Y-92133600D01*
X152577600Y-91633600D01*
X152077600Y-91633600D01*
X152077600Y-92133600D01*
G37*
G36*
X152077600Y-92633600D02*
G01*
X152577600Y-92633600D01*
X152577600Y-92133600D01*
X152077600Y-92133600D01*
X152077600Y-92633600D01*
G37*
G36*
X152077600Y-93633600D02*
G01*
X152577600Y-93633600D01*
X152577600Y-93133600D01*
X152077600Y-93133600D01*
X152077600Y-93633600D01*
G37*
G36*
X152077600Y-95633600D02*
G01*
X152577600Y-95633600D01*
X152577600Y-95133600D01*
X152077600Y-95133600D01*
X152077600Y-95633600D01*
G37*
G36*
X152077600Y-96133600D02*
G01*
X152577600Y-96133600D01*
X152577600Y-95633600D01*
X152077600Y-95633600D01*
X152077600Y-96133600D01*
G37*
G36*
X152077600Y-96633600D02*
G01*
X152577600Y-96633600D01*
X152577600Y-96133600D01*
X152077600Y-96133600D01*
X152077600Y-96633600D01*
G37*
G36*
X152077600Y-97133600D02*
G01*
X152577600Y-97133600D01*
X152577600Y-96633600D01*
X152077600Y-96633600D01*
X152077600Y-97133600D01*
G37*
G36*
X152077600Y-97633600D02*
G01*
X152577600Y-97633600D01*
X152577600Y-97133600D01*
X152077600Y-97133600D01*
X152077600Y-97633600D01*
G37*
G36*
X152077600Y-98633600D02*
G01*
X152577600Y-98633600D01*
X152577600Y-98133600D01*
X152077600Y-98133600D01*
X152077600Y-98633600D01*
G37*
G36*
X152077600Y-99133600D02*
G01*
X152577600Y-99133600D01*
X152577600Y-98633600D01*
X152077600Y-98633600D01*
X152077600Y-99133600D01*
G37*
G36*
X152077600Y-100133600D02*
G01*
X152577600Y-100133600D01*
X152577600Y-99633600D01*
X152077600Y-99633600D01*
X152077600Y-100133600D01*
G37*
G36*
X152077600Y-101133600D02*
G01*
X152577600Y-101133600D01*
X152577600Y-100633600D01*
X152077600Y-100633600D01*
X152077600Y-101133600D01*
G37*
G36*
X152077600Y-101633600D02*
G01*
X152577600Y-101633600D01*
X152577600Y-101133600D01*
X152077600Y-101133600D01*
X152077600Y-101633600D01*
G37*
G36*
X152077600Y-102633600D02*
G01*
X152577600Y-102633600D01*
X152577600Y-102133600D01*
X152077600Y-102133600D01*
X152077600Y-102633600D01*
G37*
G36*
X152077600Y-103633600D02*
G01*
X152577600Y-103633600D01*
X152577600Y-103133600D01*
X152077600Y-103133600D01*
X152077600Y-103633600D01*
G37*
G36*
X152077600Y-104133600D02*
G01*
X152577600Y-104133600D01*
X152577600Y-103633600D01*
X152077600Y-103633600D01*
X152077600Y-104133600D01*
G37*
G36*
X152077600Y-104633600D02*
G01*
X152577600Y-104633600D01*
X152577600Y-104133600D01*
X152077600Y-104133600D01*
X152077600Y-104633600D01*
G37*
G36*
X152077600Y-105633600D02*
G01*
X152577600Y-105633600D01*
X152577600Y-105133600D01*
X152077600Y-105133600D01*
X152077600Y-105633600D01*
G37*
G36*
X151577600Y-89633600D02*
G01*
X152077600Y-89633600D01*
X152077600Y-89133600D01*
X151577600Y-89133600D01*
X151577600Y-89633600D01*
G37*
G36*
X151577600Y-92633600D02*
G01*
X152077600Y-92633600D01*
X152077600Y-92133600D01*
X151577600Y-92133600D01*
X151577600Y-92633600D01*
G37*
G36*
X151577600Y-93633600D02*
G01*
X152077600Y-93633600D01*
X152077600Y-93133600D01*
X151577600Y-93133600D01*
X151577600Y-93633600D01*
G37*
G36*
X151577600Y-96133600D02*
G01*
X152077600Y-96133600D01*
X152077600Y-95633600D01*
X151577600Y-95633600D01*
X151577600Y-96133600D01*
G37*
G36*
X151577600Y-96633600D02*
G01*
X152077600Y-96633600D01*
X152077600Y-96133600D01*
X151577600Y-96133600D01*
X151577600Y-96633600D01*
G37*
G36*
X151577600Y-98633600D02*
G01*
X152077600Y-98633600D01*
X152077600Y-98133600D01*
X151577600Y-98133600D01*
X151577600Y-98633600D01*
G37*
G36*
X151577600Y-99133600D02*
G01*
X152077600Y-99133600D01*
X152077600Y-98633600D01*
X151577600Y-98633600D01*
X151577600Y-99133600D01*
G37*
G36*
X151577600Y-99633600D02*
G01*
X152077600Y-99633600D01*
X152077600Y-99133600D01*
X151577600Y-99133600D01*
X151577600Y-99633600D01*
G37*
G36*
X151577600Y-101133600D02*
G01*
X152077600Y-101133600D01*
X152077600Y-100633600D01*
X151577600Y-100633600D01*
X151577600Y-101133600D01*
G37*
G36*
X151577600Y-101633600D02*
G01*
X152077600Y-101633600D01*
X152077600Y-101133600D01*
X151577600Y-101133600D01*
X151577600Y-101633600D01*
G37*
G36*
X151577600Y-103633600D02*
G01*
X152077600Y-103633600D01*
X152077600Y-103133600D01*
X151577600Y-103133600D01*
X151577600Y-103633600D01*
G37*
G36*
X151577600Y-104133600D02*
G01*
X152077600Y-104133600D01*
X152077600Y-103633600D01*
X151577600Y-103633600D01*
X151577600Y-104133600D01*
G37*
G36*
X151577600Y-104633600D02*
G01*
X152077600Y-104633600D01*
X152077600Y-104133600D01*
X151577600Y-104133600D01*
X151577600Y-104633600D01*
G37*
G36*
X151077600Y-89633600D02*
G01*
X151577600Y-89633600D01*
X151577600Y-89133600D01*
X151077600Y-89133600D01*
X151077600Y-89633600D01*
G37*
G36*
X151077600Y-90633600D02*
G01*
X151577600Y-90633600D01*
X151577600Y-90133600D01*
X151077600Y-90133600D01*
X151077600Y-90633600D01*
G37*
G36*
X151077600Y-91133600D02*
G01*
X151577600Y-91133600D01*
X151577600Y-90633600D01*
X151077600Y-90633600D01*
X151077600Y-91133600D01*
G37*
G36*
X151077600Y-91633600D02*
G01*
X151577600Y-91633600D01*
X151577600Y-91133600D01*
X151077600Y-91133600D01*
X151077600Y-91633600D01*
G37*
G36*
X151077600Y-92633600D02*
G01*
X151577600Y-92633600D01*
X151577600Y-92133600D01*
X151077600Y-92133600D01*
X151077600Y-92633600D01*
G37*
G36*
X151077600Y-93633600D02*
G01*
X151577600Y-93633600D01*
X151577600Y-93133600D01*
X151077600Y-93133600D01*
X151077600Y-93633600D01*
G37*
G36*
X151077600Y-96133600D02*
G01*
X151577600Y-96133600D01*
X151577600Y-95633600D01*
X151077600Y-95633600D01*
X151077600Y-96133600D01*
G37*
G36*
X151077600Y-97633600D02*
G01*
X151577600Y-97633600D01*
X151577600Y-97133600D01*
X151077600Y-97133600D01*
X151077600Y-97633600D01*
G37*
G36*
X151077600Y-100633600D02*
G01*
X151577600Y-100633600D01*
X151577600Y-100133600D01*
X151077600Y-100133600D01*
X151077600Y-100633600D01*
G37*
G36*
X151077600Y-101133600D02*
G01*
X151577600Y-101133600D01*
X151577600Y-100633600D01*
X151077600Y-100633600D01*
X151077600Y-101133600D01*
G37*
G36*
X151077600Y-101633600D02*
G01*
X151577600Y-101633600D01*
X151577600Y-101133600D01*
X151077600Y-101133600D01*
X151077600Y-101633600D01*
G37*
G36*
X151077600Y-102133600D02*
G01*
X151577600Y-102133600D01*
X151577600Y-101633600D01*
X151077600Y-101633600D01*
X151077600Y-102133600D01*
G37*
G36*
X151077600Y-102633600D02*
G01*
X151577600Y-102633600D01*
X151577600Y-102133600D01*
X151077600Y-102133600D01*
X151077600Y-102633600D01*
G37*
G36*
X151077600Y-103133600D02*
G01*
X151577600Y-103133600D01*
X151577600Y-102633600D01*
X151077600Y-102633600D01*
X151077600Y-103133600D01*
G37*
G36*
X151077600Y-103633600D02*
G01*
X151577600Y-103633600D01*
X151577600Y-103133600D01*
X151077600Y-103133600D01*
X151077600Y-103633600D01*
G37*
G36*
X151077600Y-104133600D02*
G01*
X151577600Y-104133600D01*
X151577600Y-103633600D01*
X151077600Y-103633600D01*
X151077600Y-104133600D01*
G37*
G36*
X151077600Y-104633600D02*
G01*
X151577600Y-104633600D01*
X151577600Y-104133600D01*
X151077600Y-104133600D01*
X151077600Y-104633600D01*
G37*
G36*
X150577600Y-89633600D02*
G01*
X151077600Y-89633600D01*
X151077600Y-89133600D01*
X150577600Y-89133600D01*
X150577600Y-89633600D01*
G37*
G36*
X150577600Y-90633600D02*
G01*
X151077600Y-90633600D01*
X151077600Y-90133600D01*
X150577600Y-90133600D01*
X150577600Y-90633600D01*
G37*
G36*
X150577600Y-91133600D02*
G01*
X151077600Y-91133600D01*
X151077600Y-90633600D01*
X150577600Y-90633600D01*
X150577600Y-91133600D01*
G37*
G36*
X150577600Y-91633600D02*
G01*
X151077600Y-91633600D01*
X151077600Y-91133600D01*
X150577600Y-91133600D01*
X150577600Y-91633600D01*
G37*
G36*
X150577600Y-92633600D02*
G01*
X151077600Y-92633600D01*
X151077600Y-92133600D01*
X150577600Y-92133600D01*
X150577600Y-92633600D01*
G37*
G36*
X150577600Y-93633600D02*
G01*
X151077600Y-93633600D01*
X151077600Y-93133600D01*
X150577600Y-93133600D01*
X150577600Y-93633600D01*
G37*
G36*
X150577600Y-94133600D02*
G01*
X151077600Y-94133600D01*
X151077600Y-93633600D01*
X150577600Y-93633600D01*
X150577600Y-94133600D01*
G37*
G36*
X150577600Y-94633600D02*
G01*
X151077600Y-94633600D01*
X151077600Y-94133600D01*
X150577600Y-94133600D01*
X150577600Y-94633600D01*
G37*
G36*
X150577600Y-95633600D02*
G01*
X151077600Y-95633600D01*
X151077600Y-95133600D01*
X150577600Y-95133600D01*
X150577600Y-95633600D01*
G37*
G36*
X150577600Y-96133600D02*
G01*
X151077600Y-96133600D01*
X151077600Y-95633600D01*
X150577600Y-95633600D01*
X150577600Y-96133600D01*
G37*
G36*
X150577600Y-96633600D02*
G01*
X151077600Y-96633600D01*
X151077600Y-96133600D01*
X150577600Y-96133600D01*
X150577600Y-96633600D01*
G37*
G36*
X150577600Y-98133600D02*
G01*
X151077600Y-98133600D01*
X151077600Y-97633600D01*
X150577600Y-97633600D01*
X150577600Y-98133600D01*
G37*
G36*
X150577600Y-98633600D02*
G01*
X151077600Y-98633600D01*
X151077600Y-98133600D01*
X150577600Y-98133600D01*
X150577600Y-98633600D01*
G37*
G36*
X150577600Y-99633600D02*
G01*
X151077600Y-99633600D01*
X151077600Y-99133600D01*
X150577600Y-99133600D01*
X150577600Y-99633600D01*
G37*
G36*
X150577600Y-101133600D02*
G01*
X151077600Y-101133600D01*
X151077600Y-100633600D01*
X150577600Y-100633600D01*
X150577600Y-101133600D01*
G37*
G36*
X150577600Y-101633600D02*
G01*
X151077600Y-101633600D01*
X151077600Y-101133600D01*
X150577600Y-101133600D01*
X150577600Y-101633600D01*
G37*
G36*
X150577600Y-102633600D02*
G01*
X151077600Y-102633600D01*
X151077600Y-102133600D01*
X150577600Y-102133600D01*
X150577600Y-102633600D01*
G37*
G36*
X150577600Y-103633600D02*
G01*
X151077600Y-103633600D01*
X151077600Y-103133600D01*
X150577600Y-103133600D01*
X150577600Y-103633600D01*
G37*
G36*
X150577600Y-104133600D02*
G01*
X151077600Y-104133600D01*
X151077600Y-103633600D01*
X150577600Y-103633600D01*
X150577600Y-104133600D01*
G37*
G36*
X150577600Y-104633600D02*
G01*
X151077600Y-104633600D01*
X151077600Y-104133600D01*
X150577600Y-104133600D01*
X150577600Y-104633600D01*
G37*
G36*
X150077600Y-89633600D02*
G01*
X150577600Y-89633600D01*
X150577600Y-89133600D01*
X150077600Y-89133600D01*
X150077600Y-89633600D01*
G37*
G36*
X150077600Y-90633600D02*
G01*
X150577600Y-90633600D01*
X150577600Y-90133600D01*
X150077600Y-90133600D01*
X150077600Y-90633600D01*
G37*
G36*
X150077600Y-91133600D02*
G01*
X150577600Y-91133600D01*
X150577600Y-90633600D01*
X150077600Y-90633600D01*
X150077600Y-91133600D01*
G37*
G36*
X150077600Y-91633600D02*
G01*
X150577600Y-91633600D01*
X150577600Y-91133600D01*
X150077600Y-91133600D01*
X150077600Y-91633600D01*
G37*
G36*
X150077600Y-92633600D02*
G01*
X150577600Y-92633600D01*
X150577600Y-92133600D01*
X150077600Y-92133600D01*
X150077600Y-92633600D01*
G37*
G36*
X150077600Y-94133600D02*
G01*
X150577600Y-94133600D01*
X150577600Y-93633600D01*
X150077600Y-93633600D01*
X150077600Y-94133600D01*
G37*
G36*
X150077600Y-96633600D02*
G01*
X150577600Y-96633600D01*
X150577600Y-96133600D01*
X150077600Y-96133600D01*
X150077600Y-96633600D01*
G37*
G36*
X150077600Y-97133600D02*
G01*
X150577600Y-97133600D01*
X150577600Y-96633600D01*
X150077600Y-96633600D01*
X150077600Y-97133600D01*
G37*
G36*
X150077600Y-97633600D02*
G01*
X150577600Y-97633600D01*
X150577600Y-97133600D01*
X150077600Y-97133600D01*
X150077600Y-97633600D01*
G37*
G36*
X150077600Y-98133600D02*
G01*
X150577600Y-98133600D01*
X150577600Y-97633600D01*
X150077600Y-97633600D01*
X150077600Y-98133600D01*
G37*
G36*
X150077600Y-100133600D02*
G01*
X150577600Y-100133600D01*
X150577600Y-99633600D01*
X150077600Y-99633600D01*
X150077600Y-100133600D01*
G37*
G36*
X150077600Y-101633600D02*
G01*
X150577600Y-101633600D01*
X150577600Y-101133600D01*
X150077600Y-101133600D01*
X150077600Y-101633600D01*
G37*
G36*
X150077600Y-102133600D02*
G01*
X150577600Y-102133600D01*
X150577600Y-101633600D01*
X150077600Y-101633600D01*
X150077600Y-102133600D01*
G37*
G36*
X150077600Y-104633600D02*
G01*
X150577600Y-104633600D01*
X150577600Y-104133600D01*
X150077600Y-104133600D01*
X150077600Y-104633600D01*
G37*
G36*
X150077600Y-105133600D02*
G01*
X150577600Y-105133600D01*
X150577600Y-104633600D01*
X150077600Y-104633600D01*
X150077600Y-105133600D01*
G37*
G36*
X150077600Y-105633600D02*
G01*
X150577600Y-105633600D01*
X150577600Y-105133600D01*
X150077600Y-105133600D01*
X150077600Y-105633600D01*
G37*
G36*
X149577600Y-89633600D02*
G01*
X150077600Y-89633600D01*
X150077600Y-89133600D01*
X149577600Y-89133600D01*
X149577600Y-89633600D01*
G37*
G36*
X149577600Y-92633600D02*
G01*
X150077600Y-92633600D01*
X150077600Y-92133600D01*
X149577600Y-92133600D01*
X149577600Y-92633600D01*
G37*
G36*
X149577600Y-95133600D02*
G01*
X150077600Y-95133600D01*
X150077600Y-94633600D01*
X149577600Y-94633600D01*
X149577600Y-95133600D01*
G37*
G36*
X149577600Y-95633600D02*
G01*
X150077600Y-95633600D01*
X150077600Y-95133600D01*
X149577600Y-95133600D01*
X149577600Y-95633600D01*
G37*
G36*
X149577600Y-96633600D02*
G01*
X150077600Y-96633600D01*
X150077600Y-96133600D01*
X149577600Y-96133600D01*
X149577600Y-96633600D01*
G37*
G36*
X149577600Y-97633600D02*
G01*
X150077600Y-97633600D01*
X150077600Y-97133600D01*
X149577600Y-97133600D01*
X149577600Y-97633600D01*
G37*
G36*
X149577600Y-98133600D02*
G01*
X150077600Y-98133600D01*
X150077600Y-97633600D01*
X149577600Y-97633600D01*
X149577600Y-98133600D01*
G37*
G36*
X149577600Y-98633600D02*
G01*
X150077600Y-98633600D01*
X150077600Y-98133600D01*
X149577600Y-98133600D01*
X149577600Y-98633600D01*
G37*
G36*
X149577600Y-100133600D02*
G01*
X150077600Y-100133600D01*
X150077600Y-99633600D01*
X149577600Y-99633600D01*
X149577600Y-100133600D01*
G37*
G36*
X149577600Y-100633600D02*
G01*
X150077600Y-100633600D01*
X150077600Y-100133600D01*
X149577600Y-100133600D01*
X149577600Y-100633600D01*
G37*
G36*
X149577600Y-101133600D02*
G01*
X150077600Y-101133600D01*
X150077600Y-100633600D01*
X149577600Y-100633600D01*
X149577600Y-101133600D01*
G37*
G36*
X149577600Y-103133600D02*
G01*
X150077600Y-103133600D01*
X150077600Y-102633600D01*
X149577600Y-102633600D01*
X149577600Y-103133600D01*
G37*
G36*
X149577600Y-103633600D02*
G01*
X150077600Y-103633600D01*
X150077600Y-103133600D01*
X149577600Y-103133600D01*
X149577600Y-103633600D01*
G37*
G36*
X149077600Y-89633600D02*
G01*
X149577600Y-89633600D01*
X149577600Y-89133600D01*
X149077600Y-89133600D01*
X149077600Y-89633600D01*
G37*
G36*
X149077600Y-90133600D02*
G01*
X149577600Y-90133600D01*
X149577600Y-89633600D01*
X149077600Y-89633600D01*
X149077600Y-90133600D01*
G37*
G36*
X149077600Y-90633600D02*
G01*
X149577600Y-90633600D01*
X149577600Y-90133600D01*
X149077600Y-90133600D01*
X149077600Y-90633600D01*
G37*
G36*
X149077600Y-91133600D02*
G01*
X149577600Y-91133600D01*
X149577600Y-90633600D01*
X149077600Y-90633600D01*
X149077600Y-91133600D01*
G37*
G36*
X149077600Y-91633600D02*
G01*
X149577600Y-91633600D01*
X149577600Y-91133600D01*
X149077600Y-91133600D01*
X149077600Y-91633600D01*
G37*
G36*
X149077600Y-92133600D02*
G01*
X149577600Y-92133600D01*
X149577600Y-91633600D01*
X149077600Y-91633600D01*
X149077600Y-92133600D01*
G37*
G36*
X149077600Y-92633600D02*
G01*
X149577600Y-92633600D01*
X149577600Y-92133600D01*
X149077600Y-92133600D01*
X149077600Y-92633600D01*
G37*
G36*
X149077600Y-93633600D02*
G01*
X149577600Y-93633600D01*
X149577600Y-93133600D01*
X149077600Y-93133600D01*
X149077600Y-93633600D01*
G37*
G36*
X149077600Y-94133600D02*
G01*
X149577600Y-94133600D01*
X149577600Y-93633600D01*
X149077600Y-93633600D01*
X149077600Y-94133600D01*
G37*
G36*
X149077600Y-95633600D02*
G01*
X149577600Y-95633600D01*
X149577600Y-95133600D01*
X149077600Y-95133600D01*
X149077600Y-95633600D01*
G37*
G36*
X149077600Y-98133600D02*
G01*
X149577600Y-98133600D01*
X149577600Y-97633600D01*
X149077600Y-97633600D01*
X149077600Y-98133600D01*
G37*
G36*
X149077600Y-98633600D02*
G01*
X149577600Y-98633600D01*
X149577600Y-98133600D01*
X149077600Y-98133600D01*
X149077600Y-98633600D01*
G37*
G36*
X149077600Y-99133600D02*
G01*
X149577600Y-99133600D01*
X149577600Y-98633600D01*
X149077600Y-98633600D01*
X149077600Y-99133600D01*
G37*
G36*
X149077600Y-102133600D02*
G01*
X149577600Y-102133600D01*
X149577600Y-101633600D01*
X149077600Y-101633600D01*
X149077600Y-102133600D01*
G37*
G36*
X149077600Y-103633600D02*
G01*
X149577600Y-103633600D01*
X149577600Y-103133600D01*
X149077600Y-103133600D01*
X149077600Y-103633600D01*
G37*
G36*
X149077600Y-104133600D02*
G01*
X149577600Y-104133600D01*
X149577600Y-103633600D01*
X149077600Y-103633600D01*
X149077600Y-104133600D01*
G37*
G36*
X149077600Y-105633600D02*
G01*
X149577600Y-105633600D01*
X149577600Y-105133600D01*
X149077600Y-105133600D01*
X149077600Y-105633600D01*
G37*
%TD*%
M02*
