%TF.GenerationSoftware,KiCad,Pcbnew,8.0.1*%
%TF.CreationDate,2024-04-15T13:35:16+02:00*%
%TF.ProjectId,EEK,45454b2e-6b69-4636-9164-5f7063625858,V1.1*%
%TF.SameCoordinates,Original*%
%TF.FileFunction,Soldermask,Top*%
%TF.FilePolarity,Negative*%
%FSLAX46Y46*%
G04 Gerber Fmt 4.6, Leading zero omitted, Abs format (unit mm)*
G04 Created by KiCad (PCBNEW 8.0.1) date 2024-04-15 13:35:16*
%MOMM*%
%LPD*%
G01*
G04 APERTURE LIST*
%ADD10C,1.524000*%
%ADD11C,1.600000*%
%ADD12O,1.600000X1.600000*%
%ADD13C,3.000000*%
%ADD14R,1.800000X1.800000*%
%ADD15C,1.800000*%
%ADD16R,1.524000X1.524000*%
%ADD17R,1.700000X1.700000*%
%ADD18O,1.700000X1.700000*%
%ADD19R,2.600000X2.600000*%
%ADD20C,2.600000*%
G04 APERTURE END LIST*
D10*
%TO.C,U4*%
X194264800Y-98880400D03*
X194264800Y-105433600D03*
X198836800Y-98880400D03*
X198760600Y-105459000D03*
%TD*%
D11*
%TO.C,R1*%
X111250000Y-112920000D03*
D12*
X111250000Y-123080000D03*
%TD*%
D13*
%TO.C,TP6*%
X82750000Y-121354100D03*
%TD*%
D11*
%TO.C,R12*%
X204930000Y-108925000D03*
D12*
X194770000Y-108925000D03*
%TD*%
D13*
%TO.C,TP4*%
X72500000Y-83250000D03*
%TD*%
D14*
%TO.C,D6*%
X106225000Y-103854100D03*
D15*
X108765000Y-103854100D03*
%TD*%
D13*
%TO.C,TP8*%
X73000000Y-121354100D03*
%TD*%
D11*
%TO.C,C2*%
X194000000Y-89700000D03*
X189000000Y-89700000D03*
%TD*%
%TO.C,R3*%
X103150000Y-112920000D03*
D12*
X103150000Y-123080000D03*
%TD*%
D11*
%TO.C,C5*%
X189000000Y-114300000D03*
X194000000Y-114300000D03*
%TD*%
%TO.C,C9*%
X132000000Y-105500000D03*
X137000000Y-105500000D03*
%TD*%
%TO.C,C8*%
X92500000Y-82750000D03*
X97500000Y-82750000D03*
%TD*%
D14*
%TO.C,D5*%
X99225000Y-103854100D03*
D15*
X101765000Y-103854100D03*
%TD*%
D11*
%TO.C,R9*%
X178670000Y-94250000D03*
D12*
X188830000Y-94250000D03*
%TD*%
D13*
%TO.C,TP7*%
X78000000Y-121354100D03*
%TD*%
D16*
%TO.C,U1*%
X81897500Y-88654100D03*
D10*
X79357500Y-88654100D03*
X76817500Y-88654100D03*
X74277500Y-88654100D03*
X71737500Y-88654100D03*
X69197500Y-88654100D03*
X66657500Y-88654100D03*
X64117500Y-88654100D03*
X61577500Y-88654100D03*
X59037500Y-88654100D03*
X56497500Y-88654100D03*
X53957500Y-88654100D03*
X51417500Y-88654100D03*
X48877500Y-88654100D03*
X46337500Y-88654100D03*
X46337500Y-114054100D03*
X48877500Y-114054100D03*
X51417500Y-114054100D03*
X53957500Y-114054100D03*
X56497500Y-114054100D03*
X59037500Y-114054100D03*
X61577500Y-114054100D03*
X64117500Y-114054100D03*
X66657500Y-114054100D03*
X69197500Y-114054100D03*
X71737500Y-114054100D03*
X74277500Y-114054100D03*
X76817500Y-114054100D03*
X79357500Y-114054100D03*
X81897500Y-114054100D03*
%TD*%
D17*
%TO.C,U10*%
X155250000Y-83354100D03*
D18*
X157790000Y-83354100D03*
X160330000Y-83354100D03*
X162870000Y-83354100D03*
%TD*%
D14*
%TO.C,D2*%
X99225000Y-94854100D03*
D15*
X101765000Y-94854100D03*
%TD*%
D13*
%TO.C,TP13*%
X51882500Y-83154100D03*
%TD*%
D14*
%TO.C,D1*%
X106225000Y-94875000D03*
D15*
X108765000Y-94875000D03*
%TD*%
D14*
%TO.C,D3*%
X92225000Y-94850000D03*
D15*
X94765000Y-94850000D03*
%TD*%
D13*
%TO.C,TP1*%
X85500000Y-83250000D03*
%TD*%
%TO.C,TP10*%
X61750000Y-121354100D03*
%TD*%
D11*
%TO.C,C4*%
X203000000Y-104750000D03*
X203000000Y-99750000D03*
%TD*%
D10*
%TO.C,U2*%
X200264800Y-83192700D03*
X200264800Y-89745900D03*
X204836800Y-83192700D03*
X204760600Y-89771300D03*
%TD*%
D11*
%TO.C,C3*%
X180000000Y-104750000D03*
X180000000Y-99750000D03*
%TD*%
D14*
%TO.C,D4*%
X92225000Y-103854100D03*
D15*
X94765000Y-103854100D03*
%TD*%
D11*
%TO.C,R7*%
X197550000Y-91330000D03*
D12*
X197550000Y-81170000D03*
%TD*%
D11*
%TO.C,R8*%
X185750000Y-91580000D03*
D12*
X185750000Y-81420000D03*
%TD*%
D19*
%TO.C,J1*%
X46500000Y-122555000D03*
D20*
X51500000Y-122555000D03*
%TD*%
D10*
%TO.C,U6*%
X200264800Y-116196800D03*
X200264800Y-122750000D03*
X204836800Y-116196800D03*
X204760600Y-122775400D03*
%TD*%
D11*
%TO.C,C7*%
X168750000Y-122000000D03*
X173750000Y-122000000D03*
%TD*%
D10*
%TO.C,U3*%
X184264800Y-98880400D03*
X184264800Y-105433600D03*
X188836800Y-98880400D03*
X188760600Y-105459000D03*
%TD*%
D13*
%TO.C,TP2*%
X81250000Y-83250000D03*
%TD*%
D17*
%TO.C,U9*%
X136130000Y-83284118D03*
D18*
X133590000Y-83284118D03*
X131050000Y-83284118D03*
X128510000Y-83284118D03*
X125970000Y-83284118D03*
X123430000Y-83284118D03*
X120890000Y-83284118D03*
X118350000Y-83284118D03*
%TD*%
D13*
%TO.C,TP5*%
X67500000Y-83250000D03*
%TD*%
D11*
%TO.C,C1*%
X189250000Y-81500000D03*
X194250000Y-81500000D03*
%TD*%
%TO.C,R4*%
X99100000Y-112920000D03*
D12*
X99100000Y-123080000D03*
%TD*%
D11*
%TO.C,R10*%
X194170000Y-94250000D03*
D12*
X204330000Y-94250000D03*
%TD*%
D11*
%TO.C,R2*%
X107200000Y-112920000D03*
D12*
X107200000Y-123080000D03*
%TD*%
D13*
%TO.C,TP9*%
X66500000Y-121354100D03*
%TD*%
D11*
%TO.C,C6*%
X189000000Y-122500000D03*
X194000000Y-122500000D03*
%TD*%
%TO.C,R5*%
X95050000Y-112920000D03*
D12*
X95050000Y-123080000D03*
%TD*%
D13*
%TO.C,TP12*%
X56750000Y-121500000D03*
%TD*%
D11*
%TO.C,R11*%
X177420000Y-109000000D03*
D12*
X187580000Y-109000000D03*
%TD*%
D10*
%TO.C,u7*%
X178489800Y-83192700D03*
X178489800Y-89745900D03*
X183061800Y-83192700D03*
X182985600Y-89771300D03*
%TD*%
D11*
%TO.C,R6*%
X91000000Y-112920000D03*
D12*
X91000000Y-123080000D03*
%TD*%
D10*
%TO.C,U5*%
X178500000Y-116196800D03*
X178500000Y-122750000D03*
X183072000Y-116196800D03*
X182995800Y-122775400D03*
%TD*%
D13*
%TO.C,TP3*%
X76882500Y-83250000D03*
%TD*%
D17*
%TO.C,U8*%
X162850000Y-114500000D03*
D18*
X160310000Y-114500000D03*
X157770000Y-114500000D03*
X155230000Y-114500000D03*
%TD*%
M02*
