M48
; DRILL file {KiCad 8.0.1} date 2024-04-15T12:38:08+0200
; FORMAT={-:-/ absolute / inch / decimal}
; #@! TF.CreationDate,2024-04-15T12:38:08+02:00
; #@! TF.GenerationSoftware,Kicad,Pcbnew,8.0.1
; #@! TF.FileFunction,Plated,1,2,PTH
FMAT,2
INCH
; #@! TA.AperFunction,Plated,PTH,ViaDrill
T1C0.0118
; #@! TA.AperFunction,Plated,PTH,ComponentDrill
T2C0.0300
; #@! TA.AperFunction,Plated,PTH,ComponentDrill
T3C0.0315
; #@! TA.AperFunction,Plated,PTH,ComponentDrill
T4C0.0354
; #@! TA.AperFunction,Plated,PTH,ComponentDrill
T5C0.0394
; #@! TA.AperFunction,Plated,PTH,ComponentDrill
T6C0.0512
; #@! TA.AperFunction,Plated,PTH,ComponentDrill
T7C0.0787
%
G90
G05
T1
X1.7913Y-3.3661
X1.939Y-4.0453
X1.9783Y-3.1299
X2.2441Y-3.3366
X2.3524Y-3.2283
X2.3524Y-3.3268
X2.4114Y-4.9213
X2.4409Y-3.1791
X2.4409Y-3.2776
X2.5148Y-3.2037
X2.5295Y-3.3268
X2.5689Y-3.2185
X2.7067Y-4.9213
X2.7165Y-4.6949
X2.7461Y-3.2185
X2.7657Y-3.3524
X2.7657Y-4.8819
X2.8543Y-4.9173
X3.1102Y-3.1693
X3.1299Y-4.5768
X3.2283Y-4.5571
X3.3071Y-4.9114
X3.3268Y-3.1693
X3.4744Y-3.189
X3.5394Y-3.3435
X3.563Y-3.4646
X3.563Y-3.5925
X3.563Y-3.8386
X3.563Y-3.9469
X3.6614Y-4.2462
X3.7106Y-4.2067
X3.7205Y-3.3366
X3.7205Y-3.435
X3.7205Y-3.5728
X3.7205Y-3.6614
X3.7884Y-3.9232
X3.8061Y-4.1988
X3.878Y-3.9665
X3.8878Y-4.2856
X3.9173Y-3.1791
X3.9173Y-3.2972
X4.065Y-4.2954
X4.0748Y-3.3041
X4.0945Y-3.3563
X4.124Y-3.1791
X4.2215Y-3.6339
X4.2234Y-3.436
X4.2932Y-4.3879
X4.3012Y-3.3366
X4.3877Y-3.5946
X4.4291Y-4.4135
X4.4783Y-4.3683
X4.5177Y-4.6457
X4.5472Y-3.2382
X4.5472Y-3.3563
X4.813Y-4.8917
X5.2264Y-3.1025
X5.9941Y-3.4096
X6.0531Y-4.2717
X6.4469Y-3.7697
X6.4469Y-4.1929
X6.5157Y-3.9075
X6.5256Y-4.1831
X6.8209Y-4.439
X6.9045Y-4.1683
T2
X7.0272Y-3.2753
X7.0272Y-3.5333
X7.0276Y-4.5747
X7.0276Y-4.8327
X7.2042Y-3.5343
X7.2046Y-4.8337
X7.2072Y-3.2753
X7.2076Y-4.5747
X7.2545Y-3.8929
X7.2545Y-4.1509
X7.4315Y-4.1519
X7.4345Y-3.8929
X7.6482Y-3.8929
X7.6482Y-4.1509
X7.8252Y-4.1519
X7.8282Y-3.8929
X7.8844Y-3.2753
X7.8844Y-3.5333
X7.8844Y-4.5747
X7.8844Y-4.8327
X8.0614Y-3.5343
X8.0614Y-4.8337
X8.0644Y-3.2753
X8.0644Y-4.5747
T3
X1.8243Y-3.4903
X1.8243Y-4.4903
X1.9243Y-3.4903
X1.9243Y-4.4903
X2.0243Y-3.4903
X2.0243Y-4.4903
X2.1243Y-3.4903
X2.1243Y-4.4903
X2.2243Y-3.4903
X2.2243Y-4.4903
X2.3243Y-3.4903
X2.3243Y-4.4903
X2.4243Y-3.4903
X2.4243Y-4.4903
X2.5243Y-3.4903
X2.5243Y-4.4903
X2.6243Y-3.4903
X2.6243Y-4.4903
X2.7243Y-3.4903
X2.7243Y-4.4903
X2.8243Y-3.4903
X2.8243Y-4.4903
X2.9243Y-3.4903
X2.9243Y-4.4903
X3.0243Y-3.4903
X3.0243Y-4.4903
X3.1243Y-3.4903
X3.1243Y-4.4903
X3.2243Y-3.4903
X3.2243Y-4.4903
X3.5827Y-4.4457
X3.5827Y-4.8457
X3.6417Y-3.2579
X3.7421Y-4.4457
X3.7421Y-4.8457
X3.8386Y-3.2579
X3.9016Y-4.4457
X3.9016Y-4.8457
X4.061Y-4.4457
X4.061Y-4.8457
X4.2205Y-4.4457
X4.2205Y-4.8457
X4.3799Y-4.4457
X4.3799Y-4.8457
X5.1969Y-4.1535
X5.3937Y-4.1535
X6.6437Y-4.8031
X6.8406Y-4.8031
X6.985Y-4.2913
X7.0343Y-3.7106
X7.0866Y-3.9272
X7.0866Y-4.124
X7.313Y-3.2055
X7.313Y-3.6055
X7.385Y-4.2913
X7.4343Y-3.7106
X7.4409Y-3.5315
X7.4409Y-4.5
X7.4409Y-4.8228
X7.4508Y-3.2087
X7.6378Y-3.5315
X7.6378Y-4.5
X7.6378Y-4.8228
X7.6445Y-3.7106
X7.6476Y-3.2087
X7.6681Y-4.2884
X7.7776Y-3.1957
X7.7776Y-3.5957
X7.9921Y-3.9272
X7.9921Y-4.124
X8.0445Y-3.7106
X8.0681Y-4.2884
T4
X3.6309Y-3.7343
X3.6309Y-4.0887
X3.7309Y-3.7343
X3.7309Y-4.0887
X3.9065Y-3.7344
X3.9065Y-4.0887
X4.0065Y-3.7344
X4.0065Y-4.0887
X4.1821Y-3.7352
X4.1821Y-4.0887
X4.2821Y-3.7352
X4.2821Y-4.0887
T5
X4.6594Y-3.2789
X4.7594Y-3.2789
X4.8594Y-3.2789
X4.9594Y-3.2789
X5.0594Y-3.2789
X5.1594Y-3.2789
X5.2594Y-3.2789
X5.3594Y-3.2789
X6.1114Y-4.5079
X6.1122Y-3.2817
X6.2114Y-4.5079
X6.2122Y-3.2817
X6.3114Y-4.5079
X6.3122Y-3.2817
X6.4114Y-4.5079
X6.4122Y-3.2817
T6
X1.8307Y-4.825
X2.0276Y-4.825
T7
X2.0426Y-3.2738
X2.2343Y-4.7835
X2.4311Y-4.7777
X2.6181Y-4.7777
X2.6575Y-3.2776
X2.8543Y-3.2776
X2.874Y-4.7777
X3.0269Y-3.2776
X3.0709Y-4.7777
X3.1988Y-3.2776
X3.2579Y-4.7777
X3.3661Y-3.2776
M30
